<?xml version="1.0" standalone="no"?>
<!DOCTYPE svg PUBLIC "-//W3C//DTD SVG 1.1//EN" "http://www.w3.org/Graphics/SVG/1.1/DTD/svg11.dtd" >
<svg>
<metadata>
Created by FontForge 20090622 at Wed Nov 18 09:09:14 2015
 By deploy user
</metadata>
<defs>
<font id="Noteworthy-Bold" horiz-adv-x="604" >
  <font-face 
    font-family="Noteworthy"
    font-weight="700"
    font-stretch="normal"
    units-per-em="800"
    panose-1="2 0 4 0 0 0 0 0 0 0"
    ascent="640"
    descent="-160"
    x-height="424"
    cap-height="676"
    bbox="-398 -348 1152 1032"
    underline-thickness="20"
    underline-position="-123"
    unicode-range="U+0008-U+FE48"
  />
<missing-glyph horiz-adv-x="500" 
d="M63 0v800h375v-800h-375zM125 63h250v675h-250v-675z" />
    <glyph glyph-name=".notdef" horiz-adv-x="500" 
d="M63 0v800h375v-800h-375zM125 63h250v675h-250v-675z" />
    <glyph glyph-name=".null" horiz-adv-x="0" 
 />
    <glyph glyph-name="nonmarkingreturn" unicode="&#xd;" horiz-adv-x="167" 
 />
    <glyph glyph-name="NULL" horiz-adv-x="0" 
 />
    <glyph glyph-name="NULL" horiz-adv-x="0" 
 />
    <glyph glyph-name="NULL" horiz-adv-x="0" 
 />
    <glyph glyph-name="space" unicode="&#x9;" horiz-adv-x="167" 
 />
    <glyph glyph-name="space" unicode=" " horiz-adv-x="167" 
 />
    <glyph glyph-name="exclam" unicode="!" horiz-adv-x="269" 
d="M232 634q0 -7 -5 -15l-9 -14q-23 -57 -34 -145q-5 -31 -15 -150q0 -5 -2.5 -19.5t-2.5 -22.5q0 -26 11 -69q-6 -8 -20 -22q-11 -3 -24 -3q-20 0 -37 10q-15 28 -15 72q0 46 18.5 136.5t18.5 136.5q0 18 -6.5 54.5t-6.5 54.5q0 10 2 17q25 21 61 21q21 0 42 -10
q24 -13 24 -32zM203 65q0 -76 -87 -76q-16 0 -61 19q-12 22 -12 42q0 58 71 58q26 0 53 -10q36 -13 36 -33z" />
    <glyph glyph-name="quotedbl" unicode="&#x22;" horiz-adv-x="268" 
d="M232 646q0 -1 -10 -24t-10 -44q0 -10 1.5 -32t1.5 -33q0 -49 -39 -49q-21 0 -33 22q-2 100 -2 110q0 19 11 47q12 34 27 34t32 -9q21 -10 21 -22zM105 662q-6 -36 -6 -146q0 -30 -4 -39q-7 -13 -34 -13q-22 0 -33 22q-3 117 -3 138q0 59 48 59q9 0 32 -21z" />
    <glyph glyph-name="numbersign" unicode="#" horiz-adv-x="501" 
d="M455 484q0 -49 -41 -49q-9 0 -28 7t-30 7l-26 -186h8q81 1 81 -43q0 -49 -41 -49q-10 0 -29 2t-29 2q-4 -51 -4 -109q0 -5 2.5 -13.5t2.5 -12.5q0 -19 -15.5 -32.5t-34.5 -13.5q-24 0 -38 24q-13 21 -13 45q0 50 10 117h-25q-6 0 -24 -1q-15 -117 -15 -129q0 -60 -52 -60
q-14 0 -27 15t-13 30q0 40 13 123q-15 -5 -21 -5q-18 0 -30 27q-11 23 -11 42q0 30 19 30q-2 0 56 0l15 182q-20 -7 -40 -7q-11 0 -18 22q-6 17 -6 31q0 26 26 43l51 3q3 45 13 134q34 20 52 20q21 0 34.5 -13t13.5 -34q0 -9 -15 -57q-1 -15 -6 -45l59 2q5 32 18 133
q37 24 47 24q21 0 39.5 -13.5t18.5 -34.5q0 -13 -13 -50q-15 -45 -17 -54h4q28 0 51 -13q28 -15 28 -41zM268 454h-33h-28q-5 -66 -18 -198l52 3z" />
    <glyph glyph-name="dollar" unicode="$" horiz-adv-x="524" 
d="M476 499q0 -25 -35 -37q-26 -10 -56 -10q-6 0 -18.5 1.5t-18.5 1.5t-10 -1q-5 -41 -10 -123q43 -12 87 -23q51 -20 51 -62q0 -46 -50 -71q-2 -1 -88 -30v-6q0 -37 3 -64q0 -3 2.5 -14.5t2.5 -16.5q0 -32 -5 -44q-9 -18 -35 -17h-25q-24 71 -26 151q-4 0 -12 -1h-11
q-46 0 -114 20q-83 26 -83 60q0 20 21 33q18 11 40 11q21 0 41 -16q33 -26 36 -27q23 -12 83 -13q-4 13 -4 65q-59 21 -82 36q-43 29 -43 73q0 50 46 86q20 16 89 52v118q0 23 21 37.5t45 14.5q12 0 25 -9l21 -16v-21q0 -13 -11 -25q-6 -7 -8 -74q42 8 53 8q24 0 49 -12
q29 -14 29 -35zM247 349v78q-23 -17 -25 -19q-11 -11 -11 -28q0 -12 12 -19t24 -12zM358 234q0 12 -13 15l-21 4v-49l22.5 2t11.5 28z" />
    <glyph glyph-name="percent" unicode="%" horiz-adv-x="721" 
d="M665 168q0 -75 -38 -124q-41 -52 -114 -52q-69 0 -108 45q-37 42 -37 113q0 59 31 126q38 79 89 79q16 0 53 -15l5 -12l3 1q54 1 88 -55q28 -48 28 -106zM561 622q0 -14 -12 -24t-34 -32q-56 -68 -143.5 -248.5t-110.5 -271.5q12 -10 12 -22q0 -13 -10.5 -22.5
t-24.5 -9.5q-19 0 -46 26q-1 30 -1 39q0 52 70 206l99 210l-65 -20q-33 -135 -134 -135q-136 0 -136 155q0 79 31 133q38 66 111 66q56 0 95 -49q35 -44 39 -103q36 13 84 45q55 38 65.5 64.5t15.5 32.5q10 13 31 13q24 0 44 -15t20 -38zM226 518q-1 22 -16 49
q-16 32 -35 32t-19 -29q0 -24 24 -38q20 -13 46 -14zM584 168q0 46 -15 67q-9 14 -33 24.5t-33 20.5q-21 -18 -37.5 -58t-16.5 -69q0 -35 14 -61q17 -33 49 -33q34 0 55 39q17 33 17 70zM214 449q-69 7 -106 53q-2 -9 -2 -16q0 -101 52 -101q41 0 54 61z" />
    <glyph glyph-name="ampersand" unicode="&#x26;" horiz-adv-x="697" 
d="M642 34q0 -25 -30.5 -46t-56.5 -21q-39 0 -73 19l-67 37q-119 -47 -209 -47q-75 0 -124 31q-57 37 -57 109q0 43 42 97q14 19 74 81q-62 116 -62 185q0 88 54 142.5t142 54.5q64 0 105 -34q43 -37 43 -100q0 -64 -60 -142q-32 -41 -110 -117q14 -22 83 -89q72 -71 86 -71
q9 0 50.5 28t41.5 33q0 25 -65 25q-22 0 -49 -14q-35 14 -35 39q0 47 62 47q54 0 114 -15q83 -19 83 -55q0 -66 -126 -143q36 -27 65 -27q8 0 24.5 6t25.5 6q29 0 29 -19zM338 553q0 23 -15.5 37.5t-39.5 14.5q-46 0 -81 -38.5t-35 -84.5q0 -34 11 -69q12 -43 33 -60
q44 33 83 90q44 64 44 110zM336 79q-75 62 -146 144q-37 -40 -48 -56q-24 -35 -24 -68q0 -49 81 -49q25 0 70 9.5t67 19.5z" />
    <glyph glyph-name="quotesingle" unicode="'" horiz-adv-x="145" 
d="M114 655q0 -1 -10 -24t-10 -43q0 -14 -3.5 -41t-3.5 -41v-25q-3 -7 -19 -7q-31 0 -43 21v5q0 42 8 100q11 78 31 84q6 2 7 2q14 0 28.5 -9t14.5 -22z" />
    <glyph glyph-name="parenleft" unicode="(" horiz-adv-x="230" 
d="M195 668q0 -8 -10.5 -15.5t-18.5 -7.5q-2 0 -8 -8.5t-9 -10.5q-31 -49 -31 -208q0 -250 31 -338q1 -4 20 -45q15 -34 15 -40q0 -22 -17 -34t-39 -12q-33 0 -59 86q-44 142 -44 310q0 91 27 220q35 172 88 172q25 0 40 -21.5t15 -47.5z" />
    <glyph glyph-name="parenright" unicode=")" horiz-adv-x="237" 
d="M202 329q0 -164 -53 -297q-25 -62 -56 -62q-18 0 -37.5 14t-19.5 31q0 11 9.5 19.5t26.5 26.5q41 59 41 204q0 104 -10 199q-16 139 -48 172q0 1 -18 14q-12 9 -12 16q0 25 16 42t40 17q14 0 27 -4q48 -52 74 -186q20 -104 20 -206z" />
    <glyph glyph-name="asterisk" unicode="*" horiz-adv-x="279" 
d="M307 582l-79 -48l47 -32q10 -7 16.5 -14.5t6.5 -17.5q0 4 -1.5 -2t-2.5 -9q-1 -5 -1.5 -8t-0.5 -5q-4 -4 -14 -4q-39 0 -73 30l-2 -23q0 -15 30 -54v-10q-28 -14 -32 -14q-17 0 -37 32v-1l-17.5 31.5t-18.5 29.5l-48 -44q-26 -23 -44 -23q-5 0 -13 2.5t-17 6.5v20
q0 1 66 66q-7 8 -21 16t-36 10q-17 3 -28.5 6t-16.5 7q9 35 42 44q6 2 24 2.5t48 -0.5q-1 4 -3 8q-2 3 -4 7t-5 8t-5.5 9.5t-7.5 10.5q-17 22 -17 30q0 13 14 25.5t26 12.5q16 0 39 -48l36 -74l121 79q7 0 12.5 -6t9.5 -14.5t5.5 -19t1.5 -19.5v-3z" />
    <glyph glyph-name="plus" unicode="+" horiz-adv-x="596" 
d="M545 358q0 -64 -66 -64h-156v-118q0 -19 11 -60q-15 -22 -33 -22q-69 0 -69 62v138h-192q-15 26 -15 42q0 19 14 34.5t32 15.5t53 -4t53 -4h55v183q27 14 45 14q17 0 39.5 -13t22.5 -28q0 -17 -8 -49.5t-8 -49.5v-57h134q21 0 64 10q24 -13 24 -30z" />
    <glyph glyph-name="comma" unicode="," horiz-adv-x="176" 
d="M19 46q0 23 20.5 41t47.5 18q29 0 50 -26t21 -65q0 -42 -8 -69t-28 -52q-20 -26 -45 -44.5t-45 -18.5q-16 2 -23.5 12.5t3.5 24.5q20 11 37.5 27t25.5 41q5 14 3.5 30.5t-18.5 27.5t-29 22t-12 31z" />
    <glyph glyph-name="hyphen" unicode="-" horiz-adv-x="333" 
d="M294 280q-6 -2 -6 -7q0 -3 2.5 -8t2.5 -8q0 -11 -34 -11q-7 0 -19 2.5t-19 2.5q-17 0 -51.5 -1t-52.5 -1q-92 0 -92 34q0 29 26 29q8 0 23.5 -4t23.5 -4q21 0 63.5 2t63.5 2q62 0 69 -28z" />
    <glyph glyph-name="hyphen" unicode="&#x2010;" horiz-adv-x="333" 
d="M294 280q-6 -2 -6 -7q0 -3 2.5 -8t2.5 -8q0 -11 -34 -11q-7 0 -19 2.5t-19 2.5q-17 0 -51.5 -1t-52.5 -1q-92 0 -92 34q0 29 26 29q8 0 23.5 -4t23.5 -4q21 0 63.5 2t63.5 2q62 0 69 -28z" />
    <glyph glyph-name="period" unicode="." horiz-adv-x="191" 
d="M170 40q0 -17 -30 -33.5t-50 -16.5q-22 0 -47 17t-25 40q0 20 20.5 35.5t42.5 15.5q27 0 56 -16q33 -19 33 -42z" />
    <glyph glyph-name="slash" unicode="/" horiz-adv-x="498" 
d="M452 692q-14 -23 -38 -70l-206 -455q-48 -106 -57 -122q-47 -85 -87 -85q-15 0 -27 9.5t-12 24.5q0 13 9 25l18 23q61 88 121 231l96 242l29 65q16 39 22 67q1 10 8.5 29t29.5 31.5t44 12.5t50 -28z" />
    <glyph glyph-name="zero" unicode="0" horiz-adv-x="632" 
d="M580 354q0 -138 -72 -244q-82 -121 -213 -121q-125 0 -200 92q-70 86 -70 213q0 112 62 220q69 120 170 147q36 10 82 10q108 0 179 -108q62 -95 62 -209zM491 359q0 96 -37 158q-44 77 -134 77q-29 0 -60 -18q-69 -40 -108 -123q-35 -76 -35 -162q0 -92 46 -150
q51 -63 141 -63q95 0 146 98q41 78 41 183z" />
    <glyph glyph-name="one" unicode="1" horiz-adv-x="250" 
d="M189 620q0 -11 -12 -67q-30 -141 -30 -220v-196q0 -78 8 -88q17 -25 17 -31q0 -14 -11.5 -24.5t-25.5 -10.5q-21 0 -57 17q-12 26 -12 46v414l-16 12v32q-1 42 21 103q27 73 60 73q19 0 38.5 -20.5t19.5 -39.5z" />
    <glyph glyph-name="two" unicode="2" horiz-adv-x="598" 
d="M547 63q0 -14 -10 -27.5t-24 -13.5q-12 0 -36.5 6t-37.5 6q-158 0 -315 -48q-31 -9 -40 -9q-24 0 -41.5 14.5t-17.5 38.5q0 25 25 51q9 10 45 38q102 81 182 179q104 130 104 223q0 37 -26.5 59.5t-63.5 22.5q-41 0 -89.5 -33t-60.5 -72q-7 -34 -13 -68q-12 -44 -42 -44
q-15 0 -36.5 17t-21.5 31q0 59 55 126q50 62 108 90q51 24 108 24q70 0 124.5 -50t54.5 -120q0 -105 -106 -225q-36 -41 -189 -178q-15 -13 -26 -25l328 49q5 1 11 1q23 0 37 -19.5t14 -43.5z" />
    <glyph glyph-name="three" unicode="3" horiz-adv-x="658" 
d="M595 232q0 -66 -42 -118q-96 -121 -264 -121q-75 0 -137 16q-40 10 -80 42q-47 37 -47 73q0 17 15.5 30.5t32.5 13.5q29 0 43 -27q19 -40 32 -51q33 -27 110 -27q66 0 122 24q62 28 93 79q22 37 22 60q0 48 -58 81q-49 29 -100 29q-14 0 -74 -22.5t-95 -22.5q-19 0 -35 8
q-20 9 -20 26q0 21 22 44t79 26q70 4 86 11q30 12 75 62q41 47 41 90q0 55 -57 55q-32 0 -91 -25t-75 -48v-3q0 -1 5 -14q-11 -23 -42 -48q-34 -26 -57 -26q-17 0 -34.5 12.5t-17.5 28.5q0 22 27 57q44 57 129.5 101.5t155.5 44.5q63 0 105 -33q46 -35 46 -97q0 -42 -27 -91
q-25 -44 -61 -74q173 -39 173 -166z" />
    <glyph glyph-name="four" unicode="4" horiz-adv-x="702" 
d="M662 179q0 -21 -22 -21q10 0 -44 6q-48 5 -108 9l2 -70q3 -42 17 -68q9 -17 9 -23q0 -12 -15 -35q-17 -9 -33 -9t-29 9q-38 0 -38 91q0 13 1.5 39.5t1.5 39.5q0 4 1.5 11t1.5 10q-41 -1 -126.5 -12.5t-130.5 -11.5q-34 0 -77 26q-48 29 -48 60q0 36 62 94l93 77
q74 60 214 187l46 54q27 29 61 29q23 0 41.5 -16t18.5 -38q0 -15 -8 -35l-11 -34q-4 -16 -28 -165q-17 -104 -17 -132q15 4 48 4q87 0 116 -39zM433 509q-70 -47 -169 -130q-130 -109 -130 -141q0 -9 14 -9l6 1l254 20z" />
    <glyph glyph-name="five" unicode="5" horiz-adv-x="616" 
d="M554 233q0 -109 -92 -184q-87 -69 -199 -69q-47 0 -84.5 7t-90.5 36q-63 34 -63 61q0 41 52 41q30 0 81.5 -37t88.5 -37q84 0 143 42q67 48 67 128q0 54 -41 86q-38 28 -93 28q-34 0 -76 -10q-49 -11 -69 -29q-30 -26 -46 -26q-18 0 -54 20q1 11 7 32.5t6 33.5v50
q-1 33 -1 49q0 130 35 204q17 9 34 9q27 0 42 -18q4 0 54 6q94 13 148 13q29 0 52 -12q30 -14 30 -40q0 -18 -22 -55h-21q-9 0 -21 4q-16 6 -19 7q-16 4 -45 4q-31 0 -86 -5q-70 -5 -78 -12q-15 -14 -15 -134q0 -25 1 -42q78 34 158 34q91 0 151 -46q66 -50 66 -139z" />
    <glyph glyph-name="six" unicode="6" horiz-adv-x="612" 
d="M551 230q0 -111 -80.5 -185t-193.5 -74q-116 0 -186 78q-66 75 -66 193q0 110 62 218q58 103 152 170q75 54 112 54q21 0 44.5 -18.5t23.5 -39.5q0 -16 -10.5 -29.5t-25.5 -13.5q-17 0 -28 15q-49 -7 -125 -86q-77 -82 -75 -130v-7q89 76 166 76q102 0 166 -60t64 -161z
M461 242q0 63 -37 99t-100 36q-54 0 -107 -36t-77 -86q-5 -15 -17 -46q8 -72 43 -115q40 -50 108 -50q80 0 134 60q53 57 53 138z" />
    <glyph glyph-name="seven" unicode="7" horiz-adv-x="538" 
d="M505 618q0 -18 -9 -30q-1 -2 -20 -23q-136 -145 -241 -412q-24 -62 -24 -102q0 -11 17 -64q-9 -26 -31 -26q-31 0 -51 28q-19 25 -19 57q0 16 9 51q29 115 101 251q3 4 137 234q0 7 -0.5 14t-11.5 7q-42 0 -132 -13q-103 -15 -113 -30q-5 -7 -8 -45q-3 -32 -29 -54
q-10 -3 -20 -3q-19 0 -34.5 12t-15.5 31q0 11 6 27q8 22 9 26l11.5 62.5t24.5 62.5q33 -1 48 -25q21 1 53 12q40 14 52 17q49 10 109 10q51 0 107 -16q75 -22 75 -59z" />
    <glyph glyph-name="eight" unicode="8" horiz-adv-x="609" 
d="M557 180q0 -73 -50.5 -124.5t-124.5 -65.5q-38 -7 -88 -7q-105 0 -178 40q-91 50 -91 146q0 106 118 178q-86 59 -86 136q0 88 76 144q68 51 160 51q57 0 110 -27.5t86 -74.5q11 6 14 6q19 0 30.5 -14.5t11.5 -34.5q0 -51 -62 -99q-32 -25 -107 -62q181 -59 181 -192z
M433 493q-39 63 -53 77q-32 31 -87 31q-57 0 -100 -28q-49 -33 -49 -87q0 -31 43 -58q39 -25 71 -25q20 0 89 37q63 34 86 53zM464 168q0 58 -75 97q-36 18 -127 43q-5 2 -17 4q-75 -46 -87 -56q-46 -38 -46 -87q0 -60 66 -90q49 -22 118 -22q64 0 110 23q58 30 58 88z" />
    <glyph glyph-name="nine" unicode="9" horiz-adv-x="553" 
d="M494 421q0 -130 -67 -249q-31 -53 -83 -109q-67 -71 -109 -71q-21 0 -51 18q-34 20 -34 40q0 15 11.5 26t26.5 11q16 0 32 -14q33 1 85 75q37 53 61 106q-73 -43 -135 -43q-94 0 -150 57t-56 150q0 115 63 189q66 79 179 79q106 0 169 -81q58 -75 58 -184zM403 417
q0 72 -31 128q-37 69 -103 69q-68 0 -114 -71q-41 -62 -41 -134q0 -54 32.5 -90t85.5 -36q28 0 91 38t74 63q6 14 6 33z" />
    <glyph glyph-name="colon" unicode=":" horiz-adv-x="201" 
d="M158 43q0 -20 -17.5 -37t-37.5 -17q-24 0 -51 20t-27 43q0 19 18 36.5t37 17.5q28 0 53 -17.5t25 -45.5zM165 363q0 -26 -24 -41.5t-52 -15.5q-59 0 -59 57q0 51 58 51q27 0 50 -12q27 -14 27 -39z" />
    <glyph glyph-name="semicolon" unicode=";" horiz-adv-x="211" 
d="M173 363q0 -26 -24 -41.5t-52 -15.5q-59 0 -59 57q0 51 58 51q27 0 50 -12q27 -14 27 -39zM39 46q0 23 20.5 41t47.5 18q29 0 50 -26t21 -65q0 -42 -8 -69t-28 -52q-20 -26 -45 -44.5t-45 -18.5q-16 2 -23.5 12.5t3.5 24.5q20 11 37.5 27t25.5 41q5 14 3.5 30.5
t-18.5 27.5t-29 22t-12 31z" />
    <glyph glyph-name="less" unicode="&#x3c;" horiz-adv-x="427" 
d="M384 202q0 -14 -20 -28.5t-35 -14.5q-10 0 -143 71t-147 83.5t-14 24.5q0 19 21 31l266 156q61 -18 61 -56q0 -20 -213 -126l211 -107q13 -24 13 -34z" />
    <glyph glyph-name="equal" unicode="=" horiz-adv-x="463" 
d="M418 365q0 -7 -2 -17q-2 -13 -2 -17q-26 -6 -33 -6q-6 0 -29 9q-19 8 -142 8q-56 0 -111 -17l-11 -3q-13 -4 -18 -4q-15 0 -30 16t-15 31v37q307 13 311 13q26 0 52 -12q30 -15 30 -38zM418 191q-304 -13 -314 -13q-79 0 -79 42q0 -4 5 34q26 6 32 6q9 0 27 -2t27 -2
q21 0 64 3t65 3q11 0 32.5 -1.5t31.5 -1.5q12 0 35.5 6.5t35.5 6.5q11 0 24.5 -16t13.5 -28v-37z" />
    <glyph glyph-name="greater" unicode="&#x3e;" horiz-adv-x="427" 
d="M384 344q0 -18 -21 -30l-147 -88q-125 -73 -137 -73q-18 0 -31.5 16t-13.5 34q0 6 1 10q10 25 214 126l-211 107q-13 25 -13 34q0 14 20 28.5t35 14.5q10 0 142 -70.5t147 -83t15 -25.5z" />
    <glyph glyph-name="question" unicode="?" horiz-adv-x="581" 
d="M531 496q0 -66 -78 -125q-24 -19 -144 -86q-78 -44 -78 -73q0 -8 11 -27t10 -36v-7q-12 -3 -25 -3q-31 0 -62 24q-34 26 -34 56q0 52 77 100l141 79q76 48 76 98q0 38 -31 61q-28 20 -68 20q-37 0 -99.5 -30t-90.5 -60q38 -9 38 -33q0 -19 -21.5 -35t-41.5 -16
q-26 0 -56 25t-30 50q0 40 68 96q58 48 106 65q70 26 110 26q69 0 142 -49q80 -55 80 -120zM269 43q0 -15 -28 -30q-24 -14 -42 -14q-19 0 -41 15t-22 34q0 18 18 31.5t37 13.5q23 0 50.5 -15t27.5 -35z" />
    <glyph glyph-name="at" unicode="@" horiz-adv-x="881" 
d="M500 247q5 17 18.5 23.5t45.5 6.5q8 0 13.5 -3t7.5 -7q3 -4 3 -10q-6 -9 -10 -19.5t-10 -32.5q-3 -11 -4 -29.5t4.5 -36t18.5 -30.5t39 -13q19 0 35 23.5t27.5 58.5t17.5 77t6 80q0 49 -20 93.5t-54.5 78t-80 53.5t-95.5 20q-30 0 -63 -7.5t-66 -25t-62.5 -46t-52.5 -71
t-36.5 -99.5t-13.5 -131q0 -95 24.5 -151t61.5 -85t80 -37.5t80 -8.5q45 0 82.5 6.5t67.5 16.5t53 22t39 23q4 3 8.5 7.5t9 7t9 1.5t8.5 -8q7 -14 10.5 -29t2 -29t-8 -26t-19.5 -18q-41 -20 -70.5 -32t-54 -18t-49 -8t-54.5 -2q-68 0 -137.5 23.5t-125.5 72.5t-91.5 124.5
t-35.5 180.5q0 109 37 190t92.5 134t119 79t117.5 26q74 0 145 -28.5t127 -76t90 -109t34 -127.5q0 -76 -20 -128.5t-51 -85.5t-69 -48t-74 -15q-29 0 -52 9.5t-38.5 24.5t-23.5 35t-8 41q0 24 3.5 42t12.5 51zM582 362q5 -9 7.5 -21t3 -23.5t0 -22t-0.5 -17.5q0 -4 -1 -10
t-4 -12t-9 -10t-16 -4q-23 0 -40.5 10.5t-15.5 30.5q12 101 -45 101q-28 0 -56 -25t-39 -86q-14 -74 -3 -118.5t51 -44.5q16 0 31 14t26.5 32.5t19.5 37t10 26.5l48 -7q-1 -8 -14 -35.5t-34 -57t-48.5 -53t-56.5 -23.5q-40 0 -65 18t-38.5 47t-16.5 66.5t2 76.5
q6 49 22.5 87t39 64t49 39.5t52.5 13.5q19 0 41.5 -11t42.5 -26t35.5 -31t21.5 -26z" />
    <glyph glyph-name="A" unicode="A" 
d="M553 177q0 -48 -43 -49q5 -23 22 -62q-1 -22 -18 -36t-40 -14q-18 0 -42 11q-13 26 -13 62q0 9 1 26t1 25q0 -7 -33 -7q-56 0 -133 -5q-110 -6 -119.5 -17t-12.5 -107q-13 -19 -33 -19q-21 0 -43 17.5t-22 37.5q0 7 18 56q20 71 65 213q134 367 223 367q87 0 134 -194
q21 -87 39 -267q26 -6 33 -10q16 -9 16 -28zM413 215q-44 349 -79 349q-28 0 -98 -164q-50 -118 -79 -205q32 7 95 17q57 7 161 3z" />
    <glyph glyph-name="B" unicode="B" horiz-adv-x="569" 
d="M520 186q0 -33 -16 -61q-72 -123 -248 -123q-46 0 -106 13q-11 -31 -37 -31q-48 0 -48 40v7v7q0 9 -3 11q-13 6 -25 13t-12 25q0 31 30 35v2q0 19 1 59q1 37 1 60v7q-21 13 -21 30q0 19 19 33v306q0 16 17.5 32.5t33.5 16.5q22 0 30 -6l20 -22l-8 -45q69 93 175 93
q84 0 132 -61q44 -55 44 -141q0 -49 -21 -99q-21 -53 -56 -84q98 -31 98 -117zM408 490q0 123 -89 123q-64 0 -119 -85q-51 -77 -51 -144v-64h54q105 0 150 31q55 39 55 139zM429 192q0 39 -97 51q-40 4 -132 4q-33 0 -54 -2q-1 -26 -1 -48v-62q0 -21 1 -36q49 -20 108 -20
q54 0 110 30q65 34 65 83z" />
    <glyph glyph-name="C" unicode="C" horiz-adv-x="562" 
d="M513 164q0 -19 -10 -46q-25 -66 -94 -104q-63 -34 -138 -34q-123 0 -189 93q-57 81 -57 209q0 106 33 199q37 106 109 166q57 47 116 47q85 0 129 -74q36 -60 36 -151q0 -41 -21 -103q-25 -76 -56 -76q-35 0 -53 44q10 7 28 23q20 22 20 86q0 62 -13 105q-20 65 -66 65
q-32 0 -70 -41q-29 -31 -49 -69q-49 -96 -49 -239q0 -208 156 -208q67 0 106 38q16 17 47 71q21 39 45 39q16 0 28 -12.5t12 -27.5z" />
    <glyph glyph-name="D" unicode="D" horiz-adv-x="556" 
d="M507 415q0 -157 -72 -283q-86 -150 -231 -150q-52 0 -90 21q-21 -19 -41 -19q-12 0 -28 13q-20 56 -20 149q0 80 4.5 240t4.5 240q0 2 -1 7t-1 8q0 18 13 29t31 11q25 0 44.5 -18t14.5 -42q51 75 145 75q114 0 175 -86q52 -76 52 -195zM408 419q0 204 -120 204
q-49 0 -97 -50q-42 -44 -57.5 -95.5t-15.5 -113.5v-215q0 -94 79 -94q71 0 129 73q48 62 66 141q16 71 16 150z" />
    <glyph glyph-name="E" unicode="E" horiz-adv-x="538" 
d="M489 75q0 -17 -7 -30q-9 -17 -24 -17q-4 0 -11.5 1.5t-11.5 1.5q-43 0 -124.5 -26t-124.5 -26q-161 0 -161 244q0 192 10 304q1 15 1 16q0 7 -2 20.5t-2 19.5q0 46 50 54l154 29q101 19 151 19q29 0 51 -10q30 -14 30 -39q0 -37 -49 -37q-6 0 -18.5 1.5t-18.5 1.5
q-81 0 -221 -36q-8 -1 -15 -3t-10 -15q-11 -48 -11 -188q0 -21 19 -21q26 0 75 13t75 13q29 0 67 -18q10 -32 10 -39q0 -25 -15 -27t-32 -4q-8 5 -22 5q-35 0 -84 -9q-41 -9 -83 -17q-6 -1 -10.5 -2t-6.5 -12q-2 -18 -2 -29q0 -77 3 -92q10 -58 55 -58q38 0 111 23.5
t116 23.5q68 0 88 -35z" />
    <glyph glyph-name="F" unicode="F" horiz-adv-x="500" 
d="M468 626q0 -36 -48 -36q-6 0 -18.5 1.5t-18.5 1.5q-40 0 -102 -15q-81 -20 -101 -23l-14 -97q-8 -59 -8 -98q0 -32 16 -31l7 1q81 7 112 7q71 0 102 -44q0 -42 -31 -42q-6 0 -17.5 3t-17.5 3q-13 0 -37 1h-37q-53 0 -84 -6q-16 -4 -19 -9.5t-4.5 -25t-1.5 -38.5
q0 -117 8 -127q15 -22 15 -29q0 -14 -16.5 -27.5t-30.5 -13.5q-35 0 -46 21q-21 38 -21 147q0 60 11.5 179t11.5 179q0 44 -7 44q-2 0 -6.5 -1t-6.5 -1q-12 0 -22.5 16t-10.5 30q0 16 19 24q3 2 32 10q-1 9 -1 14q0 34 34 34q19 0 59 -31q158 27 219 27q29 0 52 -10
q29 -13 29 -38z" />
    <glyph glyph-name="G" unicode="G" horiz-adv-x="551" 
d="M502 202q0 -87 -76 -155t-164 -68q-127 0 -188 99q-49 81 -49 217q0 138 59 250q71 137 196 137q62 0 108 -29q51 -33 63 -90q10 -47 10 -45q0 -132 -60 -132q-18 0 -33 12t-15 30q0 10 10.5 29t10.5 30q0 57 -14 78q-18 29 -71 29q-54 0 -100 -67q-38 -56 -50 -117
q-12 -65 -12 -120q0 -94 15 -136q24 -68 97 -89q22 -6 36 -6q36 0 76 30q35 28 54 63q11 21 13 53l-4 3q-71 0 -110 -17q-12 -6 -24 -13q-16 -7 -25 -7q-25 0 -39 21t-14 47q0 22 23 36q15 8 94 19q72 9 101 9q82 0 82 -101z" />
    <glyph glyph-name="H" unicode="H" horiz-adv-x="632" 
d="M580 616q0 -9 -14 -20t-16 -16q-26 -49 -24 -193l1 -39q3 1 7 1q15 0 28.5 -17t13.5 -33q0 -12 -19 -17l-30 -6l2 -95q2 -61 13 -91q8 -25 8 -33q0 -20 -15 -36.5t-35 -16.5q-38 0 -50 40q-2 8 -9 70q-2 22 -2 53v41q-1 41 -5 67q-58 -2 -138 -17l-137 -26q4 -13 4 -108
q0 -76 23 -100q3 -5 3 -10q0 -26 -40 -26q-37 0 -58 23q-13 14 -25 208q-19 4 -30 23t-11 40q0 12 13 16.5l25 8.5q1 13 4 47q3 29 3 46q0 176 19 224q16 39 55 39q24 0 45 -15.5t21 -38.5q0 -12 -8 -30q-11 -24 -12 -28q-27 -84 -27 -200v-23q9 1 47 8q118 24 222 24
q3 147 8 190q17 144 69 144q31 0 51 -23.5t20 -54.5z" />
    <glyph glyph-name="I" unicode="I" horiz-adv-x="203" 
d="M169 623q0 -5 -9 -22q-4 -8 -8 -45q-21 -224 -21 -393q0 -44 8 -71q7 -23 29 -63q1 -2 1 -6q0 -21 -49 -21h-9q-51 1 -62 82q-14 99 -14 273q0 41 1.5 123.5t1.5 124.5q0 23 24 44t47 21q18 0 39 -15t21 -32z" />
    <glyph glyph-name="J" unicode="J" horiz-adv-x="547" 
d="M499 619q0 -35 -40 -35q-9 0 -25.5 2t-25.5 2q-13 0 -13 -10q0 -14 1.5 -43t1.5 -44q0 -503 -190 -503q-76 0 -139 80q-59 75 -59 153q0 26 12 58q15 39 36 39q33 0 50 -31q15 -25 15 -60q0 -11 -1 -32.5t-1 -31.5q0 -28 26.5 -58t54.5 -30q102 0 102 273q0 48 -8 204
q-12 -3 -63 -29q-46 -24 -56 -24q-20 0 -33 17t-13 37q0 33 69 56l99 30q10 38 45 38q10 0 38 -17q8 1 24.5 5t25.5 4q23 0 45 -14t22 -36z" />
    <glyph glyph-name="K" unicode="K" horiz-adv-x="601" 
d="M575 80q0 -27 -33 -43q-27 -12 -57 -12q-139 0 -280 260q-84 -97 -84 -132q0 -92 23 -131l3 -28q-22 -25 -44 -25q-33 0 -55.5 52.5t-22.5 370.5q0 182 13 253q8 42 46 42q24 0 54 -19t30 -41q0 -15 -9 -20l-16 -9q-7 -8 -16 -139q-6 -102 -8 -156q269 369 338 369
q11 0 25 -6q11 -14 21 -29q13 -18 13 -32q0 -13 -9.5 -22.5t-22.5 -9.5q-8 0 -21 6l-3 3q-24 -3 -97.5 -91t-73.5 -115q0 -58 67 -166q70 -115 123 -115q7 0 26.5 8.5t32.5 8.5q37 0 37 -32z" />
    <glyph glyph-name="L" unicode="L" horiz-adv-x="459" 
d="M414 26q-108 -39 -228 -39q-94 0 -132 66q-29 51 -29 152q0 59 9.5 175t9.5 175q0 11 -2 35t-2 36t2 27q20 24 49 24q28 0 43 -36q12 -28 12 -60q0 -68 -13 -202t-13 -201q0 -118 67 -118q30 0 86 20.5t86 20.5q28 0 43 -25q12 -20 12 -50z" />
    <glyph glyph-name="M" unicode="M" horiz-adv-x="699" 
d="M644 647q0 -14 -9 -23q-15 -17 -16 -18q-6 -10 -12 -52q-25 -204 -25 -403q0 -112 40 -126v-27q-12 -25 -37 -25q-51 0 -77 89q-19 63 -19 132q0 151 8 252l-61 -235q-56 -182 -108 -182q-59 0 -104 107q-42 97 -103 326q-6 -68 -6 -139q0 -147 8 -213q1 -12 11.5 -38.5
t10.5 -41.5q0 -33 -55 -33q-65 0 -65 175q0 71 8 212t8 211q0 8 -8 17t-8 17q0 56 100 56q23 0 55 -29q3 -31 10 -94q10 -88 47 -233q49 -187 85 -187q8 0 21 31q25 60 49 169l36 174q8 41 29 118q21 57 88 57q24 0 58 -11q41 -14 41 -33z" />
    <glyph glyph-name="N" unicode="N" horiz-adv-x="555" 
d="M506 655q0 -11 -9 -28q-11 -22 -13 -27q-29 -91 -29 -149l-3 -287q-1 -44 -20 -90q-25 -58 -62 -58q-55 0 -109 92q-39 68 -79 188l-47 156q-21 -170 -21 -228q0 -128 15.5 -147t15.5 -28q0 -19 -20 -33.5t-40 -14.5q-28 0 -46 59q-14 46 -14 84q0 17 1 50.5t1 50.5
q0 41 10 122t10 122v122q0 2 -1.5 6t-1.5 6q0 20 27 33q22 11 44 11q51 0 73 -33q6 -11 11 -46l6 -49q12 -71 63 -228q61 -185 91 -185q11 0 11 28q0 8 -2.5 26t-2.5 28l10 271q3 61 21 120q26 83 70 83q14 0 39 -18q1 -5 1 -9z" />
    <glyph glyph-name="O" unicode="O" horiz-adv-x="629" 
d="M577 339q0 -144 -71 -244q-79 -113 -217 -113q-39 0 -84 15q-100 32 -143 111q-37 68 -37 182q0 148 71 261q82 133 222 133q123 0 196 -115q63 -99 63 -230zM481 348q0 208 -134 249q-14 4 -32 4q-56 0 -112 -50q-89 -81 -89 -289q0 -19 8 -53q17 -77 51 -111
q39 -40 114 -40q102 0 154 99q40 78 40 191z" />
    <glyph glyph-name="P" unicode="P" horiz-adv-x="556" 
d="M507 414q0 -22 -3 -39q-39 -231 -219 -231q-92 0 -165 47v-21q-1 -67 12 -92q19 -35 19 -40q0 -20 -15.5 -35t-35.5 -15q-45 0 -61 32q-9 19 -12 71q-2 34 -2 78q0 17 4.5 51t4.5 52v68q-1 30 4 88.5t5 86.5v90q0 2 -10 54q26 24 49 24q27 0 43 -19.5t16 -47.5
q0 -7 -1 -14q66 87 167 87q95 0 150 -71q49 -64 49 -162v-21q1 -14 1 -21zM417 430q0 69 -21 118q-29 66 -89 66q-77 0 -132 -94q-49 -82 -49 -165q0 -139 140 -139q75 0 110 65q20 36 38 131q3 19 3 18z" />
    <glyph glyph-name="Q" unicode="Q" horiz-adv-x="628" 
d="M576 343q0 -192 -109 -292q63 -86 83 -142q-9 -42 -44 -42q-25 0 -64 72t-47 72q-4 0 -26 -8t-25 -8q-18 -5 -51 -5q-136 0 -205 89q-63 81 -63 220q0 149 68 259q80 129 220 129q123 0 198 -114q65 -100 65 -230zM484 344q0 95 -34 164q-44 89 -130 89q-74 0 -135 -76
q-54 -68 -66 -146q-5 -38 -5 -86q0 -99 39 -159q47 -70 141 -70q18 0 41 6l-61 38q-42 27 -42 49q0 20 19 33q16 11 37 11q31 0 126 -82q70 77 70 229z" />
    <glyph glyph-name="R" unicode="R" horiz-adv-x="637" 
d="M585 17v-5q-15 -22 -37 -22q-17 0 -29 15q-9 36 -132.5 117t-163.5 81h-18q-14 -1 -19 -1v-39q0 -20 5 -53q5 -40 11 -49q18 -24 18 -30q0 -18 -14 -29.5t-32 -11.5q-38 0 -59 27q-20 24 -20 198q-21 0 -44 13q-26 16 -26 34q0 37 67 53q4 31 7 85q2 61 5 85q6 32 15 96
h-8q-40 -1 -40 35q0 31 24 39l34 10q20 18 31.5 23.5t36.5 5.5q18 0 18 -16q0 -5 25 -5q117 0 199 -47q101 -57 101 -165q0 -83 -52 -137q-35 -37 -124 -83l141 -90q81 -61 80 -134zM448 465q0 64 -65 97q-52 27 -122 27q-9 0 -43 -3q1 -36 -19 -124q-11 -53 -15 -155
q58 -20 72 -20q12 0 35 7q66 20 108 61q49 47 49 110z" />
    <glyph glyph-name="S" unicode="S" horiz-adv-x="506" 
d="M474 98q0 -61 -71 -94q-56 -27 -125 -27q-63 0 -148 28q-105 36 -105 84q0 18 13 31t31 13q27 0 50 -22q39 -33 42 -36q35 -20 126 -20q81 0 81 37q0 31 -76 86l-106 68q-68 46 -99 87q-41 54 -41 124q0 88 54 157q58 76 144 76q74 0 125 -40.5t65 -113.5q3 -28 12 -83
q4 -16 4 -24q0 -36 -12 -61q-15 -34 -47 -34q-18 0 -34.5 16.5t-16.5 34.5q0 13 6 38.5t6 38.5q0 135 -90 135q-50 0 -84 -42.5t-34 -93.5q0 -72 86 -140l159 -106q85 -61 85 -117z" />
    <glyph glyph-name="T" unicode="T" horiz-adv-x="523" 
d="M491 608q0 -17 -10.5 -29.5t-26.5 -12.5q-9 0 -33.5 8.5t-40.5 8.5h-69q-15 0 -16.5 -2.5t-3.5 -19.5l-12 -75q-19 -136 -19 -307q0 -116 27 -159v-27q-19 -10 -30 -10q-64 0 -83 62q-9 30 -9 115q0 99 4 154q1 24 11 115q8 71 8 115l-1 29q-14 -1 -54 -7q-33 -5 -54 -5
q-69 0 -69 41q0 17 10 20q15 22 157 38q110 12 178 12q48 0 84 -12q52 -17 52 -52z" />
    <glyph glyph-name="U" unicode="U" horiz-adv-x="502" 
d="M450 367q0 -83 -20 -176q-24 -115 -66 -159q-52 -55 -128 -55q-68 0 -119 41q-56 46 -77 125q-15 56 -15 150q0 46 6 138.5t6 138.5q0 8 -6 23.5t-6 23.5q0 25 40 41q31 13 61 13q34 0 34 -21q0 -11 -10 -32t-10 -33q0 -40 -10 -121t-10 -122v-124q0 -57 22 -101
q27 -56 79 -56q100 0 133 184q15 86 15 267q0 66 -20 107q-6 12 -6 19q0 18 13.5 35t31.5 17q19 0 40.5 -14t21.5 -32v-277z" />
    <glyph glyph-name="V" unicode="V" horiz-adv-x="547" 
d="M499 630q0 -82 -26 -220q-19 -97 -71 -238q-69 -184 -119 -184t-78 15q-61 33 -106 258l-51 304q-2 11 -9 31q-5 5 -9.5 11t-4.5 15q0 20 25 36q22 15 44 15q25 0 45 -18.5t20 -43.5q0 -18 -2.5 -55t-2.5 -55q0 -82 25 -197q46 -214 75 -214q19 0 37 31q47 79 85 240
q37 154 37 254q0 23 -14.5 34.5t-14.5 13.5q0 11 25 29t37 18q21 0 37 -28.5t16 -51.5z" />
    <glyph glyph-name="W" unicode="W" horiz-adv-x="679" 
d="M614 455q0 -114 -40 -258q-53 -189 -133 -189q-70 0 -102 89q-18 50 -27 148q-24 -113 -38 -151q-37 -103 -90 -103q-39 0 -71 33q-42 43 -63 270q-15 155 -15 299q0 77 66 77q59 0 59 -27q0 -12 -7.5 -25.5l-14.5 -26.5q-13 -26 -13 -109q0 -383 59 -383q21 0 51 149
q36 176 36 270q0 14 19 28.5t34 14.5q30 0 54.5 -21t27.5 -51q-20 -29 -20 -107q0 -281 53 -281q51 0 79 160q19 111 19 204q0 39 -4.5 58t-22.5 57q-16 32 -16 48q0 24 11 44q14 25 36 25q31 0 55 -106q18 -83 18 -136z" />
    <glyph glyph-name="X" unicode="X" horiz-adv-x="530" 
d="M563 58q0 -21 -18.5 -34t-40.5 -13q-78 0 -250 263l-24 -42l-87 -147l-37 -74q-16 -28 -46 -28q-75 0 -75 33q0 24 48 77q15 16 93.5 133.5t78.5 124.5q0 9 -88 129t-88 148q0 23 15.5 37t39.5 14q47 0 81 -48q23 -30 51.5 -102t42.5 -92q76 110 116 188q34 66 73 66
q20 0 33 -16t15 -37l-187 -285q38 -66 95 -149q81 -118 104 -118q6 0 16 1.5t15 1.5q24 0 24 -31z" />
    <glyph glyph-name="Y" unicode="Y" horiz-adv-x="535" 
d="M512 621q-11 -19 -38.5 -50.5t-37 -48.5t-120.5 -309q-94 -249 -125 -249q-27 0 -47 15q-23 16 -23 42q0 16 18 40t40 85l32 92q-60 48 -106 147q-80 169 -80 238q0 58 52 58q60 0 60 -69q0 -7 -2.5 -21.5t-2.5 -22.5q0 -42 39 -132q41 -95 74 -109q13 19 57 115
q48 106 75 152q45 75 75 75q22 0 39.5 -13.5t20.5 -34.5z" />
    <glyph glyph-name="Z" unicode="Z" horiz-adv-x="634" 
d="M596 605q0 -58 -123 -167l-228 -190q-123 -107 -123 -157q0 -20 46 -20t136.5 11t136.5 11q33 0 66 -16q39 -19 45 -48q-16 -29 -43 -29q-7 0 -21.5 5t-22.5 5h-6q-25 -2 -138 -12q-85 -8 -139 -8q-76 0 -108 14q-49 22 -49 89q0 74 124 188l232 188q124 103 124 153
q0 21 -37 21q-65 0 -145.5 -21.5t-137.5 -53.5l-52 -32q-40 -24 -51 -24q-45 0 -45 66q0 18 13 28q4 3 29 15q225 105 380 105q53 0 87 -27q19 -15 34.5 -43t15.5 -51z" />
    <glyph glyph-name="bracketleft" unicode="[" horiz-adv-x="266" 
d="M230 -53q0 -32 -16 -61q-104 -13 -102 -13q-3 0 -8 1h-7q-64 0 -64 161q0 94 2 282t2 282q0 9 -6 25t-6 24q0 18 21 31q18 11 36 11q4 0 11 -2t10 -2h103q15 0 15 -32q0 -34 -6.5 -38.5t-41.5 -4.5q-29 0 -35 -21q-16 -59 -16 -150v-215q0 -173 14 -250q4 -20 19 -20
q11 0 32.5 5t33.5 5q9 0 9 -18z" />
    <glyph glyph-name="backslash" unicode="\" horiz-adv-x="474" 
d="M428 18q0 -15 -11.5 -24.5t-26.5 -9.5q-41 0 -85 73q-19 32 -54 110l-187 425q-3 6 -22 33q-17 24 -17 32q0 13 18 23t33 10q21 0 43 -12.5t31 -30.5q4 -18 11 -53q5 -23 29 -79l94 -230q58 -133 117 -219l18 -23t9 -25z" />
    <glyph glyph-name="bracketright" unicode="]" horiz-adv-x="266" 
d="M230 648q0 -8 -6 -24t-6 -25q0 -94 2 -282t2 -282q0 -161 -64 -161h-8q-5 -1 -7 -1q1 0 -102 13q-16 29 -16 61q0 18 9 18q11 0 33 -5t33 -5q15 0 19 20q14 77 14 241v230q0 74 -4 98q-10 67 -47 67q-6 0 -17 -1h-16q-15 0 -15 44q0 32 15 32h102q4 0 11 2t10 2
q19 0 38.5 -12t19.5 -30z" />
    <glyph glyph-name="asciicircum" unicode="^" horiz-adv-x="353" 
d="M313 742q0 -6 -12.5 -18t-19.5 -12q-20 0 -48 18q-34 22 -46 26q-6 1 -18 5q-12 -4 -36 -15q-55 -34 -76 -34q-7 0 -19.5 12t-12.5 18l1 6q21 20 69 52q55 37 74 37q20 0 141 -83q3 -8 3 -12z" />
    <glyph glyph-name="underscore" unicode="_" horiz-adv-x="461" 
d="M469 -129h-474v35h474v-35z" />
    <glyph glyph-name="grave" unicode="`" horiz-adv-x="225" 
d="M206 720q0 -32 -35 -32q-34 0 -83 43q-7 5 -13.5 9t-12.5 6q-14 5 -24 9t-18 9l-6 16q1 9 7 19.5t14 19t17.5 14t18.5 5.5q14 0 33.5 -11t40.5 -30q15 -14 30 -29.5t27 -32.5q4 -10 4 -15z" />
    <glyph glyph-name="a" unicode="a" horiz-adv-x="428" 
d="M384 170q0 -129 -8 -182q-5 -31 -42 -31q-56 0 -50 56q-50 -24 -104 -24q-52 0 -99 26q-56 31 -56 79q0 47 64 88q58 37 109 37h85v24q1 105 -62 105q-79 0 -79 -74q0 -25 -28 -25q-17 0 -35.5 15.5t-18.5 32.5q0 56 40 92t96 36q188 0 188 -255zM283 134q0 20 -30 20
q-125 0 -125 -59q0 -32 55 -32q34 0 64 19q36 21 36 52z" />
    <glyph glyph-name="b" unicode="b" horiz-adv-x="410" 
d="M362 227q0 -90 -31 -153q-40 -81 -121 -81q-26 0 -82 19q1 -7 1 -13q0 -33 -37 -33q-27 0 -44 20q-8 9 -13 62q-5 44 -5 69v4l15 565q16 25 38 21q5 2 10 2q18 0 33.5 -21.5t15.5 -40.5q0 -43 -8 -115q-10 -83 -11 -114q29 35 75 35q55 0 99 -39.5t57 -95.5q8 -34 8 -91z
M269 234q0 136 -57 136q-48 0 -73 -69q-19 -52 -19 -111q0 -126 76 -126q73 0 73 170z" />
    <glyph glyph-name="c" unicode="c" horiz-adv-x="401" 
d="M369 113q0 -31 -47 -73q-42 -39 -75.5 -49t-63.5 -10q-79 0 -123.5 50t-44.5 129q0 77 41 172q49 114 114 114q36 0 87 -28q54 -31 63 -62q8 -27 8 -61q0 -31 -13 -70q-16 -50 -40 -50q-17 0 -32 10q-18 11 -18 27q0 1 9 23q5 10 5 55q0 37 -3 48q-6 31 -28 31
q-49 0 -76 -85q-20 -63 -20 -127q0 -107 68 -107q27 0 62 28q32 26 45 53q16 32 39 32q15 0 29 -17.5t14 -32.5z" />
    <glyph glyph-name="d" unicode="d" horiz-adv-x="404" 
d="M372 608q0 -22 -6 -57q-8 -47 -10 -56q-3 -31 -9.5 -183t-6.5 -168q0 -96 21 -144q-17 -28 -39 -28q-23 0 -41 17.5t-20 40.5q-47 -43 -96 -43q-73 0 -113 51q-37 46 -37 121q0 88 36 179q46 115 120 115q44 0 90 -39q5 47 5 240q0 18 27 18q32 0 55.5 -16t23.5 -48z
M256 269q0 34 -15 62q-19 34 -50 34q-45 0 -69 -89q-18 -64 -18 -126q0 -93 54 -93q56 0 81 83q17 56 17 129z" />
    <glyph glyph-name="e" unicode="e" horiz-adv-x="380" 
d="M348 88q0 -50 -68 -78q-53 -22 -111 -22q-154 0 -154 175q0 72 35 160q43 108 104 108q55 0 118.5 -49t63.5 -102q0 -66 -59 -105q-52 -35 -124 -35q-14 0 -45 17q4 -95 56 -95q44 0 86.5 25t54.5 25q43 0 43 -24zM239 277q0 25 -14.5 47.5t-38.5 22.5q-33 0 -51 -29
q-15 -25 -15 -59q0 -19 13 -31t33 -12q73 0 73 61z" />
    <glyph glyph-name="f" unicode="f" horiz-adv-x="320" 
d="M360 598q0 -17 -16.5 -28t-33.5 -11q-13 0 -28 12q-1 20 -8 25.5t-29 5.5q-43 0 -62 -108q-10 -62 -11 -143h12q9 1 13 1q42 0 60 -33l-9 -38q-19 -10 -66 -10q-8 0 -13 -1q-3 -33 -3 -72v-91q0 -53 16 -109q-39 -22 -57 -22q-24 0 -38 37q-12 29 -12 58q0 18 4 192
q-33 -3 -31 -3q-17 0 -30 11t-13 29q0 31 26 40q14 4 52 4q3 10 3 61q0 103 33 179q45 100 135 100q45 0 74 -20q32 -24 32 -66z" />
    <glyph glyph-name="g" unicode="g" horiz-adv-x="407" 
d="M370 297q-2 -25 -13 -88q-10 -55 -10 -88q0 -30 3 -90t3 -90q0 -62 -12 -92q-14 -38 -53 -61.5t-81 -23.5q-44 0 -109 24q-78 28 -78 62q0 44 41 44q19 0 26 -11q13 -20 17.5 -24t32.5 -9.5t39 -5.5q90 0 90 113q0 33 -3 56q-43 -37 -103 -37q-25 0 -56 14t-47 33
q-31 36 -31 107q0 85 39 187q48 125 117 125q42 0 80 -39l56 -73q8 -10 25 -18q21 -10 27 -15zM269 237q0 15 -14 25q-6 92 -64 92q-33 0 -55 -93q-16 -71 -16 -123q0 -98 51 -98q48 0 76 78q22 60 22 119z" />
    <glyph glyph-name="h" unicode="h" horiz-adv-x="373" 
d="M342 -16q-19 -19 -50 -19q-21 0 -43 26q1 88 1 136q0 222 -65 222q-67 0 -67 -179q0 -10 1 -29v-29q0 -15 5 -45.5t5 -45.5q0 -13 -15.5 -23.5t-28.5 -10.5q-25 0 -42.5 20.5t-17.5 45.5l6 578q0 3 -1 8t-1 7q0 36 40 36q19 0 44 -17.5t25 -35.5q0 -22 -9.5 -65t-9.5 -65
q0 -28 2 -89q22 13 37 13q39 0 85 -19q59 -25 82 -81q17 -42 17 -116v-223z" />
    <glyph glyph-name="i" unicode="i" horiz-adv-x="163" 
d="M141 525q0 -22 -15 -36t-37 -14q-26 0 -48.5 18t-22.5 44q0 22 15.5 36t38.5 14q27 0 48 -17.5t21 -44.5zM132 385q0 -18 -8 -51t-8 -51v-206q0 -19 11 -60q-15 -23 -33 -23q-63 0 -69 63q-10 117 -10 176q0 99 8 166q-1 5 -1 10q0 18 28 18q25 0 50 -10q32 -11 32 -32z
" />
    <glyph glyph-name="j" unicode="j" horiz-adv-x="216" 
d="M191 476q0 -22 -18.5 -36.5t-40.5 -14.5q-11 0 -33 18q-18 15 -28 27q-2 10 -2 21q0 48 50 48q28 0 50 -18t22 -45zM188 384q-22 -61 -22 -94q0 -64 3 -193.5t3 -194.5q0 -73 -38 -126q-42 -59 -112 -59q-37 0 -108 35q-78 37 -78 68q0 36 41 36q11 0 23 -5
q42 -50 101 -50q84 0 84 153q0 5 -7 426l16 19q34 9 47 9q23 0 47 -24z" />
    <glyph glyph-name="k" unicode="k" horiz-adv-x="419" 
d="M411 -31q-38 -28 -60 -28q-29 0 -84 60l-77 85q-22 26 -70 73l-3 -2v-88q0 -8 6.5 -23.5t6.5 -24.5q0 -14 -14.5 -24.5t-29.5 -10.5q-26 0 -43 17t-17 43v132q0 12 3.5 36.5t3.5 36.5v269q0 61 -9 98q-4 17 -4 26q0 19 23 34q20 14 40 14q15 0 32.5 -11.5t17.5 -25.5
q0 -4 -6 -28t-6 -74q0 -16 -3 -267q4 4 108 99q86 80 101 80q53 0 51 -65v-10q-43 -25 -111 -79q-86 -67 -86 -89q0 -2 54 -63l64 -72q60 -63 112 -86v-32z" />
    <glyph glyph-name="l" unicode="l" horiz-adv-x="161" 
d="M134 27q0 -18 -14.5 -30.5t-33.5 -12.5q-63 0 -63 165q0 75 1.5 225t1.5 225q0 12 -3 35t-3 34q33 22 52 22q22 0 42 -14.5t20 -36.5q0 -11 -5 -26q-7 -24 -8 -26q-13 -62 -13 -176v-186q3 -126 21 -176q5 -14 5 -22z" />
    <glyph glyph-name="m" unicode="m" horiz-adv-x="573" 
d="M524 2q-34 -21 -52 -21q-13 0 -40 14q0 16 1 55q1 35 1 55q0 266 -44 266q-33 0 -53 -81q-15 -59 -15 -109v-92q0 -7 4.5 -20.5t4.5 -20.5q0 -16 -17 -28.5t-33 -12.5q-17 0 -34 17t-17 33v186q0 113 -25 113q-4 0 -17 -19q-71 -96 -71 -206q0 -16 4 -46.5t4 -45.5
q0 -20 -12.5 -33t-32.5 -13q-23 0 -37 16q-5 7 -12 47q-6 37 -6 51v218q0 24 12 64q15 48 32 48q20 0 36 -15.5t14 -35.5q29 48 75 48q57 0 93 -76q19 45 34 62q25 29 62 29t75 -39q66 -67 66 -229v-179z" />
    <glyph glyph-name="n" unicode="n" horiz-adv-x="426" 
d="M382 7q-15 -23 -37 -23q-17 0 -56 20v12q0 22 1.5 65t1.5 63q0 214 -64 214q-18 0 -41 -28q-71 -86 -71 -207q0 -17 6.5 -50.5t6.5 -50.5q0 -14 -13 -23t-28 -9q-60 0 -60 76v209q0 8 2 23.5t2 23.5q0 12 -3.5 35t-3.5 34q0 16 18.5 30.5t33.5 14.5q22 0 45 -25l-3 -40
q37 59 91 59q35 0 74 -24t57 -54q41 -76 41 -200v-145z" />
    <glyph glyph-name="o" unicode="o" horiz-adv-x="415" 
d="M377 197q0 -90 -45 -154q-52 -73 -138 -73q-88 0 -133 60q-41 53 -41 144q0 90 45 170q52 95 135 95q26 0 65 -23q112 -67 112 -219zM289 199q0 153 -74 153q-53 0 -80 -65q-20 -49 -20 -111q0 -133 79 -133q51 0 76 55q19 42 19 101z" />
    <glyph glyph-name="p" unicode="p" horiz-adv-x="407" 
d="M365 238q0 -102 -36 -173q-45 -92 -136 -92q-49 0 -84 28v-30v-30q0 -96 22 -151q10 -22 10 -28q0 -34 -40 -34q-30 0 -45 11q-11 7 -22 50q-9 38 -9 58v241q0 33 4 90q4 64 5 89t0 66q-1 52 -1 67q0 85 56 85q14 0 26 -9.5t12 -22.5q0 -22 -5 -80q39 55 94 55
q74 0 114 -60q35 -52 35 -130zM276 247q0 108 -46 108q-20 0 -52 -39q-62 -75 -68 -207q11 -6 39 -42q22 -27 44 -27q83 0 83 207z" />
    <glyph glyph-name="q" unicode="q" horiz-adv-x="400" 
d="M363 300q0 -3 -19 -53q-24 -65 -24 -305q0 -141 42 -154v-40q-33 -16 -47 -16q-85 0 -83 258q-35 -17 -79 -17q-70 0 -104 56q-29 47 -29 122q0 85 36 172q45 109 117 109q41 0 76 -30l57 -60q6 1 8 1q49 0 49 -43zM250 247q0 17 -14 26q5 17 5 26q0 14 -19.5 34.5
t-33.5 20.5q-44 0 -66 -88q-14 -58 -14 -125q0 -102 52 -102q90 0 90 208z" />
    <glyph glyph-name="r" unicode="r" horiz-adv-x="320" 
d="M282 344q0 -7 -2 -22q-21 -30 -44 -30q-19 0 -34 22q-2 45 -32 45q-18 0 -44 -95q-12 -42 -12 -117q0 -71 7 -86q8 -19 8 -26q0 -17 -15.5 -27.5t-34.5 -10.5q-54 0 -54 50q0 5 2.5 14t2.5 13q0 51 -5 151.5t-5 150.5q0 45 54 45q32 0 44 -19q28 31 63 31q24 0 46 -13
q15 -8 35 -34.5t20 -41.5z" />
    <glyph glyph-name="s" unicode="s" horiz-adv-x="394" 
d="M362 101q0 -47 -40 -82q-44 -38 -118 -38q-32 -1 -69 13q-120 45 -120 73q0 44 63 44q9 0 19 -1q3 -30 48 -48q39 -16 75 -13q29 2 29 21q0 3 -1.5 9t-1.5 9.5t-38 15.5q-43 13 -48 15q-114 68 -114 164q0 58 33 107q37 54 92 54q41 0 93.5 -32t64.5 -69q8 -26 8 -43
q0 -18 -5 -30l-12 -30q-19 -13 -38 -13q-10 0 -33.5 12.5t-23.5 21.5q0 4 12 26q7 13 7 22q0 60 -47 60q-28 0 -43 -36q-11 -28 -11 -60q0 -40 57 -72l105 -47q57 -26 57 -53z" />
    <glyph glyph-name="t" unicode="t" horiz-adv-x="297" 
d="M269 358q0 -27 -83 -38q-2 -22 -2 -100v-66q0 -20 6.5 -59t6.5 -58q0 -16 -16 -28.5t-32 -12.5q-25 0 -42 43q-13 33 -13 64v212q-46 7 -53 9q-26 8 -26 23q0 4 2 9q26 37 58 37h6q4 -1 6 -1q21 0 20 49v73q-6 11 -6 19q0 13 15.5 23.5t29.5 10.5q21 0 40 -19.5t19 -41.5
q0 -24 -7.5 -47.5t-6.5 -48.5v-4q78 -8 78 -48z" />
    <glyph glyph-name="u" unicode="u" horiz-adv-x="367" 
d="M336 357q0 -31 -7.5 -93.5t-7.5 -94.5q0 -28 2.5 -83.5t2.5 -82.5q0 -23 -39 -23q-40 0 -51 39q-38 -25 -74 -25q-29 0 -66 15.5t-52 37.5q-29 42 -29 135q0 32 2 112q3 71 2 111q30 22 50 22q48 0 48 -47q0 -16 -4.5 -48t-4.5 -48v-141q0 -24 13 -50q16 -30 38 -30
q43 0 64 55q14 38 14 92v120q0 23 -12 57q25 23 48 23q24 0 43.5 -15t19.5 -38z" />
    <glyph glyph-name="v" unicode="v" horiz-adv-x="390" 
d="M358 383q0 -72 -46 -220q-54 -170 -105 -170q-73 0 -130 143q-35 89 -57 208q-5 29 -5 45t14.5 28.5t30.5 12.5q19 0 59 -29q-7 -23 -7 -39q0 -54 26.5 -141t57.5 -131v-3q36 0 56 136q14 93 14 170q0 15 15.5 26t30.5 11q46 0 46 -47z" />
    <glyph glyph-name="w" unicode="w" horiz-adv-x="554" 
d="M515 310q0 -90 -33 -186q-43 -126 -114 -126q-67 0 -111 83q-30 -88 -95 -88q-83 0 -121 114q-26 78 -26 183q0 66 5 107q14 22 37 22q20 0 40.5 -13t20.5 -31q0 -13 -6.5 -38.5t-6.5 -38.5q0 -220 47 -220q49 0 64 122q5 46 5 161q0 38 44 38q49 0 49 -55q0 -5 -1.5 -14
t-1.5 -13v-113q0 -126 46 -126q39 0 59 92q15 64 15 125q0 52 -5 61q-1 2 -11 12q-6 8 -6 15q0 18 16 32.5t34 14.5q27 0 43 -48q13 -37 13 -72z" />
    <glyph glyph-name="x" unicode="x" horiz-adv-x="466" 
d="M431 29q0 -15 -22 -27.5t-39 -12.5q-45 0 -93 55l-68 93q-45 -51 -123 -203q-71 15 -71 61q0 33 149 212q-3 14 -50 80q-42 60 -61 81q18 47 64 47q34 0 63 -52l40 -80q122 144 149 144q19 0 33 -14t14 -32q0 -17 -76 -88.5t-76 -82.5q0 -12 60 -82t69 -70q10 0 38 7v-36
z" />
    <glyph glyph-name="y" unicode="y" horiz-adv-x="409" 
d="M376 384q-9 -50 -17 -99q-10 -58 -10 -99v-272q0 -74 -42.5 -113t-116.5 -39q-48 0 -106 25q-69 29 -69 70q0 14 11.5 23.5t25.5 9.5q9 0 43 -27t78 -27q56 0 75 41q14 28 14 90q0 23 -1 38q-33 -22 -74 -22q-75 0 -116 54q-37 49 -37 125q0 8 10 252q30 13 48 13
q20 0 59 -24q-24 -60 -24 -240q0 -115 58 -115q43 0 66 72q17 52 17 108v122q0 -1 -3 33q41 20 61 20q21 0 50 -19z" />
    <glyph glyph-name="z" unicode="z" horiz-adv-x="384" 
d="M352 371q0 -22 -8 -36q-5 -9 -21 -25l-117 -118q-81 -86 -95 -125q9 -1 17 -1q23 0 69 8t69 8q64 0 86 -52l-17 -21h-27q-36 1 -104 -10.5t-101 -11.5t-58 16q-30 18 -30 49q0 37 46 98q28 36 95 107q64 66 80 89l-5 1q-50 0 -99.5 -30.5t-52.5 -30.5q-19 0 -32 14.5
t-13 33.5q0 34 103 65q87 25 135 25q80 0 80 -53z" />
    <glyph glyph-name="braceleft" unicode="{" horiz-adv-x="352" 
d="M334 693q0 -18 -25 -34q-100 -5 -100 -83q0 -18 2 -53.5t2 -52.5q0 -111 -66 -163q66 -53 66 -163q0 -18 -2 -53t-2 -53q0 -78 99 -83q16 -8 16 -25q0 -16 -16 -30h-38q-105 0 -135 67q-15 32 -19 144q-3 98 -37 136q-14 16 -57 36q-22 10 -22 24t22 24q12 5 36 16
q41 25 50 83q1 5 5 102q3 101 46 142t145 41q30 0 30 -22z" />
    <glyph glyph-name="bar" unicode="|" horiz-adv-x="171" 
d="M139 27q0 -18 -14.5 -30.5t-33.5 -12.5q-63 0 -63 165q0 75 1.5 225t1.5 225q0 12 -3 35t-3 34q33 22 52 22q22 0 42 -14.5t20 -36.5q0 -11 -5 -26q-7 -24 -8 -26q-13 -62 -13 -176v-186q3 -126 21 -176q5 -14 5 -22z" />
    <glyph glyph-name="braceright" unicode="}" horiz-adv-x="352" 
d="M331 314q0 -14 -19 -30q-65 -20 -82 -77q-7 -25 -8 -61q-1 -32 -1 -63q-4 -101 -46.5 -142t-144.5 -41h-5q-25 10 -25 27q0 16 25 29q100 5 100 83q0 18 -2.5 53.5t-2.5 52.5q0 103 76 163q-75 60 -75 163q0 18 2 53t2 53q0 78 -99 83q-21 10 -21 30q0 25 21 25h38
q105 0 135 -67q15 -32 19 -144q3 -98 37 -136q16 -19 57 -36q19 -8 19 -18z" />
    <glyph glyph-name="asciitilde" unicode="~" horiz-adv-x="451" 
d="M369 385q16 0 25.5 -8.5t9.5 -25.5q0 -13 -16.5 -29.5t-39 -31t-44.5 -24.5t-34 -10q-18 0 -36 6.5t-34 14.5l-29 14.5t-20 6.5q-9 0 -20.5 -6t-22 -13.5t-17.5 -14l-7 -6.5q-53 0 -53 35q0 12 17 28t39.5 30t45.5 24t35 10q19 0 34 -7t27.5 -16t25 -16t26.5 -7q9 0 21 7
t25 16t24.5 16t17.5 7z" />
    <glyph glyph-name="nonbreakingspace" unicode="&#xa0;" horiz-adv-x="214" 
 />
    <glyph glyph-name="exclamdown" unicode="&#xa1;" horiz-adv-x="275" 
d="M238 409q0 -64 -79 -64q-28 0 -59 11q-39 13 -39 36q0 84 97 84q17 0 68 -20q12 -25 12 -47zM185 225q0 -84 -18 -173q-21 -105 -21 -122q0 -23 9 -56q8 -27 15 -54q-36 -31 -73 -31q-33 0 -72 38q4 8 16 26q28 45 53 302q5 52 5 43q0 10 -18 78l27 23q12 2 24 2
q20 0 37 -9q16 -30 16 -67z" />
    <glyph glyph-name="cent" unicode="&#xa2;" horiz-adv-x="534" 
d="M486 475q0 -21 -18 -32.5t-40 -11.5q-31 0 -70 26.5t-50 26.5q-13 0 -13 -10v-222q23 5 79 36q52 28 54 28h36q15 -16 15 -33q0 -44 -71 -75l-109 -37q4 -80 17 -173q-34 -19 -49 -19q-27 0 -46 30q-16 25 -16 54q0 7 2 21.5t2 21.5v60q-78 13 -127 53q-57 48 -57 122
q0 55 43 105q36 44 91 72q17 6 49 23l1 35q-5 29 -9 87v11q24 29 55 29q24 0 43.5 -18t19.5 -40q0 -16 -7 -41q-8 -29 -9 -41q19 2 26 2q43 0 96 -24q62 -29 62 -66zM207 242v199q-96 -48 -96 -111q0 -35 31 -62q28 -24 65 -26z" />
    <glyph glyph-name="sterling" unicode="&#xa3;" horiz-adv-x="616" 
d="M565 490q0 -25 -30 -50t-56 -25q-21 0 -40 13t-19 33q0 16 14 29t30 10q-25 40 -74.5 67t-98.5 27q-60 0 -99.5 -42t-39.5 -103q0 -60 23 -89h156q15 0 26 -10.5t11 -25.5q0 -43 -67 -43q-15 0 -40 3q-31 5 -41 5q28 -42 28 -86q0 -21 -22 -62l-34 -59l107 -4
q67 -3 107 -3q69 0 80 36q21 15 38 15q15 0 27 -13q1 -9 1 -18q0 -45 -34.5 -71.5t-81.5 -26.5q-52 0 -156.5 3t-156.5 3q-19 0 -35 11.5t-16 29.5q0 11 8 23q29 16 50 61l34 75q-3 27 -16 46l-28 39q-50 -6 -52 -6q-43 0 -43 45q0 34 59 34q-12 47 -12 69q0 10 2.5 30
t2.5 30q0 66 72 123q68 54 137 54q48 0 111 -20q45 -15 103 -63q65 -55 65 -94z" />
    <glyph glyph-name="currency" unicode="&#xa4;" horiz-adv-x="538" 
d="M425 309q0 -50 -22 -89l64.5 -60t26.5 -34q0 -11 -5.5 -18.5t-13 -12t-17 -6.5t-16.5 -2q-8 0 -30 16.5t-65 55.5q-20 -13 -45 -20.5t-52 -7.5q-59 0 -96 21q-17 -17 -29.5 -31.5l-21.5 -25t-16 -16t-14 -5.5q-10 0 -17 6.5t-12 15.5t-7.5 17.5t-2.5 11.5q0 7 15.5 28.5
t49.5 58.5q-16 32 -16 79q0 55 26 107l-45.5 47l-45.5 47q7 23 21 37.5t34 14.5q11 0 35.5 -22t54.5 -57q20 15 43.5 24t49.5 9q28 0 53 -9.5t45 -25.5l83 79q23 -8 40 -24.5t17 -39.5q0 -10 -10 -20.5t-24 -21t-29.5 -20.5t-26.5 -20q21 -41 21 -87zM346 310q0 50 -20 82.5
t-56 32.5q-22 0 -40 -10.5t-31.5 -28.5t-21 -42t-7.5 -51q0 -45 20 -73t60 -28q45 0 70.5 34.5t25.5 83.5z" />
    <glyph glyph-name="yen" unicode="&#xa5;" horiz-adv-x="675" 
d="M621 673q-19 -16 -56 -52q-16 -18 -100 -147t-84 -137v-26h112q37 0 37 -43q0 -15 -11 -25t-26 -10h-112v-31h112q37 0 37 -44q0 -15 -11 -25.5t-26 -10.5h-112v-78q0 -21 -25 -41.5t-47 -20.5q-17 0 -38.5 15t-21.5 32q0 5 11 25q4 8 10 68h-95q-37 0 -37 45
q0 15 11.5 25t25.5 10h102l2 31h-101q-37 0 -37 43q0 15 11.5 25t25.5 10h105l1 21q-39 69 -96 152q-80 117 -109 124l-16 -9h-21q-17 21 -17 37q0 21 18.5 33.5t39.5 12.5q78 0 251 -263q7 14 23 42l73 121q41 71 58 128q27 21 49 21q30 0 84 -58z" />
    <glyph glyph-name="brokenbar" unicode="&#xa6;" horiz-adv-x="171" 
d="M126 587q-7 -31 -10 -74t-3 -99q0 -13 -12.5 -19t-28.5 -6t-29.5 6.5t-13.5 18.5q0 60 1 106.5t1 78.5q0 6 -1 15.5l-2 19.5t-2 19t-1 15q32 22 52 22q22 0 42 -14.5t20 -36.5q0 -7 -2 -16t-4.5 -17t-4.5 -13.5zM139 27q0 -18 -14.5 -30.5t-33.5 -12.5q-63 0 -63 165v115
q0 11 13 17t29 6q17 0 30 -6t13 -17v-39q0 -63 6.5 -107t14.5 -69q5 -15 5 -22z" />
    <glyph glyph-name="section" unicode="&#xa7;" horiz-adv-x="411" 
d="M346 287q0 -18 -14.5 -40t-36 -41.5t-48 -32.5t-50.5 -13q-27 0 -49 3q19 -46 59.5 -83t82.5 -62q61 -38 61 -65q0 -19 -14 -35.5t-35.5 -28.5t-48 -18.5t-50.5 -6.5q-11 0 -23 2t-26.5 8t-31.5 17t-39 28q-49 40 -49 60q0 25 12.5 33.5t38.5 8.5h21q1 -13 15.5 -28.5
t34.5 -29t41 -22.5t36 -9q24 0 24 11q0 -1 -13 12h1l-70 55.5t-62.5 61.5t-44.5 72t-17 87q0 50 20.5 83.5t50.5 51.5q-64 55 -64 133q0 30 9 58.5t25 51t36.5 36.5t43.5 14q16 0 39 -9.5t45 -24.5t38.5 -33t20.5 -34q2 -15 5 -30t3 -32q0 -37 -16 -88q-16 -13 -33 -13
q-5 0 -13 4t-17 11t-16 15.5t-9 17.5q4 0 8.5 3t6.5 8q7 14 7 51q0 82 -45 82q-11 0 -20.5 -9t-16.5 -23t-11 -31.5t-4 -34.5q0 -37 46 -75q9 -8 33 -23.5l62 -38.5q29 -17 45 -34.5t16 -30.5zM187 322q-17 -9 -31.5 -29.5t-17.5 -43.5q19 -12 38 -17t39 -5q10 0 17 6
t11.5 14t6.5 16.5t2 13.5t-15.5 15t-49.5 30z" />
    <glyph glyph-name="dieresis" unicode="&#xa8;" horiz-adv-x="314" 
d="M275 748q0 -17 -15.5 -29t-34.5 -12t-34.5 12t-15.5 29q0 18 15.5 30t34.5 12t34.5 -12t15.5 -30zM125 748q0 -17 -15.5 -29t-34.5 -12t-34.5 12t-15.5 29q0 18 15.5 30t34.5 12t34.5 -12t15.5 -30z" />
    <glyph glyph-name="copyright" unicode="&#xa9;" horiz-adv-x="851" 
d="M779 331q0 -153 -110.5 -257.5t-261.5 -104.5t-260 103q-112 106 -112 259t112 259q109 103 260 103t260 -103q112 -106 112 -259zM719 331q0 129 -95 218q-91 86 -217 86t-217 -86q-95 -89 -95 -218t95 -218q91 -86 217 -86t217 86q95 89 95 218zM609 212
q0 -61 -71 -100q-61 -33 -130 -33q-96 0 -150.5 59.5t-54.5 158.5q0 108 56 197q63 100 159 100q65 0 102 -47q34 -44 34 -115q0 -32 -19 -79q-22 -50 -43 -50q-25 0 -43 31q10 8 29 27q11 13 11 55t-12 74q-18 45 -56 45q-28 0 -60 -29q-25 -22 -42 -51q-41 -69 -41 -171
q0 -149 133 -149q49 0 78 19q24 16 52 58q18 29 36 29q13 0 22.5 -8.5t9.5 -20.5z" />
    <glyph glyph-name="ordfeminine" unicode="&#xaa;" horiz-adv-x="306" 
d="M261 395q0 -8 0.5 -18t0.5 -35q0 -38 -6.5 -58t-31.5 -20q-19 0 -26.5 6.5t-9.5 21.5q-13 -6 -26 -8t-26 -2q-18 0 -35.5 5.5t-31.5 15.5t-22.5 22t-8.5 26q0 18 12.5 32.5t31 25t39.5 16.5t37 6q8 0 15.5 -0.5t14.5 -1.5v9q0 53 -28 53q-39 0 -39 -36q0 -22 -24 -22
q-11 0 -24.5 11.5t-13.5 24.5q0 36 25.5 59t60.5 23q116 0 116 -156zM188 374q0 4 -10 4q-64 0 -64 -26q0 -11 24 -11q19 0 34.5 10.5t15.5 22.5z" />
    <glyph glyph-name="guillemotleft" unicode="&#xab;" horiz-adv-x="366" 
d="M315 155q0 -24 -20 -24q-15 0 -26 12q-18 20 -74 100q-60 86 -60 97t12 18l110 161q8 4 15 4q14 0 22.5 -11t8.5 -24q0 -15 -44 -72l-59 -73l58 -70q57 -77 57 -118zM173 488q0 -12 -7 -21l-95 -124l53 -63q46 -60 46 -97q0 -24 -20 -24q-16 0 -26 13q-20 22 -66 86
q-53 72 -53 82q0 11 12 18l110 161q8 4 15 4q14 0 22.5 -11t8.5 -24z" />
    <glyph glyph-name="logicalnot" unicode="&#xac;" horiz-adv-x="532" 
d="M449 384q0 -8 -0.5 -20.5t-0.5 -29.5v-255q0 -18 9 -57q-13 -22 -27 -22q-62 0 -62 60v273h-336q-13 23 -13 40q0 16 12.5 32t28.5 16q8 0 21.5 -1.5t28.5 -3t28 -2.5t19 -1h213q9 0 23.5 2.5t34.5 7.5q12 -8 16.5 -14t4.5 -14v-11z" />
    <glyph glyph-name="softhyphen" unicode="&#xad;" horiz-adv-x="333" 
d="M294 280q-6 -2 -6 -7q0 -3 2.5 -8t2.5 -8q0 -11 -34 -11q-7 0 -19 2.5t-19 2.5q-17 0 -51.5 -1t-52.5 -1q-92 0 -92 34q0 29 26 29q8 0 23.5 -4t23.5 -4q21 0 63.5 2t63.5 2q62 0 69 -28z" />
    <glyph glyph-name="registered" unicode="&#xae;" horiz-adv-x="439" 
d="M410 493q0 -78 -58.5 -134t-141.5 -56t-141.5 56t-58.5 134t58.5 134t141.5 56t141.5 -56t58.5 -134zM266 545q0 42 -65 42h-7q-5 -15 -12 -44q-4 -19 -6 -53q19 -7 24 -7q24 0 45 19.5t21 42.5zM370 493q0 63 -47 107.5t-113 44.5t-113 -44.5t-47 -107.5t47 -107.5
t113 -44.5q52 0 94 29l-12 4q-2 14 -46 44t-58 30l-11 -1v-11q0 -30 12 -45q0 -20 -19 -20q-33 0 -31 81h-2q-24 9 -24 20q0 15 24 21q2 20 5 59q2 11 5 32q-17 0 -17 16q0 7 13 16l19 13q6 0 16.5 -3t15.5 -3q42 0 72 -17q38 -22 38 -63q0 -33 -18 -50l-44 -28
q25 -17 51 -33q26 -21 28 -49q49 45 49 110z" />
    <glyph glyph-name="macron" unicode="&#xaf;" horiz-adv-x="278" 
d="M241 739q0 -24 -14 -24h-186q-16 0 -16 26q0 24 16 24h184q16 0 16 -26z" />
    <glyph glyph-name="macron" unicode="&#x2c9;" horiz-adv-x="278" 
d="M241 739q0 -24 -14 -24h-186q-16 0 -16 26q0 24 16 24h184q16 0 16 -26z" />
    <glyph glyph-name="degree" unicode="&#xb0;" horiz-adv-x="363" 
d="M322 517q0 -72 -39 -117q-41 -48 -113 -48q-67 0 -106 40.5t-39 108.5q0 47 21 92q23 50 62 71q23 13 37 13q19 0 53 -15l5 -11h3q53 2 86 -40q30 -39 30 -94zM241 517q0 34 -15 50q-10 10 -34 19.5t-32 19.5q-22 -15 -38 -45.5t-16 -57.5q0 -82 56 -82q34 0 58 32
q21 30 21 64z" />
    <glyph glyph-name="plusminus" unicode="&#xb1;" horiz-adv-x="596" 
d="M545 358q0 -64 -66 -64h-156v-118q0 -19 11 -60q-15 -22 -33 -22q-69 0 -69 62v138h-192q-15 26 -15 42q0 19 14 34.5t32 15.5t53 -4t53 -4h55v183q27 14 45 14q17 0 39.5 -13t22.5 -28q0 -17 -8 -49.5t-8 -49.5v-57h134q21 0 64 10q24 -13 24 -30zM545 29q0 -64 -66 -64
h-439q-15 25 -15 42q0 19 14 34.5t32 15.5q9 0 22.5 -1t30.5 -3t30.5 -3t22.5 -1h280q23 0 64 10q24 -14 24 -30z" />
    <glyph glyph-name="twosuperior" unicode="&#xb2;" horiz-adv-x="334" 
d="M295 393q0 -11 -10 -23.5t-24 -12.5q-5 0 -16 3.5t-18 3.5q-73 0 -143 -22q-15 -5 -20 -5q-18 0 -31 11t-13 30q0 15 7.5 25.5t30.5 28.5q26 20 49 43.5t40 47t27 45t10 37.5q0 9 -7 15.5t-17 6.5q-20 0 -31 -7.5t-17 -18.5t-8.5 -24.5t-6.5 -24.5t-11.5 -18.5
t-21.5 -7.5q-5 0 -12.5 3.5t-14.5 9.5t-11.5 13t-4.5 13q0 24 13.5 47t34.5 40.5t46 28.5t48 11q18 0 36 -7.5t31.5 -20.5t22 -30.5t8.5 -36.5q0 -21 -9 -44.5t-24.5 -46t-36 -43.5t-42.5 -37q26 5 52 7.5t52 4.5q18 0 30 -14t12 -31z" />
    <glyph glyph-name="threesuperior" unicode="&#xb3;" horiz-adv-x="365" 
d="M317 472q0 -30 -14.5 -53.5t-37.5 -40t-51.5 -25.5t-55.5 -9q-20 0 -44 4.5t-45 14t-35 24.5t-14 35q0 15 13 26t26 11q17 0 28.5 -14t19.5 -28q11 -7 38 -7q17 0 33.5 5t29.5 13t21 18.5t8 22.5q0 14 -18.5 24t-37.5 10q0 -2 -10 -5t-23 -6.5t-26 -6t-19 -2.5
q-30 0 -30 31q0 7 1.5 14.5t6.5 13.5t15.5 10.5t27.5 5.5q16 1 30 7t24.5 15t16.5 19.5t6 21.5q0 9 -10 9q-5 0 -12.5 -2t-16 -5t-16.5 -7t-13 -7q-3 -10 -11 -18.5t-17 -15t-18 -10t-14 -3.5q-14 0 -28.5 7.5t-14.5 21.5q0 13 15.5 32t39.5 36t52 29t54 12q37 0 61.5 -20
t24.5 -55q0 -18 -7 -35t-19 -33q66 -24 66 -85z" />
    <glyph glyph-name="acute" unicode="&#xb4;" horiz-adv-x="236" 
d="M212 783q-5 -11 -11.5 -18.5t-14.5 -10.5q-5 -2 -22 -11.5t-46 -27.5q-56 -32 -74 -32q-14 0 -23 8t-8 24v12q15 18 31 34.5l33 33.5q52 49 79 49q9 0 18.5 -4.5t17.5 -12t14 -16.5t8 -18z" />
    <glyph glyph-name="mu" unicode="&#xb5;" horiz-adv-x="383" 
d="M44 -211q-7 28 -11 54.5t-5.5 65t-2 96.5t-0.5 148q0 31 0.5 66t1.5 69.5t1.5 65t0.5 51.5q28 22 50 22q48 0 48 -47q0 -14 -2 -27t-4 -37t-4 -64.5t-2 -108.5q0 -14 3.5 -28t10 -25.5t16.5 -19t24 -7.5q35 0 56.5 39t21.5 108v120q0 14 -5 30.5t-5 21.5q0 9 13 18.5
t33 9.5q24 0 43.5 -15t19.5 -38q0 -13 -2.5 -39l-5 -54.5l-5 -55t-2.5 -39.5q0 -45 1 -74t1.5 -47t1.5 -28t1 -17q0 -23 -39 -23q-41 0 -51 39q-37 -25 -74 -25q-13 0 -29 5t-30 16q0 -63 5.5 -123t22.5 -102q10 -24 10 -33q0 -29 -43 -29q-12 0 -21.5 1t-17 7t-13.5 18
t-12 35z" />
    <glyph glyph-name="mu" unicode="&#x3bc;" horiz-adv-x="383" 
d="M44 -211q-7 28 -11 54.5t-5.5 65t-2 96.5t-0.5 148q0 31 0.5 66t1.5 69.5t1.5 65t0.5 51.5q28 22 50 22q48 0 48 -47q0 -14 -2 -27t-4 -37t-4 -64.5t-2 -108.5q0 -14 3.5 -28t10 -25.5t16.5 -19t24 -7.5q35 0 56.5 39t21.5 108v120q0 14 -5 30.5t-5 21.5q0 9 13 18.5
t33 9.5q24 0 43.5 -15t19.5 -38q0 -13 -2.5 -39l-5 -54.5l-5 -55t-2.5 -39.5q0 -45 1 -74t1.5 -47t1.5 -28t1 -17q0 -23 -39 -23q-41 0 -51 39q-37 -25 -74 -25q-13 0 -29 5t-30 16q0 -63 5.5 -123t22.5 -102q10 -24 10 -33q0 -29 -43 -29q-12 0 -21.5 1t-17 7t-13.5 18
t-12 35z" />
    <glyph glyph-name="paragraph" unicode="&#xb6;" horiz-adv-x="537" 
d="M489 292q0 -31 -46 -41q-1 -10 -1 -21q0 -16 4 -49.5t4 -49.5q0 -18 -3.5 -58.5t-3.5 -56.5t-10 -42q-12 -31 -25 -31q-18 0 -33 30q-12 25 -12 42v110q0 7 -2 56q-2 34 0 56q-15 0 -40 -1v-12q0 -32 2.5 -94.5t2.5 -92.5q0 -17 -11.5 -28t-28.5 -11q-35 0 -40 34
q-10 62 -7 200q-94 6 -154 67t-60 155q0 89 60.5 145t154.5 56h9q-1 3 -1 6q0 17 13 27.5t28 10.5q36 0 43 -50l36 -1v23q0 16 11.5 27t28.5 11q43 0 41 -73q37 -8 37 -38q0 -34 -34 -39q6 -96 6 -135q0 -44 -5 -93q16 -1 26 -12.5t10 -26.5zM373 439q0 85 -4 139h-39
l-7 -263l46 -1q4 52 4 125zM263 594q-11 1 -23 1q-62 0 -96 -36.5t-34 -99.5q0 -72 37.5 -113.5t104.5 -42.5l8 208q0 27 3 83z" />
    <glyph glyph-name="periodcentered" unicode="&#xb7;" horiz-adv-x="201" 
d="M167 314q0 -21 -26 -33q-21 -9 -45 -9q-21 0 -44 10q-27 12 -27 31q0 22 30 34q22 8 49 8q20 0 41.5 -11.5t21.5 -29.5z" />
    <glyph glyph-name="periodcentered" unicode="&#x2219;" horiz-adv-x="201" 
d="M167 314q0 -21 -26 -33q-21 -9 -45 -9q-21 0 -44 10q-27 12 -27 31q0 22 30 34q22 8 49 8q20 0 41.5 -11.5t21.5 -29.5z" />
    <glyph glyph-name="cedilla" unicode="&#xb8;" horiz-adv-x="204" 
d="M171 -76q0 -31 -42 -54q-20 -11 -70 -27q-26 5 -26 21q0 10 9 16.5t75 37.5q-5 3 -52 12q-40 7 -40 21q0 10 18 27l26 23l52 1q-9 -11 -26 -35q36 -6 47 -10q29 -11 29 -33z" />
    <glyph glyph-name="onesuperior" unicode="&#xb9;" horiz-adv-x="161" 
d="M125 651q0 -5 -1 -14t-4 -21q-8 -33 -10.5 -57t-2.5 -41v-90q0 -23 1.5 -32t4 -11.5t4 -3.5t1.5 -8q0 -14 -10.5 -23.5t-23.5 -9.5q-48 0 -48 45v184q-9 1 -15 9q0 21 6 42t15 37.5t20 27t21 10.5q7 0 14.5 -4.5t13.5 -11t10 -14.5t4 -14z" />
    <glyph glyph-name="ordmasculine" unicode="&#xba;" horiz-adv-x="304" 
d="M260 411q0 -30 -8.5 -55.5t-23.5 -44t-36 -29t-46 -10.5q-51 0 -79.5 33.5t-28.5 91.5q0 30 9 58.5t24 51.5t35.5 37t43.5 14q20 0 37.5 -10.5t29.5 -22.5q43 -42 43 -114zM194 412q0 81 -35 81q-23 0 -36.5 -27t-13.5 -67q0 -69 37 -69q23 0 35.5 23t12.5 59z" />
    <glyph glyph-name="guillemotright" unicode="&#xbb;" horiz-adv-x="356" 
d="M335 345q0 -12 -11 -18l-100 -161q-8 -4 -16 -4q-13 0 -22 11t-9 24q0 14 93 144q-96 132 -96 146q0 24 30 24q10 0 17 -6q12 -10 63 -79q51 -72 51 -81zM205 345q0 -12 -11 -18l-110 -171q-8 -4 -16 -4q-13 0 -22 11t-9 24q0 15 44 76l59 78l-60 81q-45 64 -45 79
q0 24 29 24q11 0 18 -6q13 -11 68 -88t55 -86z" />
    <glyph glyph-name="onequarter" unicode="&#xbc;" horiz-adv-x="587" 
d="M149 651q0 -5 -1 -14t-4 -21q-8 -33 -10.5 -57t-2.5 -41v-90q0 -23 1.5 -32t4 -11.5t4 -3.5t1.5 -8q0 -14 -10.5 -23.5t-23.5 -9.5q-48 0 -48 45v184q-9 1 -15 9q0 21 6 42t15 37.5t20 27t21 10.5q7 0 14.5 -4.5t13.5 -11t10 -14.5t4 -14zM440 622q0 -14 -12.5 -27.5
t-33.5 -28.5q-28 -34 -63 -96t-81 -153q-45 -89 -72 -157t-38 -114q12 -11 12 -22q0 -13 -10.5 -22.5t-24.5 -9.5q-50 0 -50 43q0 19 6.5 49t21.5 72t38.5 97t57.5 125l70 143t43.5 81.5t25 40t15.5 19.5q12 13 31 13q24 0 44 -15t20 -38zM513 72l-10 3l-42 3q1 -14 4 -29
t9 -27q0 -4 -1.5 -10t-6 -12t-12 -10.5t-19.5 -4.5q-22 0 -35 14t-13 49q0 5 0.5 12.5t0.5 14.5q-32 -2 -59.5 -5.5t-41.5 -3.5q-10 0 -22.5 5t-24 13.5t-19 18.5t-7.5 19q0 17 12 32.5t34.5 35l55.5 46t74 64.5q17 21 29.5 31.5t30.5 10.5t31 -12t13 -29q0 -8 -2.5 -17
t-6.5 -17l-19 -117q33 0 54.5 -10t21.5 -32q0 -14 -6 -25t-23 -11zM391 148q1 17 2.5 33t3.5 34l-47 -37t-42 -39q20 3 33 4.5t21.5 2t15 1t13.5 1.5z" />
    <glyph glyph-name="onehalf" unicode="&#xbd;" horiz-adv-x="569" 
d="M149 651q0 -5 -1 -14t-4 -21q-8 -33 -10.5 -57t-2.5 -41v-90q0 -23 1.5 -32t4 -11.5t4 -3.5t1.5 -8q0 -14 -10.5 -23.5t-23.5 -9.5q-48 0 -48 45v184q-9 1 -15 9q0 21 6 42t15 37.5t20 27t21 10.5q7 0 14.5 -4.5t13.5 -11t10 -14.5t4 -14zM434 622q0 -14 -12.5 -27.5
t-33.5 -28.5q-28 -34 -63 -96t-81 -153q-45 -89 -72 -157t-38 -114q12 -11 12 -22q0 -13 -10.5 -22.5t-24.5 -9.5q-50 0 -50 43q0 19 6.5 49t21.5 72t38.5 97t57.5 125l70 143t43.5 81.5t25 40t15.5 19.5q12 13 31 13q24 0 44 -15t20 -38zM524 45q0 -11 -10 -23.5t-24 -12.5
q-5 0 -16 3.5t-18 3.5q-73 0 -143 -22q-15 -5 -20 -5q-18 0 -31 11t-13 30q0 15 7.5 25.5t30.5 28.5q26 20 49 43.5t40 47t27 45t10 37.5q0 9 -7 15.5t-17 6.5q-20 0 -31 -7.5t-17 -18.5t-8.5 -24.5t-6.5 -24.5t-11.5 -18.5t-21.5 -7.5q-5 0 -12.5 3.5t-14.5 9.5t-11.5 13
t-4.5 13q0 24 13.5 47t34.5 40.5t46 28.5t48 11q18 0 36 -7.5t31.5 -20.5t22 -30.5t8.5 -36.5q0 -21 -9 -44.5t-24.5 -46t-36 -43.5t-42.5 -37q26 5 52 7.5t52 4.5q18 0 30 -14t12 -31z" />
    <glyph glyph-name="threequarters" unicode="&#xbe;" horiz-adv-x="729" 
d="M342 472q0 -30 -14.5 -53.5t-37.5 -40t-51.5 -25.5t-55.5 -9q-20 0 -44 4.5t-45 14t-35 24.5t-14 35q0 15 13 26t26 11q17 0 28.5 -14t19.5 -28q11 -7 38 -7q17 0 33.5 5t29.5 13t21 18.5t8 22.5q0 14 -18.5 24t-37.5 10q0 -2 -10 -5t-23 -6.5t-26 -6t-19 -2.5
q-30 0 -30 31q0 7 1.5 14.5t6.5 13.5t15.5 10.5t27.5 5.5q16 1 30 7t24.5 15t16.5 19.5t6 21.5q0 9 -10 9q-5 0 -12.5 -2t-16 -5t-16.5 -7t-13 -7q-3 -10 -11 -18.5t-17 -15t-18 -10t-14 -3.5q-14 0 -28.5 7.5t-14.5 21.5q0 13 15.5 32t39.5 36t52 29t54 12q37 0 61.5 -20
t24.5 -55q0 -18 -7 -35t-19 -33q66 -24 66 -85zM586 622q0 -14 -12.5 -27.5t-33.5 -28.5q-28 -34 -63 -96t-81 -153q-45 -89 -72 -157t-38 -114q12 -11 12 -22q0 -13 -10.5 -22.5t-24.5 -9.5q-50 0 -50 43q0 19 6.5 49t21.5 72t38.5 97t57.5 125l70 143t43.5 81.5t25 40
t15.5 19.5q12 13 31 13q24 0 44 -15t20 -38zM655 72l-10 3l-42 3q1 -14 4 -29t9 -27q0 -4 -1.5 -10t-6 -12t-12 -10.5t-19.5 -4.5q-22 0 -35 14t-13 49q0 5 0.5 12.5t0.5 14.5q-32 -2 -59.5 -5.5t-41.5 -3.5q-10 0 -22.5 5t-24 13.5t-19 18.5t-7.5 19q0 17 12 32.5t34.5 35
l55.5 46t74 64.5q17 21 29.5 31.5t30.5 10.5t31 -12t13 -29q0 -8 -2.5 -17t-6.5 -17l-19 -117q33 0 54.5 -10t21.5 -32q0 -14 -6 -25t-23 -11zM533 148q1 17 2.5 33t3.5 34l-47 -37t-42 -39q20 3 33 4.5t21.5 2t15 1t13.5 1.5z" />
    <glyph glyph-name="questiondown" unicode="&#xbf;" horiz-adv-x="581" 
d="M420 416q0 -18 -18.5 -31t-37.5 -13q-22 0 -48 13q-29 16 -29 37q0 15 28 30q24 13 41 13q20 0 42 -15t22 -34zM531 -14q0 -39 -68 -95q-58 -48 -106 -66q-70 -26 -110 -26q-69 0 -142 50q-80 54 -80 120t78 125q24 18 144 85q78 44 78 73q0 8 -11 27.5t-11 35.5l1 7
q12 3 25 3q30 0 63 -25t33 -55q0 -51 -77 -100l-141 -79q-76 -48 -76 -97q0 -38 31 -61q28 -21 67 -21q38 0 102 31q61 30 89 59q-39 10 -39 33q0 19 22 35t42 16q26 0 56 -24.5t30 -50.5z" />
    <glyph glyph-name="Agrave" unicode="&#xc0;" 
d="M434 708q1 -17 -13 -17q-15 0 -70 32q-64 39 -75 43.5t-18 21.5q3 14 16 28t26 14q22 0 71 -47q36 -34 62 -67zM553 179q0 -48 -43 -49q5 -24 22 -63q-1 -22 -18 -36.5t-40 -14.5q-18 0 -42 12q-13 26 -13 61q0 9 1 26.5t1 26.5q0 -7 -33 -7q-57 0 -132 -5
q-110 -7 -120 -17.5t-13 -108.5q-13 -19 -33 -19q-21 0 -43 17.5t-22 38.5q0 6 18 56q20 72 65 215q135 370 223 370q127 0 173 -465q26 -7 33 -10q16 -9 16 -28zM413 218q-44 352 -79 352q-28 0 -98 -167q-50 -118 -79 -206q32 7 95 17q57 7 161 4z" />
    <glyph glyph-name="Aacute" unicode="&#xc1;" 
d="M412 788q-7 -17 -18 -21.5t-75 -43.5q-55 -32 -70 -32q-14 0 -13 17l1 8q26 33 62 67q49 47 71 47q13 0 26.5 -14t15.5 -28zM553 179q0 -49 -43 -49q5 -24 22 -63q-1 -22 -18 -36.5t-40 -14.5q-18 0 -42 12q-13 26 -13 61q0 9 1 26.5t1 26.5q0 -7 -33 -7q-57 0 -132 -5
q-110 -7 -120 -17.5t-13 -108.5q-13 -19 -33 -19q-21 0 -43 17.5t-22 38.5q0 7 18 56q19 72 65 215q135 370 223 370q87 0 134 -195q21 -88 39 -270q26 -7 33 -10q16 -9 16 -28zM413 218q-44 352 -79 352q-28 0 -98 -167q-50 -118 -79 -206q32 7 95 17q57 7 161 4z" />
    <glyph glyph-name="Acircumflex" unicode="&#xc2;" 
d="M477 700q0 -18 -22 -18q-17 0 -46 22q-34 25 -46 30q-7 2 -21 7q-14 -5 -41 -20q-53 -39 -71 -39q-25 0 -25 14q0 16 60 63.5t77 47.5q21 0 131 -91q4 -8 4 -16zM553 179q0 -49 -43 -49q6 -25 22 -63q-1 -22 -18 -36.5t-40 -14.5q-18 0 -42 12q-2 3 -11 62q-7 45 -23 45
q-50 0 -140 -6q-114 -8 -123 -18.5t-12 -106.5q-13 -19 -33 -19q-21 0 -43 17.5t-22 38.5q0 7 18 56q13 36 32.5 108t32.5 106q134 371 223 371q87 0 134 -196q21 -87 39 -269q49 -11 49 -38zM413 217q-45 352 -79 352q-28 0 -98 -166q-50 -118 -79 -206q32 7 95 17
q57 7 161 3z" />
    <glyph glyph-name="Atilde" unicode="&#xc3;" 
d="M449 765q0 -19 -43 -41q-39 -19 -61 -19q-21 0 -49.5 13t-37.5 13q-13 0 -32.5 -11t-27.5 -11q-32 0 -32 24q0 20 43 40q38 17 61 17q24 0 49 -13.5t34 -13.5q12 0 32.5 13.5t31.5 13.5q32 0 32 -25zM553 179q0 -49 -43 -50q5 -23 22 -62q-1 -22 -18 -36.5t-40 -14.5
q-18 0 -42 12q-13 26 -13 61q0 10 1 27t1 25q0 -6 -33 -6q-56 0 -134 -5q-109 -7 -118.5 -18t-12.5 -108q-13 -19 -33 -19q-21 0 -43 17.5t-22 38.5q0 7 18 56q20 72 65 214q134 370 223 370q87 0 134 -195q21 -87 39 -269q26 -7 33 -10q16 -9 16 -28zM413 217
q-45 352 -79 352q-28 0 -98 -166q-50 -119 -79 -206q32 7 95 17q57 7 161 3z" />
    <glyph glyph-name="Adieresis" unicode="&#xc4;" 
d="M464 731q0 -24 -18 -41t-42 -17t-42 17t-18 41q0 25 18 42t42 17t42 -17t18 -42zM314 731q0 -24 -18 -41t-42 -17t-42 17t-18 41q0 25 18 42t42 17t42 -17t18 -42zM553 179q0 -49 -43 -50q5 -23 22 -62q-1 -22 -18 -36.5t-40 -14.5q-18 0 -42 12q-13 26 -13 61q0 10 1 27
t1 25q0 -7 -33 -7q-56 0 -134 -4q-109 -7 -118.5 -18t-12.5 -108q-13 -19 -33 -19q-21 0 -43 17.5t-22 38.5q0 7 18 56q20 72 65 214q134 370 223 370q87 0 134 -195q21 -88 39 -269q26 -7 33 -10q16 -9 16 -28zM413 217q-45 352 -79 352q-28 0 -98 -166q-50 -119 -79 -206
q32 7 95 17q57 6 161 3z" />
    <glyph glyph-name="Aring" unicode="&#xc5;" 
d="M406 763q0 -26 -24.5 -41.5t-52.5 -15.5t-51 14q-26 17 -26 43t26 43q23 14 51 14t51 -14q26 -17 26 -43zM553 179q0 -48 -43 -49q5 -24 22 -63q-1 -22 -18 -36.5t-40 -14.5q-18 0 -42 12q-13 26 -13 62q0 9 1 26.5t1 25.5q0 -7 -33 -7q-56 0 -134 -5q-109 -7 -118.5 -18
t-12.5 -108q-13 -19 -33 -19q-21 0 -43 17.5t-22 38.5q0 7 18 56q20 72 65 215q134 371 223 371q87 0 134 -196q21 -88 39 -270q26 -6 33 -10q16 -9 16 -28zM358 763q0 22 -29 22q-30 0 -30 -22t30 -22q29 0 29 22zM413 218q-44 352 -79 352q-28 0 -98 -166
q-50 -119 -79 -207q32 7 95 18q57 6 161 3z" />
    <glyph glyph-name="AE" unicode="&#xc6;" horiz-adv-x="947" 
d="M881 67q0 -29 -35 -29q-4 0 -11.5 1.5t-11.5 1.5q-45 0 -130 -27t-131 -27q-119 0 -129 145q-18 2 -30 2q-56 0 -136 -6q-108 -7 -122 -19q-10 -9 -27 -107q-14 -17 -33 -17q-22 0 -41 17t-19 38q0 7 26 58q29 72 94 213q55 107 121 209q103 157 150 157q13 0 37 -6
t37 -6q70 0 238 28q20 4 33 4q66 0 118 -60q-29 -28 -52 -28q-6 0 -18.5 1.5t-18.5 1.5q-56 0 -126 -8q-89 -9 -119 -25q-7 -80 -12 -219q5 1 71 6t78 5q36 0 88 -25v-27q0 -18 -35 -44q-21 21 -27 21q-84 0 -179 -27l-1 -54q44 -10 44 -37q0 -20 -14 -34.5t-34 -15.5
q4 -61 46 -61q40 0 113.5 26.5t112.5 26.5q63 0 84 -36v-9q1 -6 1 -8zM443 539l-1 45q-6 9 -17 9q-46 0 -245 -397q29 6 89 16q62 7 164 4v38q-34 2 -34 41q0 37 36 45q0 18 5 100q3 61 3 99z" />
    <glyph glyph-name="Ccedilla" unicode="&#xc7;" horiz-adv-x="562" 
d="M513 159q0 -65 -57 -117q-50 -46 -118 -60q-15 -2 -43 -5q77 -17 77 -51q0 -40 -46 -67q-20 -12 -81 -33q-39 7 -39 35q0 14 14 27q7 2 22 2q51 0 51 28q0 13 -38.5 17t-38.5 19q0 13 9 25q-103 18 -155 108q-45 77 -45 191q0 108 32 200q37 106 110 168q55 48 116 48
q85 0 129 -75q36 -61 36 -152q0 -41 -21 -104q-25 -76 -56 -76q-34 0 -53 43l28.5 26t19.5 84q0 62 -13 105q-20 67 -66 67q-32 0 -70 -41q-29 -31 -49 -70q-49 -97 -49 -241q0 -210 156 -210q67 0 106 39q16 16 47 71q21 39 45 39q16 0 28 -12t12 -28z" />
    <glyph glyph-name="Egrave" unicode="&#xc8;" horiz-adv-x="541" 
d="M273 728q1 -17 -13 -17q-15 0 -70 32q-64 39 -75 43.5t-18 21.5q2 14 15.5 28t26.5 14q22 0 71 -47q36 -34 62 -67zM493 58q-14 -29 -35 -29q-4 0 -11.5 1.5t-11.5 1.5q-43 0 -124.5 -26.5t-124.5 -26.5q-161 0 -161 246q0 194 10 308q2 27 2 29q0 11 -3 29.5t-3 24.5
l21.5 15t29.5 12q1 1 135 32q81 19 136 19q66 0 118 -61q-29 -28 -52 -28q-6 0 -18.5 1.5t-18.5 1.5q-43 0 -123 -13q-86 -15 -117 -31q-7 -74 -18 -222q27 2 85 14q54 13 85 13q29 0 67 -18q10 -32 10 -39q0 -22 -47 -38q-17 11 -34 11q-76 0 -171 -32q-2 -15 -2 -64
q0 -59 5 -79q11 -46 52 -46q37 0 106.5 23.5t106.5 23.5q76 0 106 -53z" />
    <glyph glyph-name="Eacute" unicode="&#xc9;" horiz-adv-x="541" 
d="M341 788q-7 -17 -18 -21.5t-75 -43.5q-55 -32 -69 -32q-15 0 -14 17l1 8q26 33 62 67q50 47 71 47q13 0 26.5 -14t15.5 -28zM493 58q-14 -29 -35 -29q-4 0 -11.5 1.5t-11.5 1.5q-43 0 -124.5 -26.5t-124.5 -26.5q-161 0 -161 246q0 196 10 307q6 69 7 73q10 37 53 43
q25 2 74 10q83 20 183 29l29 4q17 3 28 3q25 0 43 -21q0 -69 -33 -69q-6 0 -18.5 1.5t-18.5 1.5q-43 0 -123 -13q-86 -15 -117 -31q-7 -73 -18 -221q27 1 85 14q54 12 85 12q29 0 67 -18q10 -32 10 -39q0 -21 -47 -37q-17 10 -34 10q-76 0 -171 -31q-2 -16 -2 -64
q0 -59 5 -79q11 -46 52 -46q37 0 106.5 23.5t106.5 23.5q76 0 106 -53z" />
    <glyph glyph-name="Ecircumflex" unicode="&#xca;" horiz-adv-x="541" 
d="M377 730q0 -18 -23 -18q-17 0 -46 22q-34 25 -46 30q-7 2 -20 7q-15 -5 -42 -20q-53 -39 -71 -39q-25 0 -25 14q0 16 60 63.5t78 47.5q20 0 130 -91q5 -8 5 -16zM493 58q-19 -39 -35 -39q-4 0 -11.5 1.5t-11.5 1.5q-43 0 -124.5 -21.5t-124.5 -21.5q-161 0 -161 246
q0 194 10 307q2 27 2 30q0 7 -4 21t-4 22q0 27 53 38q28 4 86 13l109 23q63 12 110 12q35 0 50.5 -12t19.5 -46l-16 -18q-11 -10 -22 -10q-6 0 -18.5 1t-18.5 1q-43 0 -123 -13q-86 -15 -117 -30q-7 -74 -18 -222q27 1 85 14q54 12 85 12q29 0 67 -18q10 -31 10 -39
q0 -21 -47 -37q-17 11 -34 11q-76 0 -171 -32q-2 -16 -2 -64q0 -59 5 -79q11 -46 52 -46q37 0 106.5 23.5t106.5 23.5q76 0 106 -53z" />
    <glyph glyph-name="Edieresis" unicode="&#xcb;" horiz-adv-x="538" 
d="M361 748q0 -17 -15.5 -29t-34.5 -12t-34.5 12t-15.5 29q0 18 15.5 30t34.5 12t34.5 -12t15.5 -30zM211 728q0 -17 -15.5 -29t-34.5 -12t-34.5 12t-15.5 29q0 18 15.5 30t34.5 12t34.5 -12t15.5 -30zM489 75q0 -17 -7 -30q-9 -17 -24 -17q-4 0 -11.5 1.5t-11.5 1.5
q-43 0 -124.5 -26t-124.5 -26q-161 0 -161 244q0 192 10 304q1 15 1 16q0 7 -2 20.5t-2 19.5q0 46 50 54l154 29q101 19 151 19q29 0 51 -10q30 -14 30 -39q0 -37 -49 -37q-6 0 -18.5 1.5t-18.5 1.5q-81 0 -221 -36q-8 -1 -15 -3t-10 -15q-11 -48 -11 -188q0 -21 19 -21
q26 0 75 13t75 13q29 0 67 -18q10 -32 10 -39q0 -25 -15 -27t-32 -4q-8 5 -22 5q-35 0 -84 -9q-41 -9 -83 -17q-6 -1 -10.5 -2t-6.5 -12q-2 -18 -2 -29q0 -77 3 -92q10 -58 55 -58q38 0 111 23.5t116 23.5q68 0 88 -35z" />
    <glyph glyph-name="Igrave" unicode="&#xcc;" horiz-adv-x="236" 
d="M201 708q1 -17 -13 -17q-15 0 -70 32q-64 39 -75 43.5t-18 21.5q2 14 15.5 28t26.5 14q22 0 71 -47q36 -34 62 -67zM186 630q0 -5 -9 -23q-5 -8 -8 -45q-21 -227 -21 -370q0 -110 37 -163q-39 -27 -57 -27q-51 0 -63 83q-13 101 -13 376q0 121 2 153q2 22 25.5 42.5
t45.5 20.5q20 0 40.5 -14t20.5 -33z" />
    <glyph glyph-name="Iacute" unicode="&#xcd;" horiz-adv-x="236" 
d="M201 788q-7 -17 -18 -21.5t-75 -43.5q-55 -32 -70 -32q-14 0 -13 17v8q27 33 63 67q49 47 71 47q13 0 26 -14t16 -28zM179 630q0 -4 -9 -23q-5 -9 -8 -45q-21 -234 -21 -370q0 -110 37 -163q-39 -27 -57 -27q-51 0 -63 83q-13 99 -13 276q0 41 1 124.5t1 125.5
q0 23 24.5 44.5t47.5 21.5q18 0 39 -15.5t21 -31.5z" />
    <glyph glyph-name="Icircumflex" unicode="&#xce;" horiz-adv-x="337" 
d="M298 690q0 -18 -23 -18q-17 0 -46 22q-34 25 -46 30q-7 2 -20 7q-15 -5 -42 -20q-53 -39 -70 -39q-26 0 -26 14q0 16 60 63.5t78 47.5q20 0 130 -91q5 -8 5 -16zM225 629q0 -4 -9 -23q-5 -9 -8 -45q-21 -233 -21 -370q0 -109 37 -162q-39 -27 -57 -27q-51 0 -62 83
q-14 99 -14 275q0 42 1.5 125t1.5 125q0 23 24 44.5t47 21.5q18 0 39 -15t21 -32z" />
    <glyph glyph-name="Idieresis" unicode="&#xcf;" horiz-adv-x="303" 
d="M265 731q0 -24 -18 -41t-42 -17t-42 17t-18 41q0 25 18 42t42 17t42 -17t18 -42zM145 722q0 -24 -18 -41.5t-42 -17.5t-42 17.5t-18 41.5t18 41t42 17t42 -17t18 -41zM208 629q0 -4 -10 -23q-4 -9 -8 -45q-21 -233 -21 -370q0 -109 37 -162q-38 -27 -57 -27q-51 0 -62 83
q-14 99 -14 275q0 42 1.5 125t1.5 125q0 23 24 44.5t48 21.5q17 0 38.5 -15.5t21.5 -31.5z" />
    <glyph glyph-name="Eth" unicode="&#xd0;" horiz-adv-x="598" 
d="M549 415q0 -157 -72 -283q-86 -150 -231 -150q-53 0 -90 21q-20 -19 -41 -19q-12 0 -28 13q-20 57 -20 149v60.5t1 77.5q-6 -2 -10.5 -3t-9.5 -1q-7 0 -15 4t-15.5 11t-12.5 15t-5 16q0 18 1.5 28t9.5 10h59q0 5 0.5 11t0.5 11l3.5 140.5t1.5 99.5q0 2 -1 7t-1 8
q0 18 13 29t31 11q23 0 41.5 -15t18.5 -36q0 -6 -1 -9q51 75 145 75q54 0 96 -20t71 -57t44.5 -89t15.5 -115zM415 326q0 -26 -7.5 -33t-31.5 -7q-6 0 -8 1.5t-6 3.5t-12.5 4t-26.5 4t-48.5 3.5t-78.5 1.5q-10 0 -19 -0.5t-17 -0.5v-154q0 -94 79 -94q32 0 62.5 17t56.5 46
t46 68t30 83q16 68 16 150q0 204 -120 204q-49 0 -97 -50q-42 -44 -57.5 -94t-15.5 -112q63 3 107.5 6.5t61.5 3.5q14 0 29 -3.5t28 -10.5t21 -16t8 -21z" />
    <glyph glyph-name="Ntilde" unicode="&#xd1;" horiz-adv-x="565" 
d="M405 765q0 -19 -43 -41q-39 -19 -61 -19q-21 0 -49.5 13t-37.5 13q-14 0 -33 -11t-27 -11q-32 0 -32 24q0 20 43 40q38 17 61 17q24 0 49 -13.5t34 -13.5q12 0 32.5 13.5t31.5 13.5q32 0 32 -25zM516 660q0 -17 -9 -24q-1 0 -23 -12q-28 -14 -29 -170l-3 -289
q-1 -44 -20 -91q-25 -58 -62 -58q-55 0 -109 92q-39 69 -79 191l-47 157q-21 -171 -21 -230q0 -129 15.5 -148.5t15.5 -28.5q0 -18 -20 -33t-40 -15q-28 0 -46 60q-14 46 -14 84q0 17 1 51t1 51q0 41 10 122.5t10 123.5v123q0 2 -1.5 6t-1.5 6q0 19 27 33q22 11 44 11
q51 0 73 -33q6 -11 11 -46l6 -50q12 -77 64 -241q61 -195 90 -195q11 0 11 28q0 9 -2.5 27t-2.5 27l-3 286q0 53 27 125q33 87 77 87q22 0 49 -18q1 -5 1 -9z" />
    <glyph glyph-name="Ograve" unicode="&#xd2;" horiz-adv-x="629" 
d="M397 728q1 -17 -13 -17t-69 32q-65 39 -76 43.5t-18 21.5q3 14 16 28t26 14q22 0 72 -47q36 -34 62 -67v-8zM577 342q0 -145 -70 -245q-80 -115 -218 -115q-37 0 -84 15q-180 56 -180 296q0 146 69 262q82 136 218 136q138 0 207 -111q58 -93 58 -238zM481 351
q0 93 -25 147q-31 68 -109 95q-12 4 -22 4q-56 0 -112 -51q-99 -90 -99 -281q0 -19 8 -54q17 -77 51 -112q39 -40 114 -40q103 0 154 100q40 79 40 192z" />
    <glyph glyph-name="Oacute" unicode="&#xd3;" horiz-adv-x="629" 
d="M405 798q-7 -17 -17.5 -21.5t-75.5 -43.5q-55 -32 -69 -32t-13 17v8q26 33 62 67q50 47 71 47q14 0 27 -14t15 -28zM577 342q0 -145 -70 -245q-80 -115 -218 -115q-37 0 -84 15q-180 56 -180 295q0 156 71 268q84 130 230 130q121 0 191 -118q60 -101 60 -230zM481 351
q0 93 -25 147q-31 68 -109 94q-12 5 -22 5q-56 0 -112 -51q-99 -90 -99 -281q0 -20 8 -54q17 -77 51 -112q39 -40 114 -40q103 0 154 100q40 78 40 192z" />
    <glyph glyph-name="Ocircumflex" unicode="&#xd4;" horiz-adv-x="629" 
d="M450 710q0 -18 -23 -18q-17 0 -46 22q-34 25 -46 30q-7 2 -20 7q-15 -5 -42 -20q-53 -39 -71 -39q-25 0 -25 14q0 16 60 63.5t78 47.5q20 0 130 -91q5 -8 5 -16zM577 339q0 -144 -71 -244q-79 -113 -217 -113q-39 0 -84 15q-100 32 -143 111q-37 68 -37 182q0 148 71 261
q82 133 222 133q123 0 196 -115q63 -99 63 -230zM481 348q0 208 -134 249q-14 4 -32 4q-56 0 -112 -50q-89 -81 -89 -289q0 -19 8 -53q17 -77 51 -111q39 -40 114 -40q102 0 154 99q40 78 40 191z" />
    <glyph glyph-name="Otilde" unicode="&#xd5;" horiz-adv-x="629" 
d="M443 775q0 -19 -43 -41q-39 -19 -62 -19q-21 0 -49 13t-38 13q-13 0 -32.5 -11t-27.5 -11q-32 0 -32 24q0 20 43 40q38 17 61 17q24 0 49 -13.5t34 -13.5q13 0 33 13.5t32 13.5q32 0 32 -25zM577 342q0 -145 -70 -246q-80 -114 -218 -114q-37 0 -84 15q-180 56 -180 295
q0 145 68 261q80 137 216 137q137 0 208 -110q60 -93 60 -238zM481 350q0 93 -25 147q-31 68 -109 94q-12 5 -22 5q-56 0 -112 -51q-99 -90 -99 -281q0 -19 8 -53q17 -78 51 -112q39 -41 114 -41q103 0 154 100q40 79 40 192z" />
    <glyph glyph-name="Odieresis" unicode="&#xd6;" horiz-adv-x="629" 
d="M577 341q0 -144 -70 -245q-80 -114 -218 -114q-38 0 -84 15q-100 32 -143 112q-37 68 -37 183q0 119 49 224q58 121 158 158q-20 4 -34 20.5t-14 36.5q0 25 18 42t42 17t42 -17t18 -42q0 -27 -22 -44q18 2 36 2q20 0 39 -3q-23 18 -23 45q0 25 18 42t42 17t42 -17t18 -42
q0 -22 -15.5 -38.5t-37.5 -19.5q86 -34 134 -138q42 -90 42 -194zM481 350q0 93 -25 147q-31 67 -109 94q-12 4 -22 4q-56 0 -112 -50q-99 -90 -99 -281q0 -19 8 -53q17 -78 51 -112q39 -41 114 -41q103 0 154 100q40 79 40 192z" />
    <glyph glyph-name="multiply" unicode="&#xd7;" horiz-adv-x="596" 
d="M475 490q0 -20 -35 -58.5t-99 -98.5q20 -25 43.5 -47.5l47.5 -43.5q8 -7 20 -15.5t30 -19.5q2 -10 2 -15q0 -13 -7 -22.5t-17 -15.5t-20 -9t-16 -3q-11 0 -21 5.5t-21 15.5q-28 24 -54.5 50t-50.5 56q-35 -29 -69 -64l-67 -72q-32 8 -43.5 21.5t-11.5 33.5q0 12 14 28
t34.5 35l43 39t39.5 38l-69.5 68.5l-68.5 70.5q9 29 24.5 45.5t50.5 16.5q11 0 20 -10.5t22 -29.5t32.5 -44t52.5 -53l65.5 66.5t38 41.5t19.5 24t10 15q10 3 19 3q19 0 30.5 -18t11.5 -34z" />
    <glyph glyph-name="Oslash" unicode="&#xd8;" horiz-adv-x="629" 
d="M577 340q0 -145 -70 -246q-80 -114 -218 -114q-46 0 -103 21q-39 -61 -76 -61q-16 0 -27.5 9.5t-11.5 24.5q0 10 39 71q-85 76 -85 245q0 149 71 263q82 134 222 134q39 0 75 -12q10 85 85 85q23 0 50 -28q-20 -36 -55 -109q104 -102 104 -283zM481 348q0 123 -48 185
l-102 -235q-59 -134 -109 -231q30 -11 65 -11q103 0 154 101q40 78 40 191zM364 584q-23 10 -39 10q-56 0 -112 -51q-99 -90 -99 -281q0 -74 38 -138q125 243 212 460z" />
    <glyph glyph-name="Ugrave" unicode="&#xd9;" horiz-adv-x="496" 
d="M304 698q1 -17 -14 -17q-14 0 -69 32q-65 39 -75.5 43.5t-17.5 21.5q2 14 15.5 28t26.5 14q21 0 71 -47q36 -34 62 -67zM450 371q0 -84 -20 -178q-24 -117 -66 -160q-53 -56 -128 -56q-67 0 -119 41q-56 46 -77 127q-15 56 -15 151q0 46 6 139t6 140q0 8 -6 23.5t-6 24.5
q0 18 22.5 33.5t41.5 15.5q31 0 53 -17.5t22 -48.5q0 -3 -1 -15q-17 2 -21 -8q-2 -4 -3.5 -21.5t-11.5 -109.5q-7 -65 -7 -107v-125q0 -58 21 -102q28 -57 80 -57q101 0 133 187q15 86 15 268q0 66 -20 108q-6 12 -6 19q0 18 13.5 35t31.5 17q19 0 40.5 -13.5t21.5 -32.5
v-278z" />
    <glyph glyph-name="Uacute" unicode="&#xda;" horiz-adv-x="496" 
d="M342 788q-7 -17 -18 -21.5t-75 -43.5q-55 -32 -70 -32q-14 0 -13 17v8q26 33 63 67q49 47 71 47q13 0 26 -14t16 -28zM450 371q0 -84 -20 -178q-24 -117 -66 -160q-53 -56 -128 -56q-67 0 -119 41q-56 46 -77 127q-15 56 -15 151q0 46 6 139t6 140q0 8 -6 23.5t-6 24.5
q0 18 22.5 33.5t41.5 15.5q31 0 53 -17.5t22 -48.5q0 -3 -1 -15q-17 2 -21 -8q-2 -4 -3.5 -21.5t-11.5 -109.5q-7 -65 -7 -107v-125q0 -58 21 -102q28 -57 80 -57q101 0 133 187q15 86 15 268q0 66 -20 108q-6 12 -6 19q0 18 13.5 35t31.5 17q19 0 40.5 -13.5t21.5 -32.5
v-278z" />
    <glyph glyph-name="Ucircumflex" unicode="&#xdb;" horiz-adv-x="496" 
d="M366 730q0 -18 -23 -18q-16 0 -45 22q-35 25 -46 30q-7 2 -21 7q-14 -5 -42 -20q-53 -39 -70 -39q-25 0 -25 14q0 16 59.5 63.5t77.5 47.5q21 0 131 -91q4 -8 4 -16zM450 371q0 -84 -20 -178q-24 -115 -66 -160q-52 -56 -128 -56q-68 0 -119 42q-57 47 -77 126
q-15 56 -15 151q0 47 6 140t6 140q0 8 -6 23.5t-6 23.5q0 19 22.5 34.5t41.5 15.5q69 0 69 -40q0 -5 -4 -38q-11 -11 -13 -14t-2 -14l-1 -7q-1 -30 -10 -107q-8 -68 -8 -108v-124q0 -58 21 -103q28 -56 80 -56q101 0 133 187q15 86 15 269q0 69 -20 107q-13 25 -13 36
q0 16 17 25.5t35 9.5q19 0 40.5 -14t21.5 -32v-279z" />
    <glyph glyph-name="Udieresis" unicode="&#xdc;" horiz-adv-x="496" 
d="M374 731q0 -24 -18 -41t-42 -17t-42 17t-18 41q0 25 18 42t42 17t42 -17t18 -42zM224 731q0 -24 -18 -41t-42 -17t-42 17t-18 41q0 25 18 42t42 17t42 -17t18 -42zM450 370q0 -83 -20 -178q-24 -116 -66 -159q-53 -56 -128 -56q-67 0 -119 41q-56 46 -77 127
q-15 56 -15 150q0 47 6 139.5t6 139.5q0 8 -6 23.5t-6 24.5q0 18 22.5 33.5t41.5 15.5q31 0 53 -17.5t22 -48.5q0 -3 -1 -15q-17 2 -21 -8q-2 -4 -3.5 -21.5t-11.5 -108.5q-7 -65 -7 -108v-124q0 -58 21 -102q28 -57 80 -57q101 0 133 187q15 85 15 267q0 66 -20 108
q-6 12 -6 19q0 18 13.5 35t31.5 17q19 0 40.5 -13.5t21.5 -32.5v-278z" />
    <glyph glyph-name="Yacute" unicode="&#xdd;" horiz-adv-x="535" 
d="M512 621q-11 -19 -38.5 -50.5t-37 -48.5t-120.5 -309q-94 -249 -125 -249q-27 0 -47 15q-23 16 -23 42q0 16 18 40t40 85l32 92q-60 48 -106 147q-80 169 -80 238q0 58 52 58q60 0 60 -69q0 -7 -2.5 -21.5t-2.5 -22.5q0 -42 39 -132q41 -95 74 -109q13 19 57 115
q48 106 75 152q45 75 75 75q22 0 39.5 -13.5t20.5 -34.5zM367 821q-5 -11 -11.5 -18.5t-14.5 -10.5q-5 -2 -22 -11.5t-46 -27.5q-56 -32 -74 -32q-14 0 -23 8t-8 24v12q15 18 31 34.5l33 33.5q52 49 79 49q9 0 18.5 -4.5t17.5 -12t14 -16.5t8 -18z" />
    <glyph glyph-name="Thorn" unicode="&#xde;" horiz-adv-x="513" 
d="M157 627q0 -9 -3.5 -22t-7.5 -29.5t-8 -36.5t-5 -42q16 22 36 38t40.5 25.5t40.5 14t36 4.5q54 0 91 -17t59.5 -46t32.5 -67.5t10 -82.5q0 -51 -11 -104t-36.5 -97t-66 -72t-98.5 -28q-45 0 -81 13t-62 33q7 -61 31 -93q-9 -15 -27 -20.5t-25 -5.5q-29 0 -44 20.5
t-22.5 55t-8.5 79t-1 93.5q0 87 3 181.5t5 188.5q2 22 21.5 41.5t45.5 19.5q6 0 15.5 -4.5t18 -11t15 -14.5t6.5 -14zM253 145q42 0 70 19.5t44.5 50t23.5 68t7 72.5q0 27 -5 53.5t-17 48t-32.5 35t-51.5 13.5q-24 0 -48 -11.5t-46.5 -30t-41 -41.5t-31.5 -46
q-3 -42 -4 -76.5t-1 -72.5q10 -15 25 -29.5t32.5 -26t36.5 -19t39 -7.5z" />
    <glyph glyph-name="germandbls" unicode="&#xdf;" horiz-adv-x="512" 
d="M465 137q0 -106 -74.5 -180t-179.5 -74q-19 0 -33.5 10.5t-14.5 27.5q0 22 35 33q67 21 78 26q51 25 78 77q22 41 22 90q0 61 -38 118q-42 63 -100 68q-2 0 -6 -1h-5q-17 0 -29.5 10.5t-12.5 27.5q0 14 9 30q42 18 81 64q42 50 42 92q0 57 -56 57q-149 0 -149 -394
q0 -95 9 -156q3 -21 3 -30q0 -16 -15.5 -29.5t-31.5 -13.5q-23 0 -39 25q-13 20 -13 195q0 194 33 301q55 180 203 180q60 0 101 -34q44 -37 44 -97q0 -41 -25.5 -90t-58.5 -75l-20 5q76 -30 121 -106q42 -72 42 -157z" />
    <glyph glyph-name="agrave" unicode="&#xe0;" horiz-adv-x="428" 
d="M384 170q0 -129 -8 -182q-5 -31 -42 -31q-56 0 -50 56q-50 -24 -104 -24q-52 0 -99 26q-56 31 -56 79q0 47 64 88q58 37 109 37h85v24q1 105 -62 105q-79 0 -79 -74q0 -25 -28 -25q-17 0 -35.5 15.5t-18.5 32.5q0 56 40 92t96 36q188 0 188 -255zM283 134q0 20 -30 20
q-125 0 -125 -59q0 -32 55 -32q34 0 64 19q36 21 36 52zM277 494q0 -32 -35 -32q-34 0 -83 43q-7 5 -13.5 9t-12.5 6q-14 5 -24 9t-18 9l-6 16q1 9 7 19.5t14 19t17.5 14t18.5 5.5q14 0 33.5 -11t40.5 -30q15 -14 30 -29.5t27 -32.5q4 -10 4 -15z" />
    <glyph glyph-name="aacute" unicode="&#xe1;" horiz-adv-x="428" 
d="M384 170q0 -129 -8 -182q-5 -31 -42 -31q-56 0 -50 56q-50 -24 -104 -24q-52 0 -99 26q-56 31 -56 79q0 47 64 88q58 37 109 37h85v24q1 105 -62 105q-79 0 -79 -74q0 -25 -28 -25q-17 0 -35.5 15.5t-18.5 32.5q0 56 40 92t96 36q188 0 188 -255zM283 134q0 20 -30 20
q-125 0 -125 -59q0 -32 55 -32q34 0 64 19q36 21 36 52zM330 575q-5 -11 -11.5 -18.5t-14.5 -10.5q-5 -2 -22 -11.5t-46 -27.5q-56 -32 -74 -32q-14 0 -23 8t-8 24v12q15 18 31 34.5l33 33.5q52 49 79 49q9 0 18.5 -4.5t17.5 -12t14 -16.5t8 -18z" />
    <glyph glyph-name="acircumflex" unicode="&#xe2;" horiz-adv-x="428" 
d="M322 455q0 -15 -20 -15q-15 0 -41 19q-31 23 -39.5 26l-20.5 7q-13 -4 -38 -18q-47 -34 -63 -34q-23 0 -23 12q0 14 54 56.5t70 42.5q18 0 118 -81q3 -8 3 -15zM384 170q0 -129 -8 -182q-5 -31 -42 -31q-56 0 -50 56q-50 -24 -104 -24q-52 0 -99 26q-56 31 -56 79
q0 47 64 88q58 37 109 37h85v24q1 105 -62 105q-79 0 -79 -74q0 -25 -28 -25q-17 0 -35.5 15.5t-18.5 32.5q0 56 40 92t96 36q188 0 188 -255zM283 134q0 20 -30 20q-125 0 -125 -59q0 -32 55 -32q34 0 64 19q36 21 36 52z" />
    <glyph glyph-name="atilde" unicode="&#xe3;" horiz-adv-x="428" 
d="M334 519q0 -20 -36.5 -40.5t-58.5 -20.5q-19 0 -44 13t-34 13q-12 0 -29 -11t-25 -11q-29 0 -29 24q0 19 38 39q34 18 56 18t44.5 -13.5t30.5 -13.5q11 0 29.5 13.5t28.5 13.5q29 0 29 -24zM384 170q0 -129 -8 -182q-5 -31 -42 -31q-56 0 -50 56q-50 -24 -104 -24
q-52 0 -99 26q-56 31 -56 79q0 47 64 88q58 37 109 37h85v24q1 105 -62 105q-79 0 -79 -74q0 -25 -28 -25q-17 0 -35.5 15.5t-18.5 32.5q0 56 40 92t96 36q188 0 188 -255zM283 134q0 20 -30 20q-125 0 -125 -59q0 -32 55 -32q34 0 64 19q36 21 36 52z" />
    <glyph glyph-name="adieresis" unicode="&#xe4;" horiz-adv-x="428" 
d="M317 488q0 -16 -14 -26.5t-31 -10.5t-31 10.5t-14 26.5q0 17 14 27.5t31 10.5t31 -10.5t14 -27.5zM182 488q0 -16 -14 -26.5t-31 -10.5t-31 10.5t-14 26.5q0 17 14 27.5t31 10.5t31 -10.5t14 -27.5zM384 170q0 -129 -8 -182q-5 -31 -42 -31q-56 0 -50 56
q-50 -24 -104 -24q-52 0 -99 26q-56 31 -56 79q0 47 64 88q58 37 109 37h85v24q1 105 -62 105q-79 0 -79 -74q0 -25 -28 -25q-17 0 -35.5 15.5t-18.5 32.5q0 56 40 92t96 36q188 0 188 -255zM283 134q0 20 -30 20q-125 0 -125 -59q0 -32 55 -32q34 0 64 19q36 21 36 52z" />
    <glyph glyph-name="aring" unicode="&#xe5;" horiz-adv-x="428" 
d="M278 509q0 -26 -24.5 -41.5t-52.5 -15.5t-51 14q-26 17 -26 43t26 43q23 14 51 14t51 -14q26 -17 26 -43zM384 170q0 -129 -8 -182q-5 -31 -42 -31q-56 0 -50 56q-50 -24 -104 -24q-52 0 -99 26q-56 31 -56 79q0 47 64 88q58 37 109 37h85v24q1 105 -62 105
q-79 0 -79 -74q0 -25 -28 -25q-17 0 -35.5 15.5t-18.5 32.5q0 56 40 92t96 36q188 0 188 -255zM230 509q0 22 -29 22t-29 -22t29 -22t29 22zM283 134q0 20 -30 20q-125 0 -125 -59q0 -32 55 -32q34 0 64 19q36 21 36 52z" />
    <glyph glyph-name="ae" unicode="&#xe6;" horiz-adv-x="673" 
d="M619 108q0 -50 -67 -87q-58 -33 -112 -33q-72 0 -118 43q-72 -40 -142 -40q-52 0 -99 26q-56 31 -56 79q0 47 64 88q58 37 109 37h85v23q1 104 -62 104q-34 0 -58 -41q-21 -36 -21 -72q0 -25 -28 -25q-17 0 -35.5 16t-18.5 33q0 57 38 110q42 56 98 56q36 0 76.5 -15.5
t65.5 -40.5q37 62 87 62q55 0 118.5 -49t63.5 -102q0 -67 -59 -115q-55 -45 -124 -45q-12 0 -26.5 6l-28.5 12q3 -76 75 -76q40 0 78.5 45t53.5 45q17 0 30 -13.5t13 -30.5zM510 277q0 25 -14.5 47.5t-38.5 22.5q-27 0 -53 -42q-23 -38 -23 -68q0 -18 18 -29.5t38 -11.5
q31 0 52 24.5t21 56.5zM283 136q0 19 -30 19q-125 0 -125 -58q0 -32 55 -32q33 0 64 19q36 21 36 52z" />
    <glyph glyph-name="ccedilla" unicode="&#xe7;" horiz-adv-x="422" 
d="M379 106q0 -31 -46 -74q-43 -39 -77 -50q-13 -4 -41 -12q67 -14 67 -46q0 -73 -119 -115q-37 12 -37 37q0 12 12 24q34 12 40 15q22 13 20 33q-5 9 -19 9q-6 0 -17 -2t-17 -2q-14 0 -14 12q0 15 24 39q-14 4 -42 15q-44 22 -67 70q-21 43 -21 96q0 77 41 175
q49 116 114 116q36 0 88.5 -30t61 -60.5t8.5 -63.5q0 -31 -13 -71q-16 -51 -40 -51q-17 0 -32 10q-18 11 -18 28q0 3 9 23q5 10 5 59q0 77 -31 77q-49 0 -77 -87q-19 -64 -19 -128q0 -110 68 -110q27 0 61 28t46 55q15 32 39 32q15 0 29 -17.5t14 -33.5z" />
    <glyph glyph-name="egrave" unicode="&#xe8;" horiz-adv-x="401" 
d="M358 88q0 -50 -68 -78q-53 -22 -111 -22q-154 0 -154 175q0 72 35 160q43 108 104 108q55 0 118.5 -49t63.5 -102q0 -67 -59 -115q-55 -45 -124 -45q-14 0 -45 17q3 -75 56 -75q44 0 86.5 25t54.5 25q43 0 43 -24zM249 277q0 25 -14.5 47.5t-38.5 22.5q-32 0 -51 -39
q-15 -32 -15 -69q0 -19 13 -31t33 -12q31 0 52 24.5t21 56.5zM257 494q0 -32 -35 -32q-34 0 -83 43q-7 5 -13.5 9t-12.5 6q-14 5 -24 9t-18 9l-6 16q1 9 7 19.5t14 19t17.5 14t18.5 5.5q14 0 33.5 -11t40.5 -30q15 -14 30 -29.5t27 -32.5q4 -10 4 -15z" />
    <glyph glyph-name="eacute" unicode="&#xe9;" horiz-adv-x="401" 
d="M358 88q0 -50 -68 -78q-53 -22 -111 -22q-154 0 -154 175q0 72 35 160q43 108 104 108q55 0 118.5 -49t63.5 -102q0 -67 -59 -115q-55 -45 -124 -45q-14 0 -45 17q3 -75 56 -75q44 0 86.5 25t54.5 25q43 0 43 -24zM249 277q0 25 -14.5 47.5t-38.5 22.5q-32 0 -51 -39
q-15 -32 -15 -69q0 -19 13 -31t33 -12q31 0 52 24.5t21 56.5zM299 570q-5 -11 -11.5 -18.5t-14.5 -10.5q-5 -2 -22 -11.5t-46 -27.5q-56 -32 -74 -32q-14 0 -23 8t-8 24v12q15 18 31 34.5l33 33.5q52 49 79 49q9 0 18.5 -4.5t17.5 -12t14 -16.5t8 -18z" />
    <glyph glyph-name="ecircumflex" unicode="&#xea;" horiz-adv-x="401" 
d="M299 455q0 -15 -20 -15q-15 0 -41 19q-31 23 -42 27l-18 6q-13 -4 -38 -18q-48 -34 -63 -34q-23 0 -23 12q0 14 54 56.5t70 42.5q18 0 117 -81q4 -8 4 -15zM358 88q0 -50 -68 -78q-53 -22 -111 -22q-154 0 -154 175q0 72 35 160q43 108 104 108q55 0 118.5 -49t63.5 -102
q0 -67 -59 -115q-55 -45 -124 -45q-14 0 -45 17q3 -75 56 -75q44 0 86.5 25t54.5 25q43 0 43 -24zM249 277q0 25 -14.5 47.5t-38.5 22.5q-32 0 -51 -39q-15 -32 -15 -69q0 -19 13 -31t33 -12q31 0 52 24.5t21 56.5z" />
    <glyph glyph-name="edieresis" unicode="&#xeb;" horiz-adv-x="401" 
d="M294 488q0 -16 -14 -26.5t-31 -10.5t-31 10.5t-14 26.5q0 17 14 27.5t31 10.5t31 -10.5t14 -27.5zM159 488q0 -16 -14 -26.5t-31 -10.5t-31 10.5t-14 26.5q0 17 14 27.5t31 10.5t31 -10.5t14 -27.5zM358 88q0 -50 -68 -78q-53 -22 -111 -22q-154 0 -154 175q0 72 35 160
q43 108 104 108q55 0 118.5 -49t63.5 -102q0 -67 -59 -115q-55 -45 -124 -45q-14 0 -45 17q3 -75 56 -75q44 0 86.5 25t54.5 25q43 0 43 -24zM249 277q0 25 -14.5 47.5t-38.5 22.5q-32 0 -51 -39q-15 -32 -15 -69q0 -19 13 -31t33 -12q31 0 52 24.5t21 56.5z" />
    <glyph glyph-name="igrave" unicode="&#xec;" horiz-adv-x="225" 
d="M160 385q0 -18 -8 -51t-8 -51v-206q0 -19 11 -60q-15 -23 -33 -23q-63 0 -69 63q-10 117 -10 176q0 99 8 166q-1 5 -1 10q0 18 28 18q25 0 50 -10q32 -11 32 -32zM197 494q0 -32 -35 -32q-34 0 -83 43q-7 5 -13.5 9t-12.5 6q-14 5 -24 9t-18 9l-6 16q1 9 7 19.5t14 19
t17.5 14t18.5 5.5q14 0 33.5 -11t40.5 -30q15 -14 30 -29.5t27 -32.5q4 -10 4 -15z" />
    <glyph glyph-name="iacute" unicode="&#xed;" horiz-adv-x="225" 
d="M159 385q0 -18 -8 -51t-8 -51v-206q0 -19 11 -60q-15 -23 -33 -23q-63 0 -69 63q-10 117 -10 176q0 99 8 166q-1 5 -1 10q0 18 28 18q25 0 50 -10q32 -11 32 -32zM216 571q-5 -11 -11.5 -18.5t-14.5 -10.5q-5 -2 -22 -11.5t-46 -27.5q-56 -32 -74 -32q-14 0 -23 8t-8 24
v12q15 18 31 34.5l33 33.5q52 49 79 49q9 0 18.5 -4.5t17.5 -12t14 -16.5t8 -18z" />
    <glyph glyph-name="icircumflex" unicode="&#xee;" horiz-adv-x="267" 
d="M230 455q0 -15 -20 -15q-12 0 -43 18q-40 23 -45 25q-7 -3 -38 -25q-25 -18 -36 -18q-23 0 -23 12q0 15 44.5 57t59.5 42q11 0 49 -35l48 -46q4 -8 4 -15zM183 385q0 -18 -8 -51t-8 -51v-206q0 -19 11 -60q-15 -23 -33 -23q-64 0 -69 63q-10 117 -10 176q0 99 8 166
q-2 5 -2 10q0 18 28 18q26 0 50 -10q33 -11 33 -32z" />
    <glyph glyph-name="idieresis" unicode="&#xef;" horiz-adv-x="173" 
d="M199 488q0 -16 -14 -26.5t-31 -10.5t-31 10.5t-14 26.5q0 17 14 27.5t31 10.5t31 -10.5t14 -27.5zM84 488q0 -16 -14 -26.5t-31 -10.5t-31 10.5t-14 26.5q0 17 14 27.5t31 10.5t31 -10.5t14 -27.5zM147 385q0 -18 -8 -51t-8 -51v-206q0 -19 11 -60q-15 -23 -33 -23
q-64 0 -69 63q-10 117 -10 176q0 99 8 166q-2 5 -2 10q0 18 28 18q26 0 50 -10q33 -11 33 -32z" />
    <glyph glyph-name="eth" unicode="&#xf0;" horiz-adv-x="379" 
d="M338 581q0 -11 -6 -16t-17.5 -10l-27.5 -12.5t-36 -22.5q24 -41 42 -87t30 -92t18 -89t6 -79q0 -41 -12 -77.5t-34 -64t-53 -43.5t-68 -16q-78 0 -118 47.5t-40 132.5q0 42 12.5 84t35 76t52 55t64.5 21q15 0 35 -5q-8 22 -18 43.5t-21 39.5q-15 -11 -24.5 -25t-17.5 -27
t-15.5 -21.5t-17.5 -8.5q-8 0 -17 6t-17.5 14t-14 15.5t-5.5 10.5q0 10 10 22.5t24.5 25.5l29.5 25.5l25 21.5q-19 24 -44 44t-51 20q-5 12 -7 20t-2 14q0 16 5.5 25.5t13 15t15 7t12.5 1.5q18 0 35.5 -9t33.5 -22.5t30.5 -29.5t25.5 -31q32 26 51 36t30 10q18 0 33 -14
t15 -31zM270 174q0 60 -18.5 97.5t-51.5 37.5q-21 0 -38 -12.5t-30 -34t-20 -49.5t-7 -58q0 -54 19.5 -86t55.5 -32q21 0 37.5 11t28 29.5t18 43.5t6.5 53z" />
    <glyph glyph-name="ntilde" unicode="&#xf1;" horiz-adv-x="426" 
d="M311 533q0 -19 -36.5 -40t-58.5 -21q-19 0 -44 13t-34 13q-12 0 -29 -11t-25 -11q-29 0 -29 25q0 19 38 39q34 18 56 18t44.5 -14t30.5 -14q11 0 29.5 14t28.5 14q29 0 29 -25zM382 7q-15 -23 -37 -23q-17 0 -56 20v12q0 23 1.5 66.5t1.5 64.5q0 217 -64 217
q-18 0 -41 -29q-71 -87 -71 -210q0 -17 6.5 -51.5t6.5 -51.5q0 -14 -13 -23t-28 -9q-60 0 -60 77v212q0 8 2 24t2 24q0 12 -3.5 35.5t-3.5 34.5q0 17 19.5 31t36.5 14q20 0 25 -4l16 -20l-3 -41q36 59 123 59q19 0 45 -13q95 -46 95 -269v-147z" />
    <glyph glyph-name="ograve" unicode="&#xf2;" horiz-adv-x="426" 
d="M382 197q0 -90 -45 -154q-52 -73 -138 -73q-88 0 -133 60q-41 53 -41 144q0 90 45 170q52 95 135 95q26 0 65 -23q112 -67 112 -219zM294 199q0 153 -74 153q-53 0 -80 -65q-20 -49 -20 -111q0 -133 79 -133q51 0 76 55q19 42 19 101zM287 494q0 -32 -35 -32
q-34 0 -83 43q-7 5 -13.5 9t-12.5 6q-14 5 -24 9t-18 9l-6 16q1 9 7 19.5t14 19t17.5 14t18.5 5.5q14 0 33.5 -11t40.5 -30q15 -14 30 -29.5t27 -32.5q4 -10 4 -15z" />
    <glyph glyph-name="oacute" unicode="&#xf3;" horiz-adv-x="426" 
d="M382 197q0 -90 -45 -154q-52 -73 -138 -73q-88 0 -133 60q-41 53 -41 144q0 90 45 170q52 95 135 95q26 0 65 -23q112 -67 112 -219zM294 199q0 153 -74 153q-53 0 -80 -65q-20 -49 -20 -111q0 -133 79 -133q51 0 76 55q19 42 19 101zM306 570q-5 -11 -11.5 -18.5
t-14.5 -10.5q-5 -2 -22 -11.5t-46 -27.5q-56 -32 -74 -32q-14 0 -23 8t-8 24v12q15 18 31 34.5l33 33.5q52 49 79 49q9 0 18.5 -4.5t17.5 -12t14 -16.5t8 -18z" />
    <glyph glyph-name="ocircumflex" unicode="&#xf4;" horiz-adv-x="426" 
d="M320 455q0 -15 -21 -15q-15 0 -41 19q-31 23 -41 27q-6 2 -19 6q-13 -4 -37 -18q-48 -34 -63 -34q-23 0 -23 12q0 14 53.5 56.5t70.5 42.5q18 0 117 -81q4 -8 4 -15zM382 197q0 -90 -45 -154q-52 -73 -138 -73q-88 0 -133 60q-41 53 -41 144q0 90 45 170q52 95 135 95
q26 0 65 -23q112 -67 112 -219zM294 199q0 153 -74 153q-53 0 -80 -65q-20 -49 -20 -111q0 -133 79 -133q51 0 76 55q19 42 19 101z" />
    <glyph glyph-name="otilde" unicode="&#xf5;" horiz-adv-x="426" 
d="M337 514q0 -20 -36.5 -40.5t-57.5 -20.5q-20 0 -45 13t-34 13q-12 0 -29 -11t-25 -11q-29 0 -29 24q0 19 38 39q35 18 56 18q22 0 44.5 -13.5t30.5 -13.5q11 0 29.5 13.5t28.5 13.5q29 0 29 -24zM382 194q0 -90 -45 -154q-52 -73 -138 -73q-88 0 -133 60q-41 53 -41 143
q0 91 41 166q50 90 133 90q89 0 139 -74q44 -65 44 -158zM294 196q0 153 -74 153q-53 0 -80 -65q-20 -49 -20 -111q0 -133 79 -133q51 0 76 55q19 42 19 101z" />
    <glyph glyph-name="odieresis" unicode="&#xf6;" horiz-adv-x="426" 
d="M313 488q0 -16 -14.5 -26.5t-30.5 -10.5q-17 0 -31 10.5t-14 26.5q0 17 14 27.5t31 10.5q16 0 30.5 -10.5t14.5 -27.5zM178 488q0 -16 -14.5 -26.5t-30.5 -10.5q-17 0 -31 10.5t-14 26.5q0 17 14 27.5t31 10.5q16 0 30.5 -10.5t14.5 -27.5zM382 197q0 -90 -45 -154
q-52 -73 -138 -73q-88 0 -133 60q-41 53 -41 144q0 90 45 170q52 95 135 95q26 0 65 -23q112 -67 112 -219zM294 199q0 153 -74 153q-53 0 -80 -65q-20 -49 -20 -111q0 -133 79 -133q51 0 76 55q19 42 19 101z" />
    <glyph glyph-name="divide" unicode="&#xf7;" horiz-adv-x="596" 
d="M545 358q0 -64 -66 -64h-439q-15 25 -15 42q0 19 14 34.5t32 15.5q7 0 22 -1.5l31 -3t30.5 -2.5t22.5 -1h280q23 0 64 10q24 -14 24 -30zM361 520q0 -26 -22 -41.5t-49 -15.5q-13 0 -25.5 4.5t-22.5 12t-16.5 17.5t-6.5 21q0 26 23.5 41t55.5 15q11 0 22.5 -4.5t20.5 -12
t14.5 -17t5.5 -20.5zM352 142q0 -20 -17.5 -37t-37.5 -17q-11 0 -24.5 5.5t-25.5 14.5t-20 20t-8 23q0 9 5 19t13 17.5t18 12.5t19 5q14 0 28 -4.5t25 -13t18 -20t7 -25.5z" />
    <glyph glyph-name="oslash" unicode="&#xf8;" horiz-adv-x="427" 
d="M384 454q-20 -28 -54 -86q52 -65 52 -171q0 -91 -45 -156q-51 -73 -138 -73q-36 0 -66 10q-31 -50 -67 -50q-35 0 -35 31q10 25 36 67q-42 53 -42 147q0 91 44 172q53 97 136 97q22 0 58 -20q24 57 75 57q20 0 46 -25zM236 351q-8 2 -16 2q-53 0 -80 -65
q-20 -50 -20 -112q0 -26 3 -47q77 146 113 222zM294 199q0 41 -9 76q-71 -148 -114 -228q13 -6 28 -6q52 0 77 56q18 42 18 102z" />
    <glyph glyph-name="ugrave" unicode="&#xf9;" horiz-adv-x="388" 
d="M346 357q0 -31 -7.5 -93.5t-7.5 -94.5q0 -28 2.5 -83.5t2.5 -82.5q0 -23 -39 -23q-40 0 -51 39q-38 -25 -74 -25q-29 0 -66 15.5t-52 37.5q-29 42 -29 135q0 33 3 117q2 74 1 116q30 22 50 22q48 0 48 -47q0 -18 -4.5 -53t-4.5 -53v-141q0 -24 13 -50q16 -30 38 -30
q43 0 64 55q14 38 14 92v120q0 23 -12 57q25 23 48 23q24 0 43.5 -15t19.5 -38zM267 494q0 -32 -35 -32q-34 0 -83 43q-7 5 -13.5 9t-12.5 6q-14 5 -24 9t-18 9l-6 16q1 9 7 19.5t14 19t17.5 14t18.5 5.5q14 0 33.5 -11t40.5 -30q15 -14 30 -29.5t27 -32.5q4 -10 4 -15z" />
    <glyph glyph-name="uacute" unicode="&#xfa;" horiz-adv-x="388" 
d="M346 387q0 -36 -7.5 -108.5t-7.5 -109.5q0 -28 2.5 -83.5t2.5 -82.5q0 -23 -39 -23q-40 0 -51 39q-38 -25 -74 -25q-29 0 -66 15.5t-52 37.5q-29 42 -29 135q0 32 2 112q3 71 2 111q30 22 50 22q48 0 48 -47q0 -16 -4.5 -48t-4.5 -48v-141q0 -24 13 -50q16 -30 38 -30
q43 0 64 55q14 38 14 92v150q0 23 -12 57q25 23 48 23q24 0 43.5 -15t19.5 -38zM299 570q-5 -11 -11.5 -18.5t-14.5 -10.5q-5 -2 -22 -11.5t-46 -27.5q-56 -32 -74 -32q-14 0 -23 8t-8 24v12q15 18 31 34.5l33 33.5q52 49 79 49q9 0 18.5 -4.5t17.5 -12t14 -16.5t8 -18z" />
    <glyph glyph-name="ucircumflex" unicode="&#xfb;" horiz-adv-x="388" 
d="M304 465q0 -15 -21 -15q-15 0 -41 15q-33 19 -40 21.5t-20 6.5l-50 -26q-34 -17 -51 -17q-23 0 -23 12q0 14 54 56.5t70 42.5q19 0 118 -81q4 -8 4 -15zM346 357q0 -31 -7.5 -93.5t-7.5 -94.5q0 -28 2.5 -83.5t2.5 -82.5q0 -23 -39 -23q-40 0 -51 39q-38 -25 -74 -25
q-29 0 -66 15.5t-52 37.5q-29 42 -29 135q0 32 2 112q3 71 2 111q30 22 50 22q48 0 48 -47q0 -16 -4.5 -48t-4.5 -48v-141q0 -24 13 -50q16 -30 38 -30q43 0 64 55q14 38 14 92v120q0 23 -12 57q25 23 48 23q24 0 43.5 -15t19.5 -38z" />
    <glyph glyph-name="udieresis" unicode="&#xfc;" horiz-adv-x="388" 
d="M294 488q0 -16 -14 -26.5t-31 -10.5q-16 0 -30.5 10.5t-14.5 26.5q0 17 14.5 27.5t30.5 10.5q17 0 31 -10.5t14 -27.5zM159 488q0 -16 -14 -26.5t-31 -10.5q-16 0 -30.5 10.5t-14.5 26.5q0 17 14.5 27.5t30.5 10.5q17 0 31 -10.5t14 -27.5zM346 357q0 -31 -7.5 -93.5
t-7.5 -94.5q0 -28 2.5 -83.5t2.5 -82.5q0 -23 -39 -23q-40 0 -51 39q-38 -25 -74 -25q-29 0 -66 15.5t-52 37.5q-29 42 -29 135q0 32 2 112q3 71 2 111q30 22 50 22q48 0 48 -47q0 -16 -4.5 -48t-4.5 -48v-141q0 -24 13 -50q16 -30 38 -30q43 0 64 55q14 38 14 92v120
q0 23 -12 57q25 23 48 23q24 0 43.5 -15t19.5 -38z" />
    <glyph glyph-name="yacute" unicode="&#xfd;" horiz-adv-x="409" 
d="M376 384q-9 -50 -17 -99q-10 -58 -10 -99v-272q0 -74 -42.5 -113t-116.5 -39q-48 0 -106 25q-69 29 -69 70q0 14 11.5 23.5t25.5 9.5q9 0 43 -27t78 -27q56 0 75 41q14 28 14 90q0 23 -1 38q-33 -22 -74 -22q-75 0 -116 54q-37 49 -37 125q0 8 10 252q30 13 48 13
q20 0 59 -24q-24 -60 -24 -240q0 -115 58 -115q43 0 66 72q17 52 17 108v122q0 -1 -3 33q41 20 61 20q21 0 50 -19zM294 568q-5 -11 -11.5 -18.5t-14.5 -10.5q-5 -2 -22 -11.5t-46 -27.5q-56 -32 -74 -32q-14 0 -23 8t-8 24v12q15 18 31 34.5l33 33.5q52 49 79 49
q9 0 18.5 -4.5t17.5 -12t14 -16.5t8 -18z" />
    <glyph glyph-name="thorn" unicode="&#xfe;" horiz-adv-x="407" 
d="M363 212q0 -53 -12.5 -97t-35 -75.5t-53.5 -49t-69 -17.5q-50 0 -84 28q0 -17 -0.5 -34t-0.5 -34q0 -37 4.5 -73.5t18.5 -69.5q5 -11 7.5 -18t2.5 -10q0 -19 -10.5 -26.5t-32.5 -7.5q-12 0 -21.5 1t-17 7t-13.5 18t-12 35q-9 36 -10.5 70t-1.5 66q0 37 0.5 66t2 60
l3.5 69t4 92q5 118 7.5 236t5.5 238q7 10 16 16.5t22 6.5q16 0 27.5 -6t18.5 -15t10 -20t3 -21q0 -20 -3 -54.5t-6.5 -69.5l-6.5 -64.5t-3 -40.5q29 35 75 35q27 0 52.5 -11t46.5 -29.5t36 -43t21 -51.5q4 -17 6.5 -41.5t2.5 -64.5zM193 40q38 0 58.5 42.5t20.5 129.5
q0 13 -1 39.5t-6.5 53t-18 46t-34.5 19.5q-29 0 -48 -24t-30.5 -61.5t-17 -84t-6.5 -91.5q10 -6 39 -42q21 -27 44 -27z" />
    <glyph glyph-name="ydieresis" unicode="&#xff;" horiz-adv-x="429" 
d="M343 501q0 -17 -15.5 -29t-34.5 -12t-34.5 12t-15.5 29q0 18 15.5 30t34.5 12t34.5 -12t15.5 -30zM193 501q0 -17 -15.5 -29t-34.5 -12t-34.5 12t-15.5 29q0 18 15.5 30t34.5 12t34.5 -12t15.5 -30zM386 388q-9 -50 -17 -99q-10 -59 -10 -100v-274q0 -74 -42.5 -113.5
t-116.5 -39.5q-48 0 -106 25q-69 30 -69 71q0 14 11.5 23.5t25.5 9.5q9 0 43 -27t78 -27q56 0 75 41q14 28 14 91q0 23 -1 37q-33 -21 -74 -21q-75 0 -116 54q-37 49 -37 126q0 8 10 253q30 13 48 13q20 0 59 -24q-24 -61 -24 -241q0 -116 58 -116q43 0 66 72q17 53 17 109
v122q0 -1 -3 34q41 20 61 20q21 0 50 -19z" />
    <glyph glyph-name="Amacron" unicode="&#x100;" 
d="M553 177q0 -48 -43 -49q5 -23 22 -62q-1 -22 -18 -36t-40 -14q-18 0 -42 11q-13 26 -13 62q0 9 1 26t1 25q0 -7 -33 -7q-56 0 -133 -5q-110 -6 -119.5 -17t-12.5 -107q-13 -19 -33 -19q-21 0 -43 17.5t-22 37.5q0 7 18 56q20 71 65 213q134 367 223 367q87 0 134 -194
q21 -87 39 -267q26 -6 33 -10q16 -9 16 -28zM413 215q-44 349 -79 349q-28 0 -98 -164q-50 -118 -79 -205q32 7 95 17q57 7 161 3zM155 723q-1 4 -1 8.5v9.5q0 8 1 18t6 15q16 2 42 4.5t56 5t63 4.5t63 2q26 0 33 -9.5t7 -29.5q0 -16 -5.5 -25.5t-16.5 -9.5t-25.5 0.5
t-30.5 1.5t-32.5 1.5t-30.5 0.5q-29 0 -48.5 -1.5t-32.5 -4l-21 -4t-13 -1.5t-9 3.5t-5 10.5z" />
    <glyph glyph-name="amacron" unicode="&#x101;" horiz-adv-x="428" 
d="M384 170q0 -129 -8 -182q-5 -31 -42 -31q-56 0 -50 56q-50 -24 -104 -24q-52 0 -99 26q-56 31 -56 79q0 47 64 88q58 37 109 37h85v24q1 105 -62 105q-79 0 -79 -74q0 -25 -28 -25q-17 0 -35.5 15.5t-18.5 32.5q0 56 40 92t96 36q188 0 188 -255zM283 134q0 20 -30 20
q-125 0 -125 -59q0 -32 55 -32q34 0 64 19q36 21 36 52zM70 473q-1 4 -1 8.5v9.5q0 8 1 18t6 15q16 2 42 4.5t56 5t63 4.5t63 2q26 0 33 -9.5t7 -29.5q0 -16 -5.5 -25.5t-16.5 -9.5t-25.5 0.5t-30.5 1.5t-32.5 1.5t-30.5 0.5q-29 0 -48.5 -1.5t-32.5 -4l-21 -4t-13 -1.5
t-9 3.5t-5 10.5z" />
    <glyph glyph-name="Abreve" unicode="&#x102;" 
d="M553 177q0 -48 -43 -49q5 -23 22 -62q-1 -22 -18 -36t-40 -14q-18 0 -42 11q-13 26 -13 62q0 9 1 26t1 25q0 -7 -33 -7q-56 0 -133 -5q-110 -6 -119.5 -17t-12.5 -107q-13 -19 -33 -19q-21 0 -43 17.5t-22 37.5q0 7 18 56q20 71 65 213q134 367 223 367q87 0 134 -194
q21 -87 39 -267q26 -6 33 -10q16 -9 16 -28zM413 215q-44 349 -79 349q-28 0 -98 -164q-50 -118 -79 -205q32 7 95 17q57 7 161 3zM428 803q0 -44 -55 -71q-35 -16 -84 -16q-23 0 -44 4t-39 12q-56 27 -56 71q0 39 51 39q28 0 37.5 -10.5t13.5 -22.5l2 -5q8 -4 32 -4
q26 0 38 5l11 17h-1q9 20 43 20q51 0 51 -39z" />
    <glyph glyph-name="abreve" unicode="&#x103;" horiz-adv-x="428" 
d="M384 170q0 -129 -8 -182q-5 -31 -42 -31q-56 0 -50 56q-50 -24 -104 -24q-52 0 -99 26q-56 31 -56 79q0 47 64 88q58 37 109 37h85v24q1 105 -62 105q-79 0 -79 -74q0 -25 -28 -25q-17 0 -35.5 15.5t-18.5 32.5q0 56 40 92t96 36q188 0 188 -255zM283 134q0 20 -30 20
q-125 0 -125 -59q0 -32 55 -32q34 0 64 19q36 21 36 52zM343 553q0 -44 -55 -71q-35 -16 -84 -16q-23 0 -44 4t-39 12q-56 27 -56 71q0 39 51 39q28 0 37.5 -10.5t13.5 -22.5l2 -5q8 -4 32 -4q26 0 38 5l11 17h-1q9 20 43 20q51 0 51 -39z" />
    <glyph glyph-name="Aogonek" unicode="&#x104;" 
d="M553 177q0 -48 -43 -49q5 -23 22 -62q-1 -22 -18 -36t-40 -14q-18 0 -42 11q-13 26 -13 62q0 9 1 26t1 25q0 -7 -33 -7q-56 0 -133 -5q-110 -6 -119.5 -17t-12.5 -107q-13 -19 -33 -19q-21 0 -43 17.5t-22 37.5q0 7 18 56q20 71 65 213q134 367 223 367q87 0 134 -194
q21 -87 39 -267q26 -6 33 -10q16 -9 16 -28zM413 215q-44 349 -79 349q-28 0 -98 -164q-50 -118 -79 -205q32 7 95 17q57 7 161 3zM553 -177q0 -26 -40 -41h1q-12 -6 -24.5 -8.5t-24.5 -2.5q-21 0 -39.5 7t-33 19.5t-22.5 30t-8 37.5q0 55 62 108q15 13 33 13q40 0 40 -33
q0 -14 -23 -46q-16 -24 -16 -37q0 -9 5 -18.5t11 -9.5l6 4l14 8.5t17 3.5q42 0 42 -35z" />
    <glyph glyph-name="aogonek" unicode="&#x105;" horiz-adv-x="428" 
d="M384 170q0 -129 -8 -182q-5 -31 -42 -31q-56 0 -50 56q-50 -24 -104 -24q-52 0 -99 26q-56 31 -56 79q0 47 64 88q58 37 109 37h85v24q1 105 -62 105q-79 0 -79 -74q0 -25 -28 -25q-17 0 -35.5 15.5t-18.5 32.5q0 56 40 92t96 36q188 0 188 -255zM283 134q0 20 -30 20
q-125 0 -125 -59q0 -32 55 -32q34 0 64 19q36 21 36 52zM384 -205q0 -26 -40 -41h1q-12 -6 -24.5 -8.5t-24.5 -2.5q-21 0 -39.5 7t-33 19.5t-22.5 30t-8 37.5q0 55 62 108q15 13 33 13q40 0 40 -33q0 -14 -23 -46q-16 -24 -16 -37q0 -9 5 -18.5t11 -9.5l6 4l14 8.5t17 3.5
q42 0 42 -35z" />
    <glyph glyph-name="Cacute" unicode="&#x106;" horiz-adv-x="562" 
d="M513 164q0 -19 -10 -46q-25 -66 -94 -104q-63 -34 -138 -34q-123 0 -189 93q-57 81 -57 209q0 106 33 199q37 106 109 166q57 47 116 47q85 0 129 -74q36 -60 36 -151q0 -41 -21 -103q-25 -76 -56 -76q-35 0 -53 44q10 7 28 23q20 22 20 86q0 62 -13 105q-20 65 -66 65
q-32 0 -70 -41q-29 -31 -49 -69q-49 -96 -49 -239q0 -208 156 -208q67 0 106 38q16 17 47 71q21 39 45 39q16 0 28 -12.5t12 -27.5zM368 834q-5 -11 -11.5 -18.5t-14.5 -10.5q-5 -2 -22 -11.5t-46 -27.5q-56 -32 -74 -32q-14 0 -23 8t-8 24v12q15 18 31 34.5l33 33.5
q52 49 79 49q9 0 18.5 -4.5t17.5 -12t14 -16.5t8 -18z" />
    <glyph glyph-name="cacute" unicode="&#x107;" horiz-adv-x="401" 
d="M369 113q0 -31 -47 -73q-42 -39 -75.5 -49t-63.5 -10q-79 0 -123.5 50t-44.5 129q0 77 41 172q49 114 114 114q36 0 87 -28q54 -31 63 -62q8 -27 8 -61q0 -31 -13 -70q-16 -50 -40 -50q-17 0 -32 10q-18 11 -18 27q0 1 9 23q5 10 5 55q0 37 -3 48q-6 31 -28 31
q-49 0 -76 -85q-20 -63 -20 -127q0 -107 68 -107q27 0 62 28q32 26 45 53q16 32 39 32q15 0 29 -17.5t14 -32.5zM291 587q-5 -11 -11.5 -18.5t-14.5 -10.5q-5 -2 -22 -11.5t-46 -27.5q-56 -32 -74 -32q-14 0 -23 8t-8 24v12q15 18 31 34.5l33 33.5q52 49 79 49
q9 0 18.5 -4.5t17.5 -12t14 -16.5t8 -18z" />
    <glyph glyph-name="Ccircumflex" unicode="&#x108;" horiz-adv-x="562" 
d="M513 164q0 -19 -10 -46q-25 -66 -94 -104q-63 -34 -138 -34q-123 0 -189 93q-57 81 -57 209q0 106 33 199q37 106 109 166q57 47 116 47q85 0 129 -74q36 -60 36 -151q0 -41 -21 -103q-25 -76 -56 -76q-35 0 -53 44q10 7 28 23q20 22 20 86q0 62 -13 105q-20 65 -66 65
q-32 0 -70 -41q-29 -31 -49 -69q-49 -96 -49 -239q0 -208 156 -208q67 0 106 38q16 17 47 71q21 39 45 39q16 0 28 -12.5t12 -27.5zM271 786h1h-1zM272 787l-2 1l-1 -1q1 0 2 -1zM414 766q0 -32 -40 -32q-11 0 -24.5 5.5t-29.5 18.5v-1q-32 25 -38 26l-10 4l-2 1q-2 0 -1 -1
l-26 -14q-54 -39 -76 -39q-43 0 -43 29q0 11 16.5 28.5t46.5 41.5q60 48 83 48q13 0 47 -22t89 -69q8 -13 8 -24z" />
    <glyph glyph-name="ccircumflex" unicode="&#x109;" horiz-adv-x="401" 
d="M369 113q0 -31 -47 -73q-42 -39 -75.5 -49t-63.5 -10q-79 0 -123.5 50t-44.5 129q0 77 41 172q49 114 114 114q36 0 87 -28q54 -31 63 -62q8 -27 8 -61q0 -31 -13 -70q-16 -50 -40 -50q-17 0 -32 10q-18 11 -18 27q0 1 9 23q5 10 5 55q0 37 -3 48q-6 31 -28 31
q-49 0 -76 -85q-20 -63 -20 -127q0 -107 68 -107q27 0 62 28q32 26 45 53q16 32 39 32q15 0 29 -17.5t14 -32.5zM194 539h1h-1zM195 540l-2 1l-1 -1q1 0 2 -1zM337 519q0 -32 -40 -32q-11 0 -24.5 5.5t-29.5 18.5v-1q-32 25 -38 26l-10 4l-2 1q-2 0 -1 -1l-26 -14
q-54 -39 -76 -39q-43 0 -43 29q0 11 16.5 28.5t46.5 41.5q60 48 83 48q13 0 47 -22t89 -69q8 -13 8 -24z" />
    <glyph glyph-name="Cdotaccent" unicode="&#x10a;" horiz-adv-x="562" 
d="M513 164q0 -19 -10 -46q-25 -66 -94 -104q-63 -34 -138 -34q-123 0 -189 93q-57 81 -57 209q0 106 33 199q37 106 109 166q57 47 116 47q85 0 129 -74q36 -60 36 -151q0 -41 -21 -103q-25 -76 -56 -76q-35 0 -53 44q10 7 28 23q20 22 20 86q0 62 -13 105q-20 65 -66 65
q-32 0 -70 -41q-29 -31 -49 -69q-49 -96 -49 -239q0 -208 156 -208q67 0 106 38q16 17 47 71q21 39 45 39q16 0 28 -12.5t12 -27.5zM343 788q0 -12 -7 -22t-17.5 -17t-24 -11t-26.5 -4q-24 0 -45 12q-29 17 -29 42q0 27 29 44q22 11 45 11q13 0 26.5 -3.5t24 -10.5
t17.5 -17.5t7 -23.5z" />
    <glyph glyph-name="cdotaccent" unicode="&#x10b;" horiz-adv-x="401" 
d="M369 113q0 -31 -47 -73q-42 -39 -75.5 -49t-63.5 -10q-79 0 -123.5 50t-44.5 129q0 77 41 172q49 114 114 114q36 0 87 -28q54 -31 63 -62q8 -27 8 -61q0 -31 -13 -70q-16 -50 -40 -50q-17 0 -32 10q-18 11 -18 27q0 1 9 23q5 10 5 55q0 37 -3 48q-6 31 -28 31
q-49 0 -76 -85q-20 -63 -20 -127q0 -107 68 -107q27 0 62 28q32 26 45 53q16 32 39 32q15 0 29 -17.5t14 -32.5zM266 541q0 -12 -7 -22t-17.5 -17t-24 -11t-26.5 -4q-24 0 -45 12q-29 17 -29 42q0 27 29 44q22 11 45 11q13 0 26.5 -3.5t24 -10.5t17.5 -17.5t7 -23.5z" />
    <glyph glyph-name="Ccaron" unicode="&#x10c;" horiz-adv-x="562" 
d="M513 164q0 -19 -10 -46q-25 -66 -94 -104q-63 -34 -138 -34q-123 0 -189 93q-57 81 -57 209q0 106 33 199q37 106 109 166q57 47 116 47q85 0 129 -74q36 -60 36 -151q0 -41 -21 -103q-25 -76 -56 -76q-35 0 -53 44q10 7 28 23q20 22 20 86q0 62 -13 105q-20 65 -66 65
q-32 0 -70 -41q-29 -31 -49 -69q-49 -96 -49 -239q0 -208 156 -208q67 0 106 38q16 17 47 71q21 39 45 39q16 0 28 -12.5t12 -27.5zM414 852q0 -22 -63 -71q-61 -47 -83 -47q-12 0 -46.5 22t-90.5 69q-7 11 -7 24q0 32 40 32q11 0 24.5 -5.5t29.5 -18.5v1l24 -17.5t14 -8.5
h-3l11 -4h1l3 -1q5 2 12 6l15 9q54 39 76 39q43 0 43 -29z" />
    <glyph glyph-name="ccaron" unicode="&#x10d;" horiz-adv-x="401" 
d="M369 113q0 -31 -47 -73q-42 -39 -75.5 -49t-63.5 -10q-79 0 -123.5 50t-44.5 129q0 77 41 172q49 114 114 114q36 0 87 -28q54 -31 63 -62q8 -27 8 -61q0 -31 -13 -70q-16 -50 -40 -50q-17 0 -32 10q-18 11 -18 27q0 1 9 23q5 10 5 55q0 37 -3 48q-6 31 -28 31
q-49 0 -76 -85q-20 -63 -20 -127q0 -107 68 -107q27 0 62 28q32 26 45 53q16 32 39 32q15 0 29 -17.5t14 -32.5zM337 605q0 -22 -63 -71q-61 -47 -83 -47q-12 0 -46.5 22t-90.5 69q-7 11 -7 24q0 32 40 32q11 0 24.5 -5.5t29.5 -18.5v1l24 -17.5t14 -8.5h-3l11 -4h1l3 -1
q5 2 12 6l15 9q54 39 76 39q43 0 43 -29z" />
    <glyph glyph-name="Dcaron" unicode="&#x10e;" horiz-adv-x="556" 
d="M507 415q0 -157 -72 -283q-86 -150 -231 -150q-52 0 -90 21q-21 -19 -41 -19q-12 0 -28 13q-20 56 -20 149q0 80 4.5 240t4.5 240q0 2 -1 7t-1 8q0 18 13 29t31 11q25 0 44.5 -18t14.5 -42q51 75 145 75q114 0 175 -86q52 -76 52 -195zM408 419q0 204 -120 204
q-49 0 -97 -50q-42 -44 -57.5 -95.5t-15.5 -113.5v-215q0 -94 79 -94q71 0 129 73q48 62 66 141q16 71 16 150zM411 854q0 -22 -63 -71q-61 -47 -83 -47q-12 0 -46.5 22t-90.5 69q-7 11 -7 24q0 32 40 32q11 0 24.5 -5.5t29.5 -18.5v1l24 -17.5t14 -8.5h-3l11 -4h1l3 -1
q5 2 12 6l15 9q54 39 76 39q43 0 43 -29z" />
    <glyph glyph-name="dcaron" unicode="&#x10f;" horiz-adv-x="590" 
d="M372 608q0 -22 -6 -57q-8 -47 -10 -56q-3 -31 -9.5 -183t-6.5 -168q0 -96 21 -144q-17 -28 -39 -28q-23 0 -41 17.5t-20 40.5q-47 -43 -96 -43q-73 0 -113 51q-37 46 -37 121q0 88 36 179q46 115 120 115q44 0 90 -39q5 47 5 240q0 18 27 18q32 0 55.5 -16t23.5 -48z
M256 269q0 34 -15 62q-19 34 -50 34q-45 0 -69 -89q-18 -64 -18 -126q0 -93 54 -93q56 0 81 83q17 56 17 129zM418 606q0 23 20.5 41t47.5 18q29 0 50 -26t21 -65q0 -42 -8 -69t-28 -52q-20 -26 -45 -44.5t-45 -18.5q-16 2 -23.5 12.5t3.5 24.5q20 11 37.5 27t25.5 41
q5 14 3.5 30.5t-18.5 27.5t-29 22t-12 31z" />
    <glyph glyph-name="Uni0110" unicode="&#x110;" horiz-adv-x="598" 
d="M549 415q0 -157 -72 -283q-86 -150 -231 -150q-53 0 -90 21q-20 -19 -41 -19q-12 0 -28 13q-20 57 -20 149v60.5t1 77.5q-6 -2 -10.5 -3t-9.5 -1q-7 0 -15 4t-15.5 11t-12.5 15t-5 16q0 18 1.5 28t9.5 10h59q0 5 0.5 11t0.5 11l3.5 140.5t1.5 99.5q0 2 -1 7t-1 8
q0 18 13 29t31 11q23 0 41.5 -15t18.5 -36q0 -6 -1 -9q51 75 145 75q54 0 96 -20t71 -57t44.5 -89t15.5 -115zM415 326q0 -26 -7.5 -33t-31.5 -7q-6 0 -8 1.5t-6 3.5t-12.5 4t-26.5 4t-48.5 3.5t-78.5 1.5q-10 0 -19 -0.5t-17 -0.5v-154q0 -94 79 -94q32 0 62.5 17t56.5 46
t46 68t30 83q16 68 16 150q0 204 -120 204q-49 0 -97 -50q-42 -44 -57.5 -94t-15.5 -112q63 3 107.5 6.5t61.5 3.5q14 0 29 -3.5t28 -10.5t21 -16t8 -21z" />
    <glyph glyph-name="Uni0111" unicode="&#x111;" horiz-adv-x="430" 
d="M444 529q0 -26 -6.5 -32.5t-27.5 -6.5q-3 0 -6.5 2t-9 4t-14 4.5t-22.5 3.5q-2 -8 -5 -53.5t-7 -138.5q-6 -126 -6 -159q0 -52 5 -89.5t16 -63.5q-16 -28 -39 -28t-41 17.5t-20 40.5q-46 -43 -96 -43q-70 0 -110 47t-40 125q0 87 36 179q46 115 120 115q43 0 90 -39
q1 12 2 35.5t2 57.5h-13q-32 0 -53.5 -3.5t-36 -8t-23.5 -8t-16 -3.5q-6 0 -13 4t-13 10.5t-10.5 14.5t-4.5 16q0 18 1.5 27.5t7.5 9.5q49 0 93.5 2t81.5 4v82q0 18 27 18q32 0 55.5 -16t23.5 -48q0 -7 -0.5 -14t-1.5 -15q27 -2 50.5 -15t23.5 -35zM256 269q0 19 -5 36.5
t-13.5 30.5t-20.5 21t-26 8q-19 0 -35 -19.5t-27.5 -50t-18 -69t-6.5 -76.5q0 -93 54 -93q23 0 41 15.5t31 43.5t19.5 67t6.5 86z" />
    <glyph glyph-name="Emacron" unicode="&#x112;" horiz-adv-x="538" 
d="M489 75q0 -17 -7 -30q-9 -17 -24 -17q-4 0 -11.5 1.5t-11.5 1.5q-43 0 -124.5 -26t-124.5 -26q-161 0 -161 244q0 192 10 304q1 15 1 16q0 7 -2 20.5t-2 19.5q0 46 50 54l154 29q101 19 151 19q29 0 51 -10q30 -14 30 -39q0 -37 -49 -37q-6 0 -18.5 1.5t-18.5 1.5
q-81 0 -221 -36q-8 -1 -15 -3t-10 -15q-11 -48 -11 -188q0 -21 19 -21q26 0 75 13t75 13q29 0 67 -18q10 -32 10 -39q0 -25 -15 -27t-32 -4q-8 5 -22 5q-35 0 -84 -9q-41 -9 -83 -17q-6 -1 -10.5 -2t-6.5 -12q-2 -18 -2 -29q0 -77 3 -92q10 -58 55 -58q38 0 111 23.5
t116 23.5q68 0 88 -35zM123 732q-1 4 -1 8.5v9.5q0 8 1 18t6 15q16 2 42 4.5t56 5t63 4.5t63 2q26 0 33 -9.5t7 -29.5q0 -16 -5.5 -25.5t-16.5 -9.5t-25.5 0.5t-30.5 1.5t-32.5 1.5t-30.5 0.5q-29 0 -48.5 -1.5t-32.5 -4l-21 -4t-13 -1.5t-9 3.5t-5 10.5z" />
    <glyph glyph-name="emacron" unicode="&#x113;" horiz-adv-x="380" 
d="M348 88q0 -50 -68 -78q-53 -22 -111 -22q-154 0 -154 175q0 72 35 160q43 108 104 108q55 0 118.5 -49t63.5 -102q0 -66 -59 -105q-52 -35 -124 -35q-14 0 -45 17q4 -95 56 -95q44 0 86.5 25t54.5 25q43 0 43 -24zM239 277q0 25 -14.5 47.5t-38.5 22.5q-33 0 -51 -29
q-15 -25 -15 -59q0 -19 13 -31t33 -12q73 0 73 61zM47 479q-1 4 -1 8.5v9.5q0 8 1 18t6 15q16 2 42 4.5t56 5t63 4.5t63 2q26 0 33 -9.5t7 -29.5q0 -16 -5.5 -25.5t-16.5 -9.5t-25.5 0.5t-30.5 1.5t-32.5 1.5t-30.5 0.5q-29 0 -48.5 -1.5t-32.5 -4l-21 -4t-13 -1.5t-9 3.5
t-5 10.5z" />
    <glyph glyph-name="Ebreve" unicode="&#x114;" horiz-adv-x="538" 
d="M489 75q0 -17 -7 -30q-9 -17 -24 -17q-4 0 -11.5 1.5t-11.5 1.5q-43 0 -124.5 -26t-124.5 -26q-161 0 -161 244q0 192 10 304q1 15 1 16q0 7 -2 20.5t-2 19.5q0 46 50 54l154 29q101 19 151 19q29 0 51 -10q30 -14 30 -39q0 -37 -49 -37q-6 0 -18.5 1.5t-18.5 1.5
q-81 0 -221 -36q-8 -1 -15 -3t-10 -15q-11 -48 -11 -188q0 -21 19 -21q26 0 75 13t75 13q29 0 67 -18q10 -32 10 -39q0 -25 -15 -27t-32 -4q-8 5 -22 5q-35 0 -84 -9q-41 -9 -83 -17q-6 -1 -10.5 -2t-6.5 -12q-2 -18 -2 -29q0 -77 3 -92q10 -58 55 -58q38 0 111 23.5
t116 23.5q68 0 88 -35zM396 812q0 -44 -55 -71q-35 -16 -84 -16q-23 0 -44 4t-39 12q-56 27 -56 71q0 39 51 39q28 0 37.5 -10.5t13.5 -22.5l2 -5q8 -4 32 -4q26 0 38 5l11 17h-1q9 20 43 20q51 0 51 -39z" />
    <glyph glyph-name="ebreve" unicode="&#x115;" horiz-adv-x="380" 
d="M348 88q0 -50 -68 -78q-53 -22 -111 -22q-154 0 -154 175q0 72 35 160q43 108 104 108q55 0 118.5 -49t63.5 -102q0 -66 -59 -105q-52 -35 -124 -35q-14 0 -45 17q4 -95 56 -95q44 0 86.5 25t54.5 25q43 0 43 -24zM239 277q0 25 -14.5 47.5t-38.5 22.5q-33 0 -51 -29
q-15 -25 -15 -59q0 -19 13 -31t33 -12q73 0 73 61zM320 559q0 -44 -55 -71q-35 -16 -84 -16q-23 0 -44 4t-39 12q-56 27 -56 71q0 39 51 39q28 0 37.5 -10.5t13.5 -22.5l2 -5q8 -4 32 -4q26 0 38 5l11 17h-1q9 20 43 20q51 0 51 -39z" />
    <glyph glyph-name="Edotaccent" unicode="&#x116;" horiz-adv-x="538" 
d="M489 75q0 -17 -7 -30q-9 -17 -24 -17q-4 0 -11.5 1.5t-11.5 1.5q-43 0 -124.5 -26t-124.5 -26q-161 0 -161 244q0 192 10 304q1 15 1 16q0 7 -2 20.5t-2 19.5q0 46 50 54l154 29q101 19 151 19q29 0 51 -10q30 -14 30 -39q0 -37 -49 -37q-6 0 -18.5 1.5t-18.5 1.5
q-81 0 -221 -36q-8 -1 -15 -3t-10 -15q-11 -48 -11 -188q0 -21 19 -21q26 0 75 13t75 13q29 0 67 -18q10 -32 10 -39q0 -25 -15 -27t-32 -4q-8 5 -22 5q-35 0 -84 -9q-41 -9 -83 -17q-6 -1 -10.5 -2t-6.5 -12q-2 -18 -2 -29q0 -77 3 -92q10 -58 55 -58q38 0 111 23.5
t116 23.5q68 0 88 -35zM331 779q0 -12 -7 -22t-17.5 -17t-24 -11t-26.5 -4q-24 0 -45 12q-29 17 -29 42q0 27 29 44q22 11 45 11q13 0 26.5 -3.5t24 -10.5t17.5 -17.5t7 -23.5z" />
    <glyph glyph-name="edotaccent" unicode="&#x117;" horiz-adv-x="380" 
d="M348 88q0 -50 -68 -78q-53 -22 -111 -22q-154 0 -154 175q0 72 35 160q43 108 104 108q55 0 118.5 -49t63.5 -102q0 -66 -59 -105q-52 -35 -124 -35q-14 0 -45 17q4 -95 56 -95q44 0 86.5 25t54.5 25q43 0 43 -24zM239 277q0 25 -14.5 47.5t-38.5 22.5q-33 0 -51 -29
q-15 -25 -15 -59q0 -19 13 -31t33 -12q73 0 73 61zM255 526q0 -12 -7 -22t-17.5 -17t-24 -11t-26.5 -4q-24 0 -45 12q-29 17 -29 42q0 27 29 44q22 11 45 11q13 0 26.5 -3.5t24 -10.5t17.5 -17.5t7 -23.5z" />
    <glyph glyph-name="Eogonek" unicode="&#x118;" horiz-adv-x="538" 
d="M489 75q0 -17 -7 -30q-9 -17 -24 -17q-4 0 -11.5 1.5t-11.5 1.5q-43 0 -124.5 -26t-124.5 -26q-161 0 -161 244q0 192 10 304q1 15 1 16q0 7 -2 20.5t-2 19.5q0 46 50 54l154 29q101 19 151 19q29 0 51 -10q30 -14 30 -39q0 -37 -49 -37q-6 0 -18.5 1.5t-18.5 1.5
q-81 0 -221 -36q-8 -1 -15 -3t-10 -15q-11 -48 -11 -188q0 -21 19 -21q26 0 75 13t75 13q29 0 67 -18q10 -32 10 -39q0 -25 -15 -27t-32 -4q-8 5 -22 5q-35 0 -84 -9q-41 -9 -83 -17q-6 -1 -10.5 -2t-6.5 -12q-2 -18 -2 -29q0 -77 3 -92q10 -58 55 -58q38 0 111 23.5
t116 23.5q68 0 88 -35zM352 -183q0 -26 -40 -41h1q-12 -6 -24.5 -8.5t-24.5 -2.5q-21 0 -39.5 7t-33 19.5t-22.5 30t-8 37.5q0 55 62 108q15 13 33 13q40 0 40 -33q0 -14 -23 -46q-16 -24 -16 -37q0 -9 5 -18.5t11 -9.5l6 4l14 8.5t17 3.5q42 0 42 -35z" />
    <glyph glyph-name="eogonek" unicode="&#x119;" horiz-adv-x="380" 
d="M348 88q0 -50 -68 -78q-53 -22 -111 -22q-154 0 -154 175q0 72 35 160q43 108 104 108q55 0 118.5 -49t63.5 -102q0 -66 -59 -105q-52 -35 -124 -35q-14 0 -45 17q4 -95 56 -95q44 0 86.5 25t54.5 25q43 0 43 -24zM239 277q0 25 -14.5 47.5t-38.5 22.5q-33 0 -51 -29
q-15 -25 -15 -59q0 -19 13 -31t33 -12q73 0 73 61zM276 -174q0 -26 -40 -41h1q-12 -6 -24.5 -8.5t-24.5 -2.5q-21 0 -39.5 7t-33 19.5t-22.5 30t-8 37.5q0 55 62 108q15 13 33 13q40 0 40 -33q0 -14 -23 -46q-16 -24 -16 -37q0 -9 5 -18.5t11 -9.5l6 4l14 8.5t17 3.5
q42 0 42 -35z" />
    <glyph glyph-name="Ecaron" unicode="&#x11a;" horiz-adv-x="538" 
d="M489 75q0 -17 -7 -30q-9 -17 -24 -17q-4 0 -11.5 1.5t-11.5 1.5q-43 0 -124.5 -26t-124.5 -26q-161 0 -161 244q0 192 10 304q1 15 1 16q0 7 -2 20.5t-2 19.5q0 46 50 54l154 29q101 19 151 19q29 0 51 -10q30 -14 30 -39q0 -37 -49 -37q-6 0 -18.5 1.5t-18.5 1.5
q-81 0 -221 -36q-8 -1 -15 -3t-10 -15q-11 -48 -11 -188q0 -21 19 -21q26 0 75 13t75 13q29 0 67 -18q10 -32 10 -39q0 -25 -15 -27t-32 -4q-8 5 -22 5q-35 0 -84 -9q-41 -9 -83 -17q-6 -1 -10.5 -2t-6.5 -12q-2 -18 -2 -29q0 -77 3 -92q10 -58 55 -58q38 0 111 23.5
t116 23.5q68 0 88 -35zM402 843q0 -22 -63 -71q-61 -47 -83 -47q-12 0 -46.5 22t-90.5 69q-7 11 -7 24q0 32 40 32q11 0 24.5 -5.5t29.5 -18.5v1l24 -17.5t14 -8.5h-3l11 -4h1l3 -1q5 2 12 6l15 9q54 39 76 39q43 0 43 -29z" />
    <glyph glyph-name="ecaron" unicode="&#x11b;" horiz-adv-x="380" 
d="M348 88q0 -50 -68 -78q-53 -22 -111 -22q-154 0 -154 175q0 72 35 160q43 108 104 108q55 0 118.5 -49t63.5 -102q0 -66 -59 -105q-52 -35 -124 -35q-14 0 -45 17q4 -95 56 -95q44 0 86.5 25t54.5 25q43 0 43 -24zM239 277q0 25 -14.5 47.5t-38.5 22.5q-33 0 -51 -29
q-15 -25 -15 -59q0 -19 13 -31t33 -12q73 0 73 61zM326 590q0 -22 -63 -71q-61 -47 -83 -47q-12 0 -46.5 22t-90.5 69q-7 11 -7 24q0 32 40 32q11 0 24.5 -5.5t29.5 -18.5v1l24 -17.5t14 -8.5h-3l11 -4h1l3 -1q5 2 12 6l15 9q54 39 76 39q43 0 43 -29z" />
    <glyph glyph-name="Gcircumflex" unicode="&#x11c;" horiz-adv-x="551" 
d="M502 202q0 -87 -76 -155t-164 -68q-127 0 -188 99q-49 81 -49 217q0 138 59 250q71 137 196 137q62 0 108 -29q51 -33 63 -90q10 -47 10 -45q0 -132 -60 -132q-18 0 -33 12t-15 30q0 10 10.5 29t10.5 30q0 57 -14 78q-18 29 -71 29q-54 0 -100 -67q-38 -56 -50 -117
q-12 -65 -12 -120q0 -94 15 -136q24 -68 97 -89q22 -6 36 -6q36 0 76 30q35 28 54 63q11 21 13 53l-4 3q-71 0 -110 -17q-12 -6 -24 -13q-16 -7 -25 -7q-25 0 -39 21t-14 47q0 22 23 36q15 8 94 19q72 9 101 9q82 0 82 -101zM265 774h1h-1zM266 775l-2 1l-1 -1q1 0 2 -1z
M408 754q0 -32 -40 -32q-11 0 -24.5 5.5t-29.5 18.5v-1q-32 25 -38 26l-10 4l-2 1q-2 0 -1 -1l-26 -14q-54 -39 -76 -39q-43 0 -43 29q0 11 16.5 28.5t46.5 41.5q60 48 83 48q13 0 47 -22t89 -69q8 -13 8 -24z" />
    <glyph glyph-name="gcircumflex" unicode="&#x11d;" horiz-adv-x="407" 
d="M370 297q-2 -25 -13 -88q-10 -55 -10 -88q0 -30 3 -90t3 -90q0 -62 -12 -92q-14 -38 -53 -61.5t-81 -23.5q-44 0 -109 24q-78 28 -78 62q0 44 41 44q19 0 26 -11q13 -20 17.5 -24t32.5 -9.5t39 -5.5q90 0 90 113q0 33 -3 56q-43 -37 -103 -37q-25 0 -56 14t-47 33
q-31 36 -31 107q0 85 39 187q48 125 117 125q42 0 80 -39l56 -73q8 -10 25 -18q21 -10 27 -15zM269 237q0 15 -14 25q-6 92 -64 92q-33 0 -55 -93q-16 -71 -16 -123q0 -98 51 -98q48 0 76 78q22 60 22 119zM197 535h1h-1zM198 536l-2 1l-1 -1q1 0 2 -1zM340 515
q0 -32 -40 -32q-11 0 -24.5 5.5t-29.5 18.5v-1q-32 25 -38 26l-10 4l-2 1q-2 0 -1 -1l-26 -14q-54 -39 -76 -39q-43 0 -43 29q0 11 16.5 28.5t46.5 41.5q60 48 83 48q13 0 47 -22t89 -69q8 -13 8 -24z" />
    <glyph glyph-name="Gbreve" unicode="&#x11e;" horiz-adv-x="551" 
d="M502 202q0 -87 -76 -155t-164 -68q-127 0 -188 99q-49 81 -49 217q0 138 59 250q71 137 196 137q62 0 108 -29q51 -33 63 -90q10 -47 10 -45q0 -132 -60 -132q-18 0 -33 12t-15 30q0 10 10.5 29t10.5 30q0 57 -14 78q-18 29 -71 29q-54 0 -100 -67q-38 -56 -50 -117
q-12 -65 -12 -120q0 -94 15 -136q24 -68 97 -89q22 -6 36 -6q36 0 76 30q35 28 54 63q11 21 13 53l-4 3q-71 0 -110 -17q-12 -6 -24 -13q-16 -7 -25 -7q-25 0 -39 21t-14 47q0 22 23 36q15 8 94 19q72 9 101 9q82 0 82 -101zM402 809q0 -44 -55 -71q-35 -16 -84 -16
q-23 0 -44 4t-39 12q-56 27 -56 71q0 39 51 39q28 0 37.5 -10.5t13.5 -22.5l2 -5q8 -4 32 -4q26 0 38 5l11 17h-1q9 20 43 20q51 0 51 -39z" />
    <glyph glyph-name="gbreve" unicode="&#x11f;" horiz-adv-x="407" 
d="M370 297q-2 -25 -13 -88q-10 -55 -10 -88q0 -30 3 -90t3 -90q0 -62 -12 -92q-14 -38 -53 -61.5t-81 -23.5q-44 0 -109 24q-78 28 -78 62q0 44 41 44q19 0 26 -11q13 -20 17.5 -24t32.5 -9.5t39 -5.5q90 0 90 113q0 33 -3 56q-43 -37 -103 -37q-25 0 -56 14t-47 33
q-31 36 -31 107q0 85 39 187q48 125 117 125q42 0 80 -39l56 -73q8 -10 25 -18q21 -10 27 -15zM269 237q0 15 -14 25q-6 92 -64 92q-33 0 -55 -93q-16 -71 -16 -123q0 -98 51 -98q48 0 76 78q22 60 22 119zM334 570q0 -44 -55 -71q-35 -16 -84 -16q-23 0 -44 4t-39 12
q-56 27 -56 71q0 39 51 39q28 0 37.5 -10.5t13.5 -22.5l2 -5q8 -4 32 -4q26 0 38 5l11 17h-1q9 20 43 20q51 0 51 -39z" />
    <glyph glyph-name="Gdotaccent" unicode="&#x120;" horiz-adv-x="551" 
d="M502 202q0 -87 -76 -155t-164 -68q-127 0 -188 99q-49 81 -49 217q0 138 59 250q71 137 196 137q62 0 108 -29q51 -33 63 -90q10 -47 10 -45q0 -132 -60 -132q-18 0 -33 12t-15 30q0 10 10.5 29t10.5 30q0 57 -14 78q-18 29 -71 29q-54 0 -100 -67q-38 -56 -50 -117
q-12 -65 -12 -120q0 -94 15 -136q24 -68 97 -89q22 -6 36 -6q36 0 76 30q35 28 54 63q11 21 13 53l-4 3q-71 0 -110 -17q-12 -6 -24 -13q-16 -7 -25 -7q-25 0 -39 21t-14 47q0 22 23 36q15 8 94 19q72 9 101 9q82 0 82 -101zM337 776q0 -12 -7 -22t-17.5 -17t-24 -11
t-26.5 -4q-24 0 -45 12q-29 17 -29 42q0 27 29 44q22 11 45 11q13 0 26.5 -3.5t24 -10.5t17.5 -17.5t7 -23.5z" />
    <glyph glyph-name="gdotaccent" unicode="&#x121;" horiz-adv-x="407" 
d="M370 297q-2 -25 -13 -88q-10 -55 -10 -88q0 -30 3 -90t3 -90q0 -62 -12 -92q-14 -38 -53 -61.5t-81 -23.5q-44 0 -109 24q-78 28 -78 62q0 44 41 44q19 0 26 -11q13 -20 17.5 -24t32.5 -9.5t39 -5.5q90 0 90 113q0 33 -3 56q-43 -37 -103 -37q-25 0 -56 14t-47 33
q-31 36 -31 107q0 85 39 187q48 125 117 125q42 0 80 -39l56 -73q8 -10 25 -18q21 -10 27 -15zM269 237q0 15 -14 25q-6 92 -64 92q-33 0 -55 -93q-16 -71 -16 -123q0 -98 51 -98q48 0 76 78q22 60 22 119zM269 537q0 -12 -7 -22t-17.5 -17t-24 -11t-26.5 -4q-24 0 -45 12
q-29 17 -29 42q0 27 29 44q22 11 45 11q13 0 26.5 -3.5t24 -10.5t17.5 -17.5t7 -23.5z" />
    <glyph glyph-name="Gcommaaccent" unicode="&#x122;" horiz-adv-x="551" 
d="M502 202q0 -87 -76 -155t-164 -68q-127 0 -188 99q-49 81 -49 217q0 138 59 250q71 137 196 137q62 0 108 -29q51 -33 63 -90q10 -47 10 -45q0 -132 -60 -132q-18 0 -33 12t-15 30q0 10 10.5 29t10.5 30q0 57 -14 78q-18 29 -71 29q-54 0 -100 -67q-38 -56 -50 -117
q-12 -65 -12 -120q0 -94 15 -136q24 -68 97 -89q22 -6 36 -6q36 0 76 30q35 28 54 63q11 21 13 53l-4 3q-71 0 -110 -17q-12 -6 -24 -13q-16 -7 -25 -7q-25 0 -39 21t-14 47q0 22 23 36q15 8 94 19q72 9 101 9q82 0 82 -101zM326 -88q-73 -162 -105 -162q-18 0 -64 18l1 25
q34 31 54 72t30 93q20 10 28 10q6 0 15 -5t18 -11.5t15.5 -14.5t8.5 -14z" />
    <glyph glyph-name="Uni0123" unicode="&#x123;" horiz-adv-x="407" 
d="M370 297q-2 -25 -13 -88q-10 -55 -10 -88q0 -30 3 -90t3 -90q0 -62 -12 -92q-14 -38 -53 -61.5t-81 -23.5q-44 0 -109 24q-78 28 -78 62q0 44 41 44q19 0 26 -11q13 -20 17.5 -24t32.5 -9.5t39 -5.5q90 0 90 113q0 33 -3 56q-43 -37 -103 -37q-25 0 -56 14t-47 33
q-31 36 -31 107q0 85 39 187q48 125 117 125q42 0 80 -39l56 -73q8 -10 25 -18q21 -10 27 -15zM269 237q0 15 -14 25q-6 92 -64 92q-33 0 -55 -93q-16 -71 -16 -123q0 -98 51 -98q48 0 76 78q22 60 22 119zM312 629q-73 -162 -105 -162q-18 0 -64 18l1 25q34 31 54 72t30 93
q20 10 28 10q6 0 15 -5t18 -11.5t15.5 -14.5t8.5 -14z" />
    <glyph glyph-name="Hcircumflex" unicode="&#x124;" horiz-adv-x="632" 
d="M580 616q0 -9 -14 -20t-16 -16q-26 -49 -24 -193l1 -39q3 1 7 1q15 0 28.5 -17t13.5 -33q0 -12 -19 -17l-30 -6l2 -95q2 -61 13 -91q8 -25 8 -33q0 -20 -15 -36.5t-35 -16.5q-38 0 -50 40q-2 8 -9 70q-2 22 -2 53v41q-1 41 -5 67q-58 -2 -138 -17l-137 -26q4 -13 4 -108
q0 -76 23 -100q3 -5 3 -10q0 -26 -40 -26q-37 0 -58 23q-13 14 -25 208q-19 4 -30 23t-11 40q0 12 13 16.5l25 8.5q1 13 4 47q3 29 3 46q0 176 19 224q16 39 55 39q24 0 45 -15.5t21 -38.5q0 -12 -8 -30q-11 -24 -12 -28q-27 -84 -27 -200v-23q9 1 47 8q118 24 222 24
q3 147 8 190q17 144 69 144q31 0 51 -23.5t20 -54.5zM304 786h1h-1zM305 787l-2 1l-1 -1q1 0 2 -1zM447 766q0 -32 -40 -32q-11 0 -24.5 5.5t-29.5 18.5v-1q-32 25 -38 26l-10 4l-2 1q-2 0 -1 -1l-26 -14q-54 -39 -76 -39q-43 0 -43 29q0 11 16.5 28.5t46.5 41.5
q60 48 83 48q13 0 47 -22t89 -69q8 -13 8 -24z" />
    <glyph glyph-name="hcircumflex" unicode="&#x125;" horiz-adv-x="373" 
d="M342 -16q-19 -19 -50 -19q-21 0 -43 26q1 88 1 136q0 222 -65 222q-67 0 -67 -179q0 -10 1 -29v-29q0 -15 5 -45.5t5 -45.5q0 -13 -15.5 -23.5t-28.5 -10.5q-25 0 -42.5 20.5t-17.5 45.5l6 578q0 3 -1 8t-1 7q0 36 40 36q19 0 44 -17.5t25 -35.5q0 -22 -9.5 -65t-9.5 -65
q0 -28 2 -89q22 13 37 13q39 0 85 -19q59 -25 82 -81q17 -42 17 -116v-223zM185 774h1h-1zM186 775l-2 1l-1 -1q1 0 2 -1zM328 754q0 -32 -40 -32q-11 0 -24.5 5.5t-29.5 18.5v-1q-32 25 -38 26l-10 4l-2 1q-2 0 -1 -1l-26 -14q-54 -39 -76 -39q-43 0 -43 29q0 11 16.5 28.5
t46.5 41.5q60 48 83 48q13 0 47 -22t89 -69q8 -13 8 -24z" />
    <glyph glyph-name="Itilde" unicode="&#x128;" horiz-adv-x="203" 
d="M169 623q0 -5 -9 -22q-4 -8 -8 -45q-21 -224 -21 -393q0 -44 8 -71q7 -23 29 -63q1 -2 1 -6q0 -21 -49 -21h-9q-51 1 -62 82q-14 99 -14 273q0 41 1.5 123.5t1.5 124.5q0 23 24 44t47 21q18 0 39 -15t21 -32zM252 782q0 -27 -50 -52q-42 -20 -66 -20q-25 0 -54 14
q-11 6 -17.5 8t-9.5 2q-8 0 -21 -8q-11 -5 -20 -8.5t-14 -3.5q-48 0 -48 38q0 29 51 52q37 17 63 17q14 0 27.5 -4t27.5 -11q10 -6 15.5 -8t6.5 -2q7 0 22 9q24 16 39 16q48 0 48 -39z" />
    <glyph glyph-name="itilde" unicode="&#x129;" horiz-adv-x="164" 
d="M132 375q0 -17 -8 -49.5t-8 -49.5v-201q0 -19 11 -59q-15 -22 -33 -22q-69 0 -69 61v346q28 14 45 14t39.5 -13t22.5 -27zM228 528q0 -27 -50 -52q-42 -20 -66 -20q-25 0 -54 14q-11 6 -17.5 8t-9.5 2q-8 0 -21 -8q-11 -5 -20 -8.5t-14 -3.5q-48 0 -48 38q0 29 51 52
q37 17 63 17q14 0 27.5 -4t27.5 -11q10 -6 15.5 -8t6.5 -2q7 0 22 9q24 16 39 16q48 0 48 -39z" />
    <glyph glyph-name="Imacron" unicode="&#x12a;" horiz-adv-x="203" 
d="M169 623q0 -5 -9 -22q-4 -8 -8 -45q-21 -224 -21 -393q0 -44 8 -71q7 -23 29 -63q1 -2 1 -6q0 -21 -49 -21h-9q-51 1 -62 82q-14 99 -14 273q0 41 1.5 123.5t1.5 124.5q0 23 24 44t47 21q18 0 39 -15t21 -32zM-32 717q-1 4 -1 8.5v9.5q0 8 1 18t6 15q16 2 42 4.5t56 5
t63 4.5t63 2q26 0 33 -9.5t7 -29.5q0 -16 -5.5 -25.5t-16.5 -9.5t-25.5 0.5t-30.5 1.5t-32.5 1.5t-30.5 0.5q-29 0 -48.5 -1.5t-32.5 -4l-21 -4t-13 -1.5t-9 3.5t-5 10.5z" />
    <glyph glyph-name="imacron" unicode="&#x12b;" horiz-adv-x="164" 
d="M132 375q0 -17 -8 -49.5t-8 -49.5v-201q0 -19 11 -59q-15 -22 -33 -22q-69 0 -69 61v346q28 14 45 14t39.5 -13t22.5 -27zM-56 463q-1 4 -1 8.5v9.5q0 8 1 18t6 15q16 2 42 4.5t56 5t63 4.5t63 2q26 0 33 -9.5t7 -29.5q0 -16 -5.5 -25.5t-16.5 -9.5t-25.5 0.5t-30.5 1.5
t-32.5 1.5t-30.5 0.5q-29 0 -48.5 -1.5t-32.5 -4l-21 -4t-13 -1.5t-9 3.5t-5 10.5z" />
    <glyph glyph-name="Ibreve" unicode="&#x12c;" horiz-adv-x="203" 
d="M169 623q0 -5 -9 -22q-4 -8 -8 -45q-21 -224 -21 -393q0 -44 8 -71q7 -23 29 -63q1 -2 1 -6q0 -21 -49 -21h-9q-51 1 -62 82q-14 99 -14 273q0 41 1.5 123.5t1.5 124.5q0 23 24 44t47 21q18 0 39 -15t21 -32zM233 788q0 -38 -48 -60q-38 -17 -82 -17t-82 17
q-48 22 -48 60q0 25 35 25q23 0 29 -11.5t11 -22.5q13 -11 52 -11q43 0 57 11q1 2 12 22q6 12 29 12q35 0 35 -25z" />
    <glyph glyph-name="ibreve" unicode="&#x12d;" horiz-adv-x="164" 
d="M132 375q0 -17 -8 -49.5t-8 -49.5v-201q0 -19 11 -59q-15 -22 -33 -22q-69 0 -69 61v346q28 14 45 14t39.5 -13t22.5 -27zM209 533q0 -38 -48 -60q-38 -17 -82 -17t-82 17q-48 22 -48 60q0 25 35 25q23 0 29 -11.5t11 -22.5q13 -11 52 -11q43 0 57 11q1 2 12 22
q6 12 29 12q35 0 35 -25z" />
    <glyph glyph-name="Uni012E" unicode="&#x12e;" horiz-adv-x="203" 
d="M169 623q0 -5 -9 -22q-4 -8 -8 -45q-21 -224 -21 -393q0 -44 8 -71q7 -23 29 -63q1 -2 1 -6q0 -21 -49 -21h-9q-51 1 -62 82q-14 99 -14 273q0 41 1.5 123.5t1.5 124.5q0 23 24 44t47 21q18 0 39 -15t21 -32zM197 -160q0 -26 -40 -41h1q-12 -6 -24.5 -8.5t-24.5 -2.5
q-21 0 -39.5 7t-33 19.5t-22.5 30t-8 37.5q0 55 62 108q15 13 33 13q40 0 40 -33q0 -14 -23 -46q-16 -24 -16 -37q0 -9 5 -18.5t11 -9.5l6 4l14 8.5t17 3.5q42 0 42 -35z" />
    <glyph glyph-name="Uni012F" unicode="&#x12f;" horiz-adv-x="163" 
d="M141 525q0 -22 -15 -36t-37 -14q-26 0 -48.5 18t-22.5 44q0 22 15.5 36t38.5 14q27 0 48 -17.5t21 -44.5zM132 385q0 -18 -8 -51t-8 -51v-206q0 -19 11 -60q-15 -23 -33 -23q-63 0 -69 63q-10 117 -10 176q0 99 8 166q-1 5 -1 10q0 18 28 18q25 0 50 -10q32 -11 32 -32z
M173 -168q0 -26 -40 -41h1q-12 -6 -24.5 -8.5t-24.5 -2.5q-21 0 -39.5 7t-33 19.5t-22.5 30t-8 37.5q0 55 62 108q15 13 33 13q40 0 40 -33q0 -14 -23 -46q-16 -24 -16 -37q0 -9 5 -18.5t11 -9.5l6 4l14 8.5t17 3.5q42 0 42 -35z" />
    <glyph glyph-name="Idotaccent" unicode="&#x130;" horiz-adv-x="203" 
d="M169 623q0 -5 -9 -22q-4 -8 -8 -45q-21 -224 -21 -393q0 -44 8 -71q7 -23 29 -63q1 -2 1 -6q0 -21 -49 -21h-9q-51 1 -62 82q-14 99 -14 273q0 41 1.5 123.5t1.5 124.5q0 23 24 44t47 21q18 0 39 -15t21 -32zM162 752q0 -19 -19.5 -30t-40.5 -11t-39 10q-21 12 -21 31
q0 20 21 32q18 10 39 10t40.5 -11t19.5 -31z" />
    <glyph glyph-name="dotlessi" unicode="&#x131;" horiz-adv-x="164" 
d="M132 375q0 -17 -8 -49.5t-8 -49.5v-201q0 -19 11 -59q-15 -22 -33 -22q-69 0 -69 61v346q28 14 45 14t39.5 -13t22.5 -27z" />
    <glyph glyph-name="IJ" unicode="&#x132;" horiz-adv-x="750" 
d="M169 623q0 -5 -9 -22q-4 -8 -8 -45q-21 -224 -21 -393q0 -44 8 -71q7 -23 29 -63q1 -2 1 -6q0 -21 -49 -21h-9q-51 1 -62 82q-14 99 -14 273q0 41 1.5 123.5t1.5 124.5q0 23 24 44t47 21q18 0 39 -15t21 -32zM702 619q0 -35 -40 -35q-9 0 -25.5 2t-25.5 2q-13 0 -13 -10
q0 -14 1.5 -43t1.5 -44q0 -503 -190 -503q-76 0 -139 80q-59 75 -59 153q0 26 12 58q15 39 36 39q33 0 50 -31q15 -25 15 -60q0 -11 -1 -32.5t-1 -31.5q0 -28 26.5 -58t54.5 -30q102 0 102 273q0 48 -8 204q-12 -3 -63 -29q-46 -24 -56 -24q-20 0 -33 17t-13 37q0 33 69 56
l99 30q10 38 45 38q10 0 38 -17q8 1 24.5 5t25.5 4q23 0 45 -14t22 -36z" />
    <glyph glyph-name="ij" unicode="&#x133;" horiz-adv-x="379" 
d="M141 525q0 -22 -15 -36t-37 -14q-26 0 -48.5 18t-22.5 44q0 22 15.5 36t38.5 14q27 0 48 -17.5t21 -44.5zM132 385q0 -18 -8 -51t-8 -51v-206q0 -19 11 -60q-15 -23 -33 -23q-63 0 -69 63q-10 117 -10 176q0 99 8 166q-1 5 -1 10q0 18 28 18q25 0 50 -10q32 -11 32 -32z
M354 476q0 -22 -18.5 -36.5t-40.5 -14.5q-11 0 -33 18q-18 15 -28 27q-2 10 -2 21q0 48 50 48q28 0 50 -18t22 -45zM351 384q-22 -61 -22 -94q0 -64 3 -193.5t3 -194.5q0 -73 -38 -126q-42 -59 -112 -59q-37 0 -108 35q-78 37 -78 68q0 36 41 36q11 0 23 -5q42 -50 101 -50
q84 0 84 153q0 5 -7 426l16 19q34 9 47 9q23 0 47 -24z" />
    <glyph glyph-name="Jcircumflex" unicode="&#x134;" horiz-adv-x="547" 
d="M499 619q0 -35 -40 -35q-9 0 -25.5 2t-25.5 2q-13 0 -13 -10q0 -14 1.5 -43t1.5 -44q0 -503 -190 -503q-76 0 -139 80q-59 75 -59 153q0 26 12 58q15 39 36 39q33 0 50 -31q15 -25 15 -60q0 -11 -1 -32.5t-1 -31.5q0 -28 26.5 -58t54.5 -30q102 0 102 273q0 48 -8 204
q-12 -3 -63 -29q-46 -24 -56 -24q-20 0 -33 17t-13 37q0 33 69 56l99 30q10 38 45 38q10 0 38 -17q8 1 24.5 5t25.5 4q23 0 45 -14t22 -36zM391 735q0 -18 -23 -18q-17 0 -46 22q-34 25 -46 30q-7 2 -20 7q-15 -5 -42 -20q-53 -39 -70 -39q-26 0 -26 14q0 16 60 63.5
t78 47.5q20 0 130 -91q5 -8 5 -16z" />
    <glyph glyph-name="Kcommaaccent" unicode="&#x136;" horiz-adv-x="601" 
d="M575 80q0 -27 -33 -43q-27 -12 -57 -12q-139 0 -280 260q-84 -97 -84 -132q0 -92 23 -131l3 -28q-22 -25 -44 -25q-33 0 -55.5 52.5t-22.5 370.5q0 182 13 253q8 42 46 42q24 0 54 -19t30 -41q0 -15 -9 -20l-16 -9q-7 -8 -16 -139q-6 -102 -8 -156q269 369 338 369
q11 0 25 -6q11 -14 21 -29q13 -18 13 -32q0 -13 -9.5 -22.5t-22.5 -9.5q-8 0 -21 6l-3 3q-24 -3 -97.5 -91t-73.5 -115q0 -58 67 -166q70 -115 123 -115q7 0 26.5 8.5t32.5 8.5q37 0 37 -32zM343 -59q-73 -162 -105 -162q-18 0 -64 18l1 25q34 31 54 72t30 93q20 10 28 10
q6 0 15 -5t18 -11.5t15.5 -14.5t8.5 -14z" />
    <glyph glyph-name="kcommaaccent" unicode="&#x137;" horiz-adv-x="419" 
d="M411 -31q-38 -28 -60 -28q-29 0 -84 60l-77 85q-22 26 -70 73l-3 -2v-88q0 -8 6.5 -23.5t6.5 -24.5q0 -14 -14.5 -24.5t-29.5 -10.5q-26 0 -43 17t-17 43v132q0 12 3.5 36.5t3.5 36.5v269q0 61 -9 98q-4 17 -4 26q0 19 23 34q20 14 40 14q15 0 32.5 -11.5t17.5 -25.5
q0 -4 -6 -28t-6 -74q0 -16 -3 -267q4 4 108 99q86 80 101 80q53 0 51 -65v-10q-43 -25 -111 -79q-86 -67 -86 -89q0 -2 54 -63l64 -72q60 -63 112 -86v-32zM240 -59q-73 -162 -105 -162q-18 0 -64 18l1 25q34 31 54 72t30 93q20 10 28 10q6 0 15 -5t18 -11.5t15.5 -14.5
t8.5 -14z" />
    <glyph glyph-name="Lacute" unicode="&#x139;" horiz-adv-x="459" 
d="M414 26q-108 -39 -228 -39q-94 0 -132 66q-29 51 -29 152q0 59 9.5 175t9.5 175q0 11 -2 35t-2 36t2 27q20 24 49 24q28 0 43 -36q12 -28 12 -60q0 -68 -13 -202t-13 -201q0 -118 67 -118q30 0 86 20.5t86 20.5q28 0 43 -25q12 -20 12 -50zM318 817q-5 -11 -11.5 -18.5
t-14.5 -10.5q-5 -2 -22 -11.5t-46 -27.5q-56 -32 -74 -32q-14 0 -23 8t-8 24v12q15 18 31 34.5l33 33.5q52 49 79 49q9 0 18.5 -4.5t17.5 -12t14 -16.5t8 -18z" />
    <glyph glyph-name="lacute" unicode="&#x13a;" horiz-adv-x="161" 
d="M134 27q0 -18 -14.5 -30.5t-33.5 -12.5q-63 0 -63 165q0 75 1.5 225t1.5 225q0 12 -3 35t-3 34q33 22 52 22q22 0 42 -14.5t20 -36.5q0 -11 -5 -26q-7 -24 -8 -26q-13 -62 -13 -176v-186q3 -126 21 -176q5 -14 5 -22zM176 830q-5 -11 -11.5 -18.5t-14.5 -10.5
q-5 -2 -22 -11.5t-46 -27.5q-56 -32 -74 -32q-14 0 -23 8t-8 24v12q15 18 31 34.5l33 33.5q52 49 79 49q9 0 18.5 -4.5t17.5 -12t14 -16.5t8 -18z" />
    <glyph glyph-name="Lcommaaccent" unicode="&#x13b;" horiz-adv-x="459" 
d="M414 26q-108 -39 -228 -39q-94 0 -132 66q-29 51 -29 152q0 59 9.5 175t9.5 175q0 11 -2 35t-2 36t2 27q20 24 49 24q28 0 43 -36q12 -28 12 -60q0 -68 -13 -202t-13 -201q0 -118 67 -118q30 0 86 20.5t86 20.5q28 0 43 -25q12 -20 12 -50zM283 -79q-73 -162 -105 -162
q-18 0 -64 18l1 25q34 31 54 72t30 93q20 10 28 10q6 0 15 -5t18 -11.5t15.5 -14.5t8.5 -14z" />
    <glyph glyph-name="lcommaaccent" unicode="&#x13c;" horiz-adv-x="161" 
d="M134 27q0 -18 -14.5 -30.5t-33.5 -12.5q-63 0 -63 165q0 75 1.5 225t1.5 225q0 12 -3 35t-3 34q33 22 52 22q22 0 42 -14.5t20 -36.5q0 -11 -5 -26q-7 -24 -8 -26q-13 -62 -13 -176v-186q3 -126 21 -176q5 -14 5 -22zM113 -79q-73 -162 -105 -162q-18 0 -64 18l1 25
q34 31 54 72t30 93q20 10 28 10q6 0 15 -5t18 -11.5t15.5 -14.5t8.5 -14z" />
    <glyph glyph-name="Lcaron" unicode="&#x13d;" horiz-adv-x="459" 
d="M414 26q-108 -39 -228 -39q-94 0 -132 66q-29 51 -29 152q0 59 9.5 175t9.5 175q0 11 -2 35t-2 36t2 27q20 24 49 24q28 0 43 -36q12 -28 12 -60q0 -68 -13 -202t-13 -201q0 -118 67 -118q30 0 86 20.5t86 20.5q28 0 43 -25q12 -20 12 -50zM364 835q0 -22 -63 -71
q-61 -47 -83 -47q-12 0 -46.5 22t-90.5 69q-7 11 -7 24q0 32 40 32q11 0 24.5 -5.5t29.5 -18.5v1l24 -17.5t14 -8.5h-3l11 -4h1l3 -1q5 2 12 6l15 9q54 39 76 39q43 0 43 -29z" />
    <glyph glyph-name="lcaron" unicode="&#x13e;" horiz-adv-x="170" 
d="M257 692q2 -177 -27 -191q-17 -7 -66 -10l-10 23q18 42 19 87.5t-12 97.5q14 17 22 21q5 2 15.5 1.5t21 -3t20 -7t13.5 -8.5zM134 27q0 -18 -14.5 -30.5t-33.5 -12.5q-63 0 -63 165q0 75 1.5 225t1.5 225q0 12 -3 35t-3 34q33 22 52 22q22 0 42 -14.5t20 -36.5
q0 -11 -5 -26q-7 -24 -8 -26q-13 -62 -13 -176v-186q3 -126 21 -176q5 -14 5 -22z" />
    <glyph glyph-name="u013F" unicode="&#x13f;" horiz-adv-x="459" 
d="M414 26q-108 -39 -228 -39q-94 0 -132 66q-29 51 -29 152q0 59 9.5 175t9.5 175q0 11 -2 35t-2 36t2 27q20 24 49 24q28 0 43 -36q12 -28 12 -60q0 -68 -13 -202t-13 -201q0 -118 67 -118q30 0 86 20.5t86 20.5q28 0 43 -25q12 -20 12 -50zM312 347q0 -19 -19.5 -30
t-40.5 -11t-39 10q-21 12 -21 31q0 20 21 32q18 10 39 10t40.5 -11t19.5 -31z" />
    <glyph glyph-name="u0140" unicode="&#x140;" horiz-adv-x="305" 
d="M134 27q0 -18 -14.5 -30.5t-33.5 -12.5q-63 0 -63 165q0 75 1.5 225t1.5 225q0 12 -3 35t-3 34q33 22 52 22q22 0 42 -14.5t20 -36.5q0 -11 -5 -26q-7 -24 -8 -26q-13 -62 -13 -176v-186q3 -126 21 -176q5 -14 5 -22zM286 346q0 -19 -19.5 -30t-40.5 -11t-39 10
q-21 12 -21 31q0 20 21 32q18 10 39 10t40.5 -11t19.5 -31z" />
    <glyph glyph-name="Lslash" unicode="&#x141;" horiz-adv-x="495" 
d="M404 391q0 -9 -8 -18t-28 -9q-5 0 -12 1t-16 1q-7 0 -19.5 -2.5t-33.5 -8.5t-51.5 -16l-72.5 -24q-4 -44 -5.5 -78t-1.5 -59q0 -118 67 -118q13 0 36.5 6.5l49.5 14l49.5 14t36.5 6.5q25 0 40 -20t15 -55q-108 -39 -228 -39q-85 0 -123 51.5t-38 166.5v24.5t1 30.5
q-15 0 -26 6.5t-19 16.5t-12 21.5t-4 22.5q0 5 8 9t19 8t22 7l18 5q0 6 0.5 12t1.5 12q5 58 7.5 102t2.5 73q0 4 -0.5 14t-1.5 21t-1.5 21t-0.5 15q0 6 0.5 12.5t1.5 14.5q19 24 49 24q12 0 22.5 -8.5t17.5 -22t11 -30.5t4 -35q0 -66 -12 -187l66.5 25.5l44 17t29 9.5
t22.5 3q32 0 52 -13t20 -45z" />
    <glyph glyph-name="lslash" unicode="&#x142;" horiz-adv-x="314" 
d="M219 27q0 -18 -14.5 -30.5t-33.5 -12.5q-23 0 -36 17.5t-19 53t-7.5 89t-1.5 125.5q0 19 0.5 39t0.5 42q-10 -8 -16 -14.5t-10 -11.5t-8 -8t-10 -3q-14 0 -25.5 8t-19 19t-11.5 22t-4 17q0 3 14.5 11t33 16.5l35.5 16t22 10.5q1 54 1.5 95t0.5 71q0 6 -1 15.5l-2 19.5
t-2 19t-1 15q32 22 52 22q22 0 42 -14.5t20 -36.5q0 -14 -4 -26l-9 -26q-9 -42 -12 -110q21 12 31 16t23 4q35 0 50 -19.5t15 -39.5q0 -6 -6.5 -14t-20.5 -8q-4 0 -9 0.5t-11 1.5q-14 0 -73 -25v-168q0 -63 6 -107t15 -69q5 -15 5 -22z" />
    <glyph glyph-name="Nacute" unicode="&#x143;" horiz-adv-x="555" 
d="M506 655q0 -11 -9 -28q-11 -22 -13 -27q-29 -91 -29 -149l-3 -287q-1 -44 -20 -90q-25 -58 -62 -58q-55 0 -109 92q-39 68 -79 188l-47 156q-21 -170 -21 -228q0 -128 15.5 -147t15.5 -28q0 -19 -20 -33.5t-40 -14.5q-28 0 -46 59q-14 46 -14 84q0 17 1 50.5t1 50.5
q0 41 10 122t10 122v122q0 2 -1.5 6t-1.5 6q0 20 27 33q22 11 44 11q51 0 73 -33q6 -11 11 -46l6 -49q12 -71 63 -228q61 -185 91 -185q11 0 11 28q0 8 -2.5 26t-2.5 28l10 271q3 61 21 120q26 83 70 83q14 0 39 -18q1 -5 1 -9zM364 822q-5 -11 -11.5 -18.5t-14.5 -10.5
q-5 -2 -22 -11.5t-46 -27.5q-56 -32 -74 -32q-14 0 -23 8t-8 24v12q15 18 31 34.5l33 33.5q52 49 79 49q9 0 18.5 -4.5t17.5 -12t14 -16.5t8 -18z" />
    <glyph glyph-name="nacute" unicode="&#x144;" horiz-adv-x="426" 
d="M382 7q-15 -23 -37 -23q-17 0 -56 20v12q0 22 1.5 65t1.5 63q0 214 -64 214q-18 0 -41 -28q-71 -86 -71 -207q0 -17 6.5 -50.5t6.5 -50.5q0 -14 -13 -23t-28 -9q-60 0 -60 76v209q0 8 2 23.5t2 23.5q0 12 -3.5 35t-3.5 34q0 16 18.5 30.5t33.5 14.5q22 0 45 -25l-3 -40
q37 59 91 59q35 0 74 -24t57 -54q41 -76 41 -200v-145zM302 577q-5 -11 -11.5 -18.5t-14.5 -10.5q-5 -2 -22 -11.5t-46 -27.5q-56 -32 -74 -32q-14 0 -23 8t-8 24v12q15 18 31 34.5l33 33.5q52 49 79 49q9 0 18.5 -4.5t17.5 -12t14 -16.5t8 -18z" />
    <glyph glyph-name="Ncommaaccent" unicode="&#x145;" horiz-adv-x="555" 
d="M506 655q0 -11 -9 -28q-11 -22 -13 -27q-29 -91 -29 -149l-3 -287q-1 -44 -20 -90q-25 -58 -62 -58q-55 0 -109 92q-39 68 -79 188l-47 156q-21 -170 -21 -228q0 -128 15.5 -147t15.5 -28q0 -19 -20 -33.5t-40 -14.5q-28 0 -46 59q-14 46 -14 84q0 17 1 50.5t1 50.5
q0 41 10 122t10 122v122q0 2 -1.5 6t-1.5 6q0 20 27 33q22 11 44 11q51 0 73 -33q6 -11 11 -46l6 -49q12 -71 63 -228q61 -185 91 -185q11 0 11 28q0 8 -2.5 26t-2.5 28l10 271q3 61 21 120q26 83 70 83q14 0 39 -18q1 -5 1 -9zM303 -79q-73 -162 -105 -162q-18 0 -64 18
l1 25q34 31 54 72t30 93q20 10 28 10q6 0 15 -5t18 -11.5t15.5 -14.5t8.5 -14z" />
    <glyph glyph-name="ncedilla" unicode="&#x146;" horiz-adv-x="426" 
d="M382 7q-15 -23 -37 -23q-17 0 -56 20v12q0 22 1.5 65t1.5 63q0 214 -64 214q-18 0 -41 -28q-71 -86 -71 -207q0 -17 6.5 -50.5t6.5 -50.5q0 -14 -13 -23t-28 -9q-60 0 -60 76v209q0 8 2 23.5t2 23.5q0 12 -3.5 35t-3.5 34q0 16 18.5 30.5t33.5 14.5q22 0 45 -25l-3 -40
q37 59 91 59q35 0 74 -24t57 -54q41 -76 41 -200v-145zM273 -79q-73 -162 -105 -162q-18 0 -64 18l1 25q34 31 54 72t30 93q20 10 28 10q6 0 15 -5t18 -11.5t15.5 -14.5t8.5 -14z" />
    <glyph glyph-name="Ncaron" unicode="&#x147;" horiz-adv-x="555" 
d="M506 655q0 -11 -9 -28q-11 -22 -13 -27q-29 -91 -29 -149l-3 -287q-1 -44 -20 -90q-25 -58 -62 -58q-55 0 -109 92q-39 68 -79 188l-47 156q-21 -170 -21 -228q0 -128 15.5 -147t15.5 -28q0 -19 -20 -33.5t-40 -14.5q-28 0 -46 59q-14 46 -14 84q0 17 1 50.5t1 50.5
q0 41 10 122t10 122v122q0 2 -1.5 6t-1.5 6q0 20 27 33q22 11 44 11q51 0 73 -33q6 -11 11 -46l6 -49q12 -71 63 -228q61 -185 91 -185q11 0 11 28q0 8 -2.5 26t-2.5 28l10 271q3 61 21 120q26 83 70 83q14 0 39 -18q1 -5 1 -9zM410 840q0 -22 -63 -71q-61 -47 -83 -47
q-12 0 -46.5 22t-90.5 69q-7 11 -7 24q0 32 40 32q11 0 24.5 -5.5t29.5 -18.5v1l24 -17.5t14 -8.5h-3l11 -4h1l3 -1q5 2 12 6l15 9q54 39 76 39q43 0 43 -29z" />
    <glyph glyph-name="ncaron" unicode="&#x148;" horiz-adv-x="426" 
d="M382 7q-15 -23 -37 -23q-17 0 -56 20v12q0 22 1.5 65t1.5 63q0 214 -64 214q-18 0 -41 -28q-71 -86 -71 -207q0 -17 6.5 -50.5t6.5 -50.5q0 -14 -13 -23t-28 -9q-60 0 -60 76v209q0 8 2 23.5t2 23.5q0 12 -3.5 35t-3.5 34q0 16 18.5 30.5t33.5 14.5q22 0 45 -25l-3 -40
q37 59 91 59q35 0 74 -24t57 -54q41 -76 41 -200v-145zM348 595q0 -22 -63 -71q-61 -47 -83 -47q-12 0 -46.5 22t-90.5 69q-7 11 -7 24q0 32 40 32q11 0 24.5 -5.5t29.5 -18.5v1l24 -17.5t14 -8.5h-3l11 -4h1l3 -1q5 2 12 6l15 9q54 39 76 39q43 0 43 -29z" />
    <glyph glyph-name="napostrophe" unicode="&#x149;" horiz-adv-x="612" 
d="M14 606q0 23 20.5 41t47.5 18q29 0 50 -26t21 -65q0 -42 -8 -69t-28 -52q-20 -26 -45 -44.5t-45 -18.5q-16 2 -23.5 12.5t3.5 24.5q20 11 37.5 27t25.5 41q5 14 3.5 30.5t-18.5 27.5t-29 22t-12 31zM568 7q-15 -23 -37 -23q-17 0 -56 20v12q0 22 1.5 65t1.5 63
q0 214 -64 214q-18 0 -41 -28q-71 -86 -71 -207q0 -17 6.5 -50.5t6.5 -50.5q0 -14 -13 -23t-28 -9q-60 0 -60 76v209q0 8 2 23.5t2 23.5q0 12 -3.5 35t-3.5 34q0 16 18.5 30.5t33.5 14.5q22 0 45 -25l-3 -40q37 59 91 59q35 0 74 -24t57 -54q41 -76 41 -200v-145z" />
    <glyph glyph-name="Omacron" unicode="&#x14c;" horiz-adv-x="629" 
d="M577 339q0 -144 -71 -244q-79 -113 -217 -113q-39 0 -84 15q-100 32 -143 111q-37 68 -37 182q0 148 71 261q82 133 222 133q123 0 196 -115q63 -99 63 -230zM481 348q0 208 -134 249q-14 4 -32 4q-56 0 -112 -50q-89 -81 -89 -289q0 -19 8 -53q17 -77 51 -111
q39 -40 114 -40q102 0 154 99q40 78 40 191zM167 731q-1 4 -1 8.5v9.5q0 8 1 18t6 15q16 2 42 4.5t56 5t63 4.5t63 2q26 0 33 -9.5t7 -29.5q0 -16 -5.5 -25.5t-16.5 -9.5t-25.5 0.5t-30.5 1.5t-32.5 1.5t-30.5 0.5q-29 0 -48.5 -1.5t-32.5 -4l-21 -4t-13 -1.5t-9 3.5
t-5 10.5z" />
    <glyph glyph-name="omacron" unicode="&#x14d;" horiz-adv-x="415" 
d="M377 197q0 -90 -45 -154q-52 -73 -138 -73q-88 0 -133 60q-41 53 -41 144q0 90 45 170q52 95 135 95q26 0 65 -23q112 -67 112 -219zM289 199q0 153 -74 153q-53 0 -80 -65q-20 -49 -20 -111q0 -133 79 -133q51 0 76 55q19 42 19 101zM64 487q-1 4 -1 8.5v9.5q0 8 1 18
t6 15q16 2 42 4.5t56 5t63 4.5t63 2q26 0 33 -9.5t7 -29.5q0 -16 -5.5 -25.5t-16.5 -9.5t-25.5 0.5t-30.5 1.5t-32.5 1.5t-30.5 0.5q-29 0 -48.5 -1.5t-32.5 -4l-21 -4t-13 -1.5t-9 3.5t-5 10.5z" />
    <glyph glyph-name="Obreve" unicode="&#x14e;" horiz-adv-x="629" 
d="M577 339q0 -144 -71 -244q-79 -113 -217 -113q-39 0 -84 15q-100 32 -143 111q-37 68 -37 182q0 148 71 261q82 133 222 133q123 0 196 -115q63 -99 63 -230zM481 348q0 208 -134 249q-14 4 -32 4q-56 0 -112 -50q-89 -81 -89 -289q0 -19 8 -53q17 -77 51 -111
q39 -40 114 -40q102 0 154 99q40 78 40 191zM440 811q0 -44 -55 -71q-35 -16 -84 -16q-23 0 -44 4t-39 12q-56 27 -56 71q0 39 51 39q28 0 37.5 -10.5t13.5 -22.5l2 -5q8 -4 32 -4q26 0 38 5l11 17h-1q9 20 43 20q51 0 51 -39z" />
    <glyph glyph-name="obreve" unicode="&#x14f;" horiz-adv-x="415" 
d="M377 197q0 -90 -45 -154q-52 -73 -138 -73q-88 0 -133 60q-41 53 -41 144q0 90 45 170q52 95 135 95q26 0 65 -23q112 -67 112 -219zM289 199q0 153 -74 153q-53 0 -80 -65q-20 -49 -20 -111q0 -133 79 -133q51 0 76 55q19 42 19 101zM337 567q0 -44 -55 -71
q-35 -16 -84 -16q-23 0 -44 4t-39 12q-56 27 -56 71q0 39 51 39q28 0 37.5 -10.5t13.5 -22.5l2 -5q8 -4 32 -4q26 0 38 5l11 17h-1q9 20 43 20q51 0 51 -39z" />
    <glyph glyph-name="Ohungarumlaut" unicode="&#x150;" horiz-adv-x="629" 
d="M577 339q0 -144 -71 -244q-79 -113 -217 -113q-39 0 -84 15q-100 32 -143 111q-37 68 -37 182q0 148 71 261q82 133 222 133q123 0 196 -115q63 -99 63 -230zM481 348q0 208 -134 249q-14 4 -32 4q-56 0 -112 -50q-89 -81 -89 -289q0 -19 8 -53q17 -77 51 -111
q39 -40 114 -40q102 0 154 99q40 78 40 191zM422 851q0 -17 -17 -32q-3 -1 -4 -1.5t-6 -4.5l-13.5 -18.5t-22.5 -28.5q-36 -42 -55 -42q-22 0 -34 32q9 45 28 80v-1q27 60 64 60t60 -34v-10zM311 851q0 -17 -17 -32q-4 -1 -4.5 -1.5t-5.5 -4.5q-40 -72 -71 -72q-22 0 -34 31
l17 69q9 26 22.5 40t31.5 14q38 0 61 -34v-10z" />
    <glyph glyph-name="ohungarumlaut" unicode="&#x151;" horiz-adv-x="415" 
d="M377 197q0 -90 -45 -154q-52 -73 -138 -73q-88 0 -133 60q-41 53 -41 144q0 90 45 170q52 95 135 95q26 0 65 -23q112 -67 112 -219zM289 199q0 153 -74 153q-53 0 -80 -65q-20 -49 -20 -111q0 -133 79 -133q51 0 76 55q19 42 19 101zM319 607q0 -17 -17 -32
q-3 -1 -4 -1.5t-6 -4.5l-13.5 -18.5t-22.5 -28.5q-36 -42 -55 -42q-22 0 -34 32q9 45 28 80v-1q27 60 64 60t60 -34v-10zM208 607q0 -17 -17 -32q-4 -1 -4.5 -1.5t-5.5 -4.5q-40 -72 -71 -72q-22 0 -34 31l17 69q9 26 22.5 40t31.5 14q38 0 61 -34v-10z" />
    <glyph glyph-name="OE" unicode="&#x152;" horiz-adv-x="938" 
d="M872 58q-13 -30 -34 -30q-4 0 -12 1.5t-12 1.5q-40 0 -114.5 -26t-114.5 -26q-82 0 -123 66q-73 -63 -173 -63q-37 0 -83 14q-101 32 -144 112q-37 68 -37 182q0 148 71 261q82 133 222 133q81 0 144 -53q7 4 19 6q23 3 135 30q83 20 136 20q66 0 119 -60
q-29 -28 -52 -28q-6 0 -18.5 1.5t-18.5 1.5q-43 0 -129 -16q-92 -17 -124 -34q-9 -111 -13 -214q28 1 87 14t90 13q30 0 68 -18l10 -37q0 -8 -17.5 -20.5t-30.5 -18.5q-16 11 -33 11q-86 0 -176 -26q0 -13 1 -46q2 -29 2 -46q0 -101 56 -101q34 0 96.5 23.5t96.5 23.5
q76 0 106 -52zM434 531q-52 70 -109 70t-113 -52q-95 -86 -95 -246q0 -101 34 -164q44 -81 136 -81q88 0 116 40q21 32 21 125q0 208 10 308z" />
    <glyph glyph-name="oe" unicode="&#x153;" horiz-adv-x="681" 
d="M627 107q0 -50 -67 -88q-58 -32 -113 -32q-77 0 -117 47q-50 -64 -131 -64q-88 0 -133 60q-41 53 -41 144q0 90 45 170q52 95 135 95q80 0 132 -76q40 67 103 67q68 0 119 -41q55 -43 55 -109q0 -68 -57 -116.5t-126 -48.5q-3 0 -52 9q11 -63 64 -63q34 0 64 24
q10 8 41 43q21 23 35 23q18 0 31 -13t13 -31zM524 282q0 27 -19 46t-46 19q-36 0 -56.5 -30.5t-20.5 -69.5q0 -23 19.5 -37.5t42.5 -14.5q32 0 56 27.5t24 59.5zM360 124q-1 -1 0 -2v2zM294 199q0 153 -74 153q-53 0 -80 -65q-20 -49 -20 -111q0 -133 79 -133q51 0 76 55
q19 42 19 101z" />
    <glyph glyph-name="Uni0154" unicode="&#x154;" horiz-adv-x="637" 
d="M585 17v-5q-15 -22 -37 -22q-17 0 -29 15q-9 36 -132.5 117t-163.5 81h-18q-14 -1 -19 -1v-39q0 -20 5 -53q5 -40 11 -49q18 -24 18 -30q0 -18 -14 -29.5t-32 -11.5q-38 0 -59 27q-20 24 -20 198q-21 0 -44 13q-26 16 -26 34q0 37 67 53q4 31 7 85q2 61 5 85q6 32 15 96
h-8q-40 -1 -40 35q0 31 24 39l34 10q20 18 31.5 23.5t36.5 5.5q18 0 18 -16q0 -5 25 -5q117 0 199 -47q101 -57 101 -165q0 -83 -52 -137q-35 -37 -124 -83l141 -90q81 -61 80 -134zM448 465q0 64 -65 97q-52 27 -122 27q-9 0 -43 -3q1 -36 -19 -124q-11 -53 -15 -155
q58 -20 72 -20q12 0 35 7q66 20 108 61q49 47 49 110zM404 834q-5 -11 -11.5 -18.5t-14.5 -10.5q-5 -2 -22 -11.5t-46 -27.5q-56 -32 -74 -32q-14 0 -23 8t-8 24v12q15 18 31 34.5l33 33.5q52 49 79 49q9 0 18.5 -4.5t17.5 -12t14 -16.5t8 -18z" />
    <glyph glyph-name="Uni0155" unicode="&#x155;" horiz-adv-x="320" 
d="M282 344q0 -7 -2 -22q-21 -30 -44 -30q-19 0 -34 22q-2 45 -32 45q-18 0 -44 -95q-12 -42 -12 -117q0 -71 7 -86q8 -19 8 -26q0 -17 -15.5 -27.5t-34.5 -10.5q-54 0 -54 50q0 5 2.5 14t2.5 13q0 51 -5 151.5t-5 150.5q0 45 54 45q32 0 44 -19q28 31 63 31q24 0 46 -13
q15 -8 35 -34.5t20 -41.5zM250 574q-5 -11 -11.5 -18.5t-14.5 -10.5q-5 -2 -22 -11.5t-46 -27.5q-56 -32 -74 -32q-14 0 -23 8t-8 24v12q15 18 31 34.5l33 33.5q52 49 79 49q9 0 18.5 -4.5t17.5 -12t14 -16.5t8 -18z" />
    <glyph glyph-name="Rcommaaccent" unicode="&#x156;" horiz-adv-x="637" 
d="M585 17v-5q-15 -22 -37 -22q-17 0 -29 15q-9 36 -132.5 117t-163.5 81h-18q-14 -1 -19 -1v-39q0 -20 5 -53q5 -40 11 -49q18 -24 18 -30q0 -18 -14 -29.5t-32 -11.5q-38 0 -59 27q-20 24 -20 198q-21 0 -44 13q-26 16 -26 34q0 37 67 53q4 31 7 85q2 61 5 85q6 32 15 96
h-8q-40 -1 -40 35q0 31 24 39l34 10q20 18 31.5 23.5t36.5 5.5q18 0 18 -16q0 -5 25 -5q117 0 199 -47q101 -57 101 -165q0 -83 -52 -137q-35 -37 -124 -83l141 -90q81 -61 80 -134zM448 465q0 64 -65 97q-52 27 -122 27q-9 0 -43 -3q1 -36 -19 -124q-11 -53 -15 -155
q58 -20 72 -20q12 0 35 7q66 20 108 61q49 47 49 110zM383 -79q-73 -162 -105 -162q-18 0 -64 18l1 25q34 31 54 72t30 93q20 10 28 10q6 0 15 -5t18 -11.5t15.5 -14.5t8.5 -14z" />
    <glyph glyph-name="rcommaaccent" unicode="&#x157;" horiz-adv-x="320" 
d="M282 344q0 -7 -2 -22q-21 -30 -44 -30q-19 0 -34 22q-2 45 -32 45q-18 0 -44 -95q-12 -42 -12 -117q0 -71 7 -86q8 -19 8 -26q0 -17 -15.5 -27.5t-34.5 -10.5q-54 0 -54 50q0 5 2.5 14t2.5 13q0 51 -5 151.5t-5 150.5q0 45 54 45q32 0 44 -19q28 31 63 31q24 0 46 -13
q15 -8 35 -34.5t20 -41.5zM163 -79q-73 -162 -105 -162q-18 0 -64 18l1 25q34 31 54 72t30 93q20 10 28 10q6 0 15 -5t18 -11.5t15.5 -14.5t8.5 -14z" />
    <glyph glyph-name="Rcaron" unicode="&#x158;" horiz-adv-x="637" 
d="M585 17v-5q-15 -22 -37 -22q-17 0 -29 15q-9 36 -132.5 117t-163.5 81h-18q-14 -1 -19 -1v-39q0 -20 5 -53q5 -40 11 -49q18 -24 18 -30q0 -18 -14 -29.5t-32 -11.5q-38 0 -59 27q-20 24 -20 198q-21 0 -44 13q-26 16 -26 34q0 37 67 53q4 31 7 85q2 61 5 85q6 32 15 96
h-8q-40 -1 -40 35q0 31 24 39l34 10q20 18 31.5 23.5t36.5 5.5q18 0 18 -16q0 -5 25 -5q117 0 199 -47q101 -57 101 -165q0 -83 -52 -137q-35 -37 -124 -83l141 -90q81 -61 80 -134zM448 465q0 64 -65 97q-52 27 -122 27q-9 0 -43 -3q1 -36 -19 -124q-11 -53 -15 -155
q58 -20 72 -20q12 0 35 7q66 20 108 61q49 47 49 110zM450 852q0 -22 -63 -71q-61 -47 -83 -47q-12 0 -46.5 22t-90.5 69q-7 11 -7 24q0 32 40 32q11 0 24.5 -5.5t29.5 -18.5v1l24 -17.5t14 -8.5h-3l11 -4h1l3 -1q5 2 12 6l15 9q54 39 76 39q43 0 43 -29z" />
    <glyph glyph-name="Uni0159" unicode="&#x159;" horiz-adv-x="320" 
d="M282 344q0 -7 -2 -22q-21 -30 -44 -30q-19 0 -34 22q-2 45 -32 45q-18 0 -44 -95q-12 -42 -12 -117q0 -71 7 -86q8 -19 8 -26q0 -17 -15.5 -27.5t-34.5 -10.5q-54 0 -54 50q0 5 2.5 14t2.5 13q0 51 -5 151.5t-5 150.5q0 45 54 45q32 0 44 -19q28 31 63 31q24 0 46 -13
q15 -8 35 -34.5t20 -41.5zM296 592q0 -22 -63 -71q-61 -47 -83 -47q-12 0 -46.5 22t-90.5 69q-7 11 -7 24q0 32 40 32q11 0 24.5 -5.5t29.5 -18.5v1l24 -17.5t14 -8.5h-3l11 -4h1l3 -1q5 2 12 6l15 9q54 39 76 39q43 0 43 -29z" />
    <glyph glyph-name="Sacute" unicode="&#x15a;" horiz-adv-x="506" 
d="M474 98q0 -61 -71 -94q-56 -27 -125 -27q-63 0 -148 28q-105 36 -105 84q0 18 13 31t31 13q27 0 50 -22q39 -33 42 -36q35 -20 126 -20q81 0 81 37q0 31 -76 86l-106 68q-68 46 -99 87q-41 54 -41 124q0 88 54 157q58 76 144 76q74 0 125 -40.5t65 -113.5q3 -28 12 -83
q4 -16 4 -24q0 -36 -12 -61q-15 -34 -47 -34q-18 0 -34.5 16.5t-16.5 34.5q0 13 6 38.5t6 38.5q0 135 -90 135q-50 0 -84 -42.5t-34 -93.5q0 -72 86 -140l159 -106q85 -61 85 -117zM348 830q-5 -11 -11.5 -18.5t-14.5 -10.5q-5 -2 -22 -11.5t-46 -27.5q-56 -32 -74 -32
q-14 0 -23 8t-8 24v12q15 18 31 34.5l33 33.5q52 49 79 49q9 0 18.5 -4.5t17.5 -12t14 -16.5t8 -18z" />
    <glyph glyph-name="sacute" unicode="&#x15b;" horiz-adv-x="394" 
d="M362 101q0 -47 -40 -82q-44 -38 -118 -38q-32 -1 -69 13q-120 45 -120 73q0 44 63 44q9 0 19 -1q3 -30 48 -48q39 -16 75 -13q29 2 29 21q0 3 -1.5 9t-1.5 9.5t-38 15.5q-43 13 -48 15q-114 68 -114 164q0 58 33 107q37 54 92 54q41 0 93.5 -32t64.5 -69q8 -26 8 -43
q0 -18 -5 -30l-12 -30q-19 -13 -38 -13q-10 0 -33.5 12.5t-23.5 21.5q0 4 12 26q7 13 7 22q0 60 -47 60q-28 0 -43 -36q-11 -28 -11 -60q0 -40 57 -72l105 -47q57 -26 57 -53zM287 585q-5 -11 -11.5 -18.5t-14.5 -10.5q-5 -2 -22 -11.5t-46 -27.5q-56 -32 -74 -32
q-14 0 -23 8t-8 24v12q15 18 31 34.5l33 33.5q52 49 79 49q9 0 18.5 -4.5t17.5 -12t14 -16.5t8 -18z" />
    <glyph glyph-name="Scircumflex" unicode="&#x15c;" horiz-adv-x="506" 
d="M474 98q0 -61 -71 -94q-56 -27 -125 -27q-63 0 -148 28q-105 36 -105 84q0 18 13 31t31 13q27 0 50 -22q39 -33 42 -36q35 -20 126 -20q81 0 81 37q0 31 -76 86l-106 68q-68 46 -99 87q-41 54 -41 124q0 88 54 157q58 76 144 76q74 0 125 -40.5t65 -113.5q3 -28 12 -83
q4 -16 4 -24q0 -36 -12 -61q-15 -34 -47 -34q-18 0 -34.5 16.5t-16.5 34.5q0 13 6 38.5t6 38.5q0 135 -90 135q-50 0 -84 -42.5t-34 -93.5q0 -72 86 -140l159 -106q85 -61 85 -117zM251 782h1h-1zM252 783l-2 1l-1 -1q1 0 2 -1zM394 762q0 -32 -40 -32q-11 0 -24.5 5.5
t-29.5 18.5v-1q-32 25 -38 26l-10 4l-2 1q-2 0 -1 -1l-26 -14q-54 -39 -76 -39q-43 0 -43 29q0 11 16.5 28.5t46.5 41.5q60 48 83 48q13 0 47 -22t89 -69q8 -13 8 -24z" />
    <glyph glyph-name="scircumflex" unicode="&#x15d;" horiz-adv-x="394" 
d="M362 101q0 -47 -40 -82q-44 -38 -118 -38q-32 -1 -69 13q-120 45 -120 73q0 44 63 44q9 0 19 -1q3 -30 48 -48q39 -16 75 -13q29 2 29 21q0 3 -1.5 9t-1.5 9.5t-38 15.5q-43 13 -48 15q-114 68 -114 164q0 58 33 107q37 54 92 54q41 0 93.5 -32t64.5 -69q8 -26 8 -43
q0 -18 -5 -30l-12 -30q-19 -13 -38 -13q-10 0 -33.5 12.5t-23.5 21.5q0 4 12 26q7 13 7 22q0 60 -47 60q-28 0 -43 -36q-11 -28 -11 -60q0 -40 57 -72l105 -47q57 -26 57 -53zM190 537h1h-1zM191 538l-2 1l-1 -1q1 0 2 -1zM333 517q0 -32 -40 -32q-11 0 -24.5 5.5
t-29.5 18.5v-1q-32 25 -38 26l-10 4l-2 1q-2 0 -1 -1l-26 -14q-54 -39 -76 -39q-43 0 -43 29q0 11 16.5 28.5t46.5 41.5q60 48 83 48q13 0 47 -22t89 -69q8 -13 8 -24z" />
    <glyph glyph-name="Scedilla" unicode="&#x15e;" horiz-adv-x="506" 
d="M474 98q0 -61 -71 -94q-56 -27 -125 -27q-63 0 -148 28q-105 36 -105 84q0 18 13 31t31 13q27 0 50 -22q39 -33 42 -36q35 -20 126 -20q81 0 81 37q0 31 -76 86l-106 68q-68 46 -99 87q-41 54 -41 124q0 88 54 157q58 76 144 76q74 0 125 -40.5t65 -113.5q3 -28 12 -83
q4 -16 4 -24q0 -36 -12 -61q-15 -34 -47 -34q-18 0 -34.5 16.5t-16.5 34.5q0 13 6 38.5t6 38.5q0 135 -90 135q-50 0 -84 -42.5t-34 -93.5q0 -72 86 -140l159 -106q85 -61 85 -117zM335 -110q0 -36 -49 -64q-10 -5 -28 -12t-44 -15q-44 6 -44 36q0 9 4 15.5t11 12.5
q2 1 1.5 1t1.5 1l8 4l21 10l-2 1q-52 11 -52 35q0 18 22 37v-1l16 14l15 12l94 1l-22 -22.5t-13 -14.5q8 -2 13 -2.5t9 -2.5h-1q19 -8 29 -18.5t10 -27.5z" />
    <glyph glyph-name="scedilla" unicode="&#x15f;" horiz-adv-x="394" 
d="M362 101q0 -47 -40 -82q-44 -38 -118 -38q-32 -1 -69 13q-120 45 -120 73q0 44 63 44q9 0 19 -1q3 -30 48 -48q39 -16 75 -13q29 2 29 21q0 3 -1.5 9t-1.5 9.5t-38 15.5q-43 13 -48 15q-114 68 -114 164q0 58 33 107q37 54 92 54q41 0 93.5 -32t64.5 -69q8 -26 8 -43
q0 -18 -5 -30l-12 -30q-19 -13 -38 -13q-10 0 -33.5 12.5t-23.5 21.5q0 4 12 26q7 13 7 22q0 60 -47 60q-28 0 -43 -36q-11 -28 -11 -60q0 -40 57 -72l105 -47q57 -26 57 -53zM274 -107q0 -36 -49 -64q-10 -5 -28 -12t-44 -15q-44 6 -44 36q0 9 4 15.5t11 12.5q2 1 1.5 1
t1.5 1l8 4l21 10l-2 1q-52 11 -52 35q0 18 22 37v-1l16 14l15 12l94 1l-22 -22.5t-13 -14.5q8 -2 13 -2.5t9 -2.5h-1q19 -8 29 -18.5t10 -27.5z" />
    <glyph glyph-name="Scaron" unicode="&#x160;" horiz-adv-x="506" 
d="M474 98q0 -61 -71 -94q-56 -27 -125 -27q-63 0 -148 28q-105 36 -105 84q0 18 13 31t31 13q27 0 50 -22q39 -33 42 -36q35 -20 126 -20q81 0 81 37q0 31 -76 86l-106 68q-68 46 -99 87q-41 54 -41 124q0 88 54 157q58 76 144 76q74 0 125 -40.5t65 -113.5q3 -28 12 -83
q4 -16 4 -24q0 -36 -12 -61q-15 -34 -47 -34q-18 0 -34.5 16.5t-16.5 34.5q0 13 6 38.5t6 38.5q0 135 -90 135q-50 0 -84 -42.5t-34 -93.5q0 -72 86 -140l159 -106q85 -61 85 -117zM394 848q0 -22 -63 -71q-61 -47 -83 -47q-12 0 -46.5 22t-90.5 69q-7 11 -7 24q0 32 40 32
q11 0 24.5 -5.5t29.5 -18.5v1l24 -17.5t14 -8.5h-3l11 -4h1l3 -1q5 2 12 6l15 9q54 39 76 39q43 0 43 -29z" />
    <glyph glyph-name="scaron" unicode="&#x161;" horiz-adv-x="394" 
d="M362 101q0 -47 -40 -82q-44 -38 -118 -38q-32 -1 -69 13q-120 45 -120 73q0 44 63 44q9 0 19 -1q3 -30 48 -48q39 -16 75 -13q29 2 29 21q0 3 -1.5 9t-1.5 9.5t-38 15.5q-43 13 -48 15q-114 68 -114 164q0 58 33 107q37 54 92 54q41 0 93.5 -32t64.5 -69q8 -26 8 -43
q0 -18 -5 -30l-12 -30q-19 -13 -38 -13q-10 0 -33.5 12.5t-23.5 21.5q0 4 12 26q7 13 7 22q0 60 -47 60q-28 0 -43 -36q-11 -28 -11 -60q0 -40 57 -72l105 -47q57 -26 57 -53zM333 603q0 -22 -63 -71q-61 -47 -83 -47q-12 0 -46.5 22t-90.5 69q-7 11 -7 24q0 32 40 32
q11 0 24.5 -5.5t29.5 -18.5v1l24 -17.5t14 -8.5h-3l11 -4h1l3 -1q5 2 12 6l15 9q54 39 76 39q43 0 43 -29z" />
    <glyph glyph-name="Tcommaaccent" unicode="&#x162;" horiz-adv-x="523" 
d="M491 608q0 -17 -10.5 -29.5t-26.5 -12.5q-9 0 -33.5 8.5t-40.5 8.5h-69q-15 0 -16.5 -2.5t-3.5 -19.5l-12 -75q-19 -136 -19 -307q0 -116 27 -159v-27q-19 -10 -30 -10q-64 0 -83 62q-9 30 -9 115q0 99 4 154q1 24 11 115q8 71 8 115l-1 29q-14 -1 -54 -7q-33 -5 -54 -5
q-69 0 -69 41q0 17 10 20q15 22 157 38q110 12 178 12q48 0 84 -12q52 -17 52 -52zM275 -79q-73 -162 -105 -162q-18 0 -64 18l1 25q34 31 54 72t30 93q20 10 28 10q6 0 15 -5t18 -11.5t15.5 -14.5t8.5 -14z" />
    <glyph glyph-name="tcommaaccent" unicode="&#x163;" horiz-adv-x="297" 
d="M269 358q0 -27 -83 -38q-2 -22 -2 -100v-66q0 -20 6.5 -59t6.5 -58q0 -16 -16 -28.5t-32 -12.5q-25 0 -42 43q-13 33 -13 64v212q-46 7 -53 9q-26 8 -26 23q0 4 2 9q26 37 58 37h6q4 -1 6 -1q21 0 20 49v73q-6 11 -6 19q0 13 15.5 23.5t29.5 10.5q21 0 40 -19.5t19 -41.5
q0 -24 -7.5 -47.5t-6.5 -48.5v-4q78 -8 78 -48zM196 -79q-73 -162 -105 -162q-18 0 -64 18l1 25q34 31 54 72t30 93q20 10 28 10q6 0 15 -5t18 -11.5t15.5 -14.5t8.5 -14z" />
    <glyph glyph-name="Tcaron" unicode="&#x164;" horiz-adv-x="523" 
d="M491 608q0 -17 -10.5 -29.5t-26.5 -12.5q-9 0 -33.5 8.5t-40.5 8.5h-69q-15 0 -16.5 -2.5t-3.5 -19.5l-12 -75q-19 -136 -19 -307q0 -116 27 -159v-27q-19 -10 -30 -10q-64 0 -83 62q-9 30 -9 115q0 99 4 154q1 24 11 115q8 71 8 115l-1 29q-14 -1 -54 -7q-33 -5 -54 -5
q-69 0 -69 41q0 17 10 20q15 22 157 38q110 12 178 12q48 0 84 -12q52 -17 52 -52zM395 830q0 -22 -63 -71q-61 -47 -83 -47q-12 0 -46.5 22t-90.5 69q-7 11 -7 24q0 32 40 32q11 0 24.5 -5.5t29.5 -18.5v1l24 -17.5t14 -8.5h-3l11 -4h1l3 -1q5 2 12 6l15 9q54 39 76 39
q43 0 43 -29z" />
    <glyph glyph-name="tcaron" unicode="&#x165;" horiz-adv-x="306" 
d="M342 662q2 -177 -27 -191q-17 -7 -66 -10l-10 23q18 42 19 87.5t-12 97.5q14 17 22 21q5 2 15.5 1.5t21 -3t20 -7t13.5 -8.5zM269 358q0 -27 -83 -38q-2 -22 -2 -100v-66q0 -20 6.5 -59t6.5 -58q0 -16 -16 -28.5t-32 -12.5q-25 0 -42 43q-13 33 -13 64v212q-46 7 -53 9
q-26 8 -26 23q0 4 2 9q26 37 58 37h6q4 -1 6 -1q21 0 20 49v73q-6 11 -6 19q0 13 15.5 23.5t29.5 10.5q21 0 40 -19.5t19 -41.5q0 -24 -7.5 -47.5t-6.5 -48.5v-4q78 -8 78 -48z" />
    <glyph glyph-name="Utilde" unicode="&#x168;" horiz-adv-x="502" 
d="M450 367q0 -83 -20 -176q-24 -115 -66 -159q-52 -55 -128 -55q-68 0 -119 41q-56 46 -77 125q-15 56 -15 150q0 46 6 138.5t6 138.5q0 8 -6 23.5t-6 23.5q0 25 40 41q31 13 61 13q34 0 34 -21q0 -11 -10 -32t-10 -33q0 -40 -10 -121t-10 -122v-124q0 -57 22 -101
q27 -56 79 -56q100 0 133 184q15 86 15 267q0 66 -20 107q-6 12 -6 19q0 18 13.5 35t31.5 17q19 0 40.5 -14t21.5 -32v-277zM387 802q0 -27 -50 -52q-42 -20 -66 -20q-25 0 -54 14q-11 6 -17.5 8t-9.5 2q-8 0 -21 -8q-11 -5 -20 -8.5t-14 -3.5q-48 0 -48 38q0 29 51 52
q37 17 63 17q14 0 27.5 -4t27.5 -11q10 -6 15.5 -8t6.5 -2q7 0 22 9q24 16 39 16q48 0 48 -39z" />
    <glyph glyph-name="utilde" unicode="&#x169;" horiz-adv-x="367" 
d="M336 357q0 -31 -7.5 -93.5t-7.5 -94.5q0 -28 2.5 -83.5t2.5 -82.5q0 -23 -39 -23q-40 0 -51 39q-38 -25 -74 -25q-29 0 -66 15.5t-52 37.5q-29 42 -29 135q0 32 2 112q3 71 2 111q30 22 50 22q48 0 48 -47q0 -16 -4.5 -48t-4.5 -48v-141q0 -24 13 -50q16 -30 38 -30
q43 0 64 55q14 38 14 92v120q0 23 -12 57q25 23 48 23q24 0 43.5 -15t19.5 -38zM325 540q0 -27 -50 -52q-42 -20 -66 -20q-25 0 -54 14q-11 6 -17.5 8t-9.5 2q-8 0 -21 -8q-11 -5 -20 -8.5t-14 -3.5q-48 0 -48 38q0 29 51 52q37 17 63 17q14 0 27.5 -4t27.5 -11
q10 -6 15.5 -8t6.5 -2q7 0 22 9q24 16 39 16q48 0 48 -39z" />
    <glyph glyph-name="Umacron" unicode="&#x16a;" horiz-adv-x="502" 
d="M450 367q0 -83 -20 -176q-24 -115 -66 -159q-52 -55 -128 -55q-68 0 -119 41q-56 46 -77 125q-15 56 -15 150q0 46 6 138.5t6 138.5q0 8 -6 23.5t-6 23.5q0 25 40 41q31 13 61 13q34 0 34 -21q0 -11 -10 -32t-10 -33q0 -40 -10 -121t-10 -122v-124q0 -57 22 -101
q27 -56 79 -56q100 0 133 184q15 86 15 267q0 66 -20 107q-6 12 -6 19q0 18 13.5 35t31.5 17q19 0 40.5 -14t21.5 -32v-277zM103 737q-1 4 -1 8.5v9.5q0 8 1 18t6 15q16 2 42 4.5t56 5t63 4.5t63 2q26 0 33 -9.5t7 -29.5q0 -16 -5.5 -25.5t-16.5 -9.5t-25.5 0.5t-30.5 1.5
t-32.5 1.5t-30.5 0.5q-29 0 -48.5 -1.5t-32.5 -4l-21 -4t-13 -1.5t-9 3.5t-5 10.5z" />
    <glyph glyph-name="umacron" unicode="&#x16b;" horiz-adv-x="367" 
d="M336 357q0 -31 -7.5 -93.5t-7.5 -94.5q0 -28 2.5 -83.5t2.5 -82.5q0 -23 -39 -23q-40 0 -51 39q-38 -25 -74 -25q-29 0 -66 15.5t-52 37.5q-29 42 -29 135q0 32 2 112q3 71 2 111q30 22 50 22q48 0 48 -47q0 -16 -4.5 -48t-4.5 -48v-141q0 -24 13 -50q16 -30 38 -30
q43 0 64 55q14 38 14 92v120q0 23 -12 57q25 23 48 23q24 0 43.5 -15t19.5 -38zM41 475q-1 4 -1 8.5v9.5q0 8 1 18t6 15q16 2 42 4.5t56 5t63 4.5t63 2q26 0 33 -9.5t7 -29.5q0 -16 -5.5 -25.5t-16.5 -9.5t-25.5 0.5t-30.5 1.5t-32.5 1.5t-30.5 0.5q-29 0 -48.5 -1.5
t-32.5 -4l-21 -4t-13 -1.5t-9 3.5t-5 10.5z" />
    <glyph glyph-name="Ubreve" unicode="&#x16c;" horiz-adv-x="502" 
d="M450 367q0 -83 -20 -176q-24 -115 -66 -159q-52 -55 -128 -55q-68 0 -119 41q-56 46 -77 125q-15 56 -15 150q0 46 6 138.5t6 138.5q0 8 -6 23.5t-6 23.5q0 25 40 41q31 13 61 13q34 0 34 -21q0 -11 -10 -32t-10 -33q0 -40 -10 -121t-10 -122v-124q0 -57 22 -101
q27 -56 79 -56q100 0 133 184q15 86 15 267q0 66 -20 107q-6 12 -6 19q0 18 13.5 35t31.5 17q19 0 40.5 -14t21.5 -32v-277zM376 817q0 -44 -55 -71q-35 -16 -84 -16q-23 0 -44 4t-39 12q-56 27 -56 71q0 39 51 39q28 0 37.5 -10.5t13.5 -22.5l2 -5q8 -4 32 -4q26 0 38 5
l11 17h-1q9 20 43 20q51 0 51 -39z" />
    <glyph glyph-name="ubreve" unicode="&#x16d;" horiz-adv-x="367" 
d="M336 357q0 -31 -7.5 -93.5t-7.5 -94.5q0 -28 2.5 -83.5t2.5 -82.5q0 -23 -39 -23q-40 0 -51 39q-38 -25 -74 -25q-29 0 -66 15.5t-52 37.5q-29 42 -29 135q0 32 2 112q3 71 2 111q30 22 50 22q48 0 48 -47q0 -16 -4.5 -48t-4.5 -48v-141q0 -24 13 -50q16 -30 38 -30
q43 0 64 55q14 38 14 92v120q0 23 -12 57q25 23 48 23q24 0 43.5 -15t19.5 -38zM314 555q0 -44 -55 -71q-35 -16 -84 -16q-23 0 -44 4t-39 12q-56 27 -56 71q0 39 51 39q28 0 37.5 -10.5t13.5 -22.5l2 -5q8 -4 32 -4q26 0 38 5l11 17h-1q9 20 43 20q51 0 51 -39z" />
    <glyph glyph-name="Uring" unicode="&#x16e;" horiz-adv-x="502" 
d="M450 367q0 -83 -20 -176q-24 -115 -66 -159q-52 -55 -128 -55q-68 0 -119 41q-56 46 -77 125q-15 56 -15 150q0 46 6 138.5t6 138.5q0 8 -6 23.5t-6 23.5q0 25 40 41q31 13 61 13q34 0 34 -21q0 -11 -10 -32t-10 -33q0 -40 -10 -121t-10 -122v-124q0 -57 22 -101
q27 -56 79 -56q100 0 133 184q15 86 15 267q0 66 -20 107q-6 12 -6 19q0 18 13.5 35t31.5 17q19 0 40.5 -14t21.5 -32v-277zM327 798q0 -16 -8 -28.5t-20.5 -21.5t-29 -13.5t-32.5 -4.5q-32 0 -57 14q-33 21 -33 54q0 32 33 53q26 16 57 16q30 0 57 -16q33 -22 33 -53z
M245 798q0 5 -8 5t-8 -5t8 -5t8 5z" />
    <glyph glyph-name="uring" unicode="&#x16f;" horiz-adv-x="367" 
d="M336 357q0 -31 -7.5 -93.5t-7.5 -94.5q0 -28 2.5 -83.5t2.5 -82.5q0 -23 -39 -23q-40 0 -51 39q-38 -25 -74 -25q-29 0 -66 15.5t-52 37.5q-29 42 -29 135q0 32 2 112q3 71 2 111q30 22 50 22q48 0 48 -47q0 -16 -4.5 -48t-4.5 -48v-141q0 -24 13 -50q16 -30 38 -30
q43 0 64 55q14 38 14 92v120q0 23 -12 57q25 23 48 23q24 0 43.5 -15t19.5 -38zM265 536q0 -16 -8 -28.5t-20.5 -21.5t-29 -13.5t-32.5 -4.5q-32 0 -57 14q-33 21 -33 54q0 32 33 53q26 16 57 16q30 0 57 -16q33 -22 33 -53zM183 536q0 5 -8 5t-8 -5t8 -5t8 5z" />
    <glyph glyph-name="Uhungarumlaut" unicode="&#x170;" horiz-adv-x="502" 
d="M450 367q0 -83 -20 -176q-24 -115 -66 -159q-52 -55 -128 -55q-68 0 -119 41q-56 46 -77 125q-15 56 -15 150q0 46 6 138.5t6 138.5q0 8 -6 23.5t-6 23.5q0 25 40 41q31 13 61 13q34 0 34 -21q0 -11 -10 -32t-10 -33q0 -40 -10 -121t-10 -122v-124q0 -57 22 -101
q27 -56 79 -56q100 0 133 184q15 86 15 267q0 66 -20 107q-6 12 -6 19q0 18 13.5 35t31.5 17q19 0 40.5 -14t21.5 -32v-277zM358 857q0 -17 -17 -32q-3 -1 -4 -1.5t-6 -4.5l-13.5 -18.5t-22.5 -28.5q-36 -42 -55 -42q-22 0 -34 32q9 45 28 80v-1q27 60 64 60t60 -34v-10z
M247 857q0 -17 -17 -32q-4 -1 -4.5 -1.5t-5.5 -4.5q-40 -72 -71 -72q-22 0 -34 31l17 69q9 26 22.5 40t31.5 14q38 0 61 -34v-10z" />
    <glyph glyph-name="uhungarumlaut" unicode="&#x171;" horiz-adv-x="367" 
d="M336 357q0 -31 -7.5 -93.5t-7.5 -94.5q0 -28 2.5 -83.5t2.5 -82.5q0 -23 -39 -23q-40 0 -51 39q-38 -25 -74 -25q-29 0 -66 15.5t-52 37.5q-29 42 -29 135q0 32 2 112q3 71 2 111q30 22 50 22q48 0 48 -47q0 -16 -4.5 -48t-4.5 -48v-141q0 -24 13 -50q16 -30 38 -30
q43 0 64 55q14 38 14 92v120q0 23 -12 57q25 23 48 23q24 0 43.5 -15t19.5 -38zM296 595q0 -17 -17 -32q-3 -1 -4 -1.5t-6 -4.5l-13.5 -18.5t-22.5 -28.5q-36 -42 -55 -42q-22 0 -34 32q9 45 28 80v-1q27 60 64 60t60 -34v-10zM185 595q0 -17 -17 -32q-4 -1 -4.5 -1.5
t-5.5 -4.5q-40 -72 -71 -72q-22 0 -34 31l17 69q9 26 22.5 40t31.5 14q38 0 61 -34v-10z" />
    <glyph glyph-name="Uogonek" unicode="&#x172;" horiz-adv-x="502" 
d="M450 367q0 -83 -20 -176q-24 -115 -66 -159q-52 -55 -128 -55q-68 0 -119 41q-56 46 -77 125q-15 56 -15 150q0 46 6 138.5t6 138.5q0 8 -6 23.5t-6 23.5q0 25 40 41q31 13 61 13q34 0 34 -21q0 -11 -10 -32t-10 -33q0 -40 -10 -121t-10 -122v-124q0 -57 22 -101
q27 -56 79 -56q100 0 133 184q15 86 15 267q0 66 -20 107q-6 12 -6 19q0 18 13.5 35t31.5 17q19 0 40.5 -14t21.5 -32v-277zM332 -185q0 -26 -40 -41h1q-12 -6 -24.5 -8.5t-24.5 -2.5q-21 0 -39.5 7t-33 19.5t-22.5 30t-8 37.5q0 55 62 108q15 13 33 13q40 0 40 -33
q0 -14 -23 -46q-16 -24 -16 -37q0 -9 5 -18.5t11 -9.5l6 4l14 8.5t17 3.5q42 0 42 -35z" />
    <glyph glyph-name="uogonek" unicode="&#x173;" horiz-adv-x="367" 
d="M336 357q0 -31 -7.5 -93.5t-7.5 -94.5q0 -28 2.5 -83.5t2.5 -82.5q0 -23 -39 -23q-40 0 -51 39q-38 -25 -74 -25q-29 0 -66 15.5t-52 37.5q-29 42 -29 135q0 32 2 112q3 71 2 111q30 22 50 22q48 0 48 -47q0 -16 -4.5 -48t-4.5 -48v-141q0 -24 13 -50q16 -30 38 -30
q43 0 64 55q14 38 14 92v120q0 23 -12 57q25 23 48 23q24 0 43.5 -15t19.5 -38zM270 -182q0 -26 -40 -41h1q-12 -6 -24.5 -8.5t-24.5 -2.5q-21 0 -39.5 7t-33 19.5t-22.5 30t-8 37.5q0 55 62 108q15 13 33 13q40 0 40 -33q0 -14 -23 -46q-16 -24 -16 -37q0 -9 5 -18.5
t11 -9.5l6 4l14 8.5t17 3.5q42 0 42 -35z" />
    <glyph glyph-name="u0174" unicode="&#x174;" horiz-adv-x="679" 
d="M614 455q0 -114 -40 -258q-53 -189 -133 -189q-70 0 -102 89q-18 50 -27 148q-24 -113 -38 -151q-37 -103 -90 -103q-39 0 -71 33q-42 43 -63 270q-15 155 -15 299q0 77 66 77q59 0 59 -27q0 -12 -7.5 -25.5l-14.5 -26.5q-13 -26 -13 -109q0 -383 59 -383q21 0 51 149
q36 176 36 270q0 14 19 28.5t34 14.5q30 0 54.5 -21t27.5 -51q-20 -29 -20 -107q0 -281 53 -281q51 0 79 160q19 111 19 204q0 39 -4.5 58t-22.5 57q-16 32 -16 48q0 24 11 44q14 25 36 25q31 0 55 -106q18 -83 18 -136zM326 789h1h-1zM327 790l-2 1l-1 -1q1 0 2 -1z
M469 769q0 -32 -40 -32q-11 0 -24.5 5.5t-29.5 18.5v-1q-32 25 -38 26l-10 4l-2 1q-2 0 -1 -1l-26 -14q-54 -39 -76 -39q-43 0 -43 29q0 11 16.5 28.5t46.5 41.5q60 48 83 48q13 0 47 -22t89 -69q8 -13 8 -24z" />
    <glyph glyph-name="u0175" unicode="&#x175;" horiz-adv-x="554" 
d="M515 310q0 -90 -33 -186q-43 -126 -114 -126q-67 0 -111 83q-30 -88 -95 -88q-83 0 -121 114q-26 78 -26 183q0 66 5 107q14 22 37 22q20 0 40.5 -13t20.5 -31q0 -13 -6.5 -38.5t-6.5 -38.5q0 -220 47 -220q49 0 64 122q5 46 5 161q0 38 44 38q49 0 49 -55q0 -5 -1.5 -14
t-1.5 -13v-113q0 -126 46 -126q39 0 59 92q15 64 15 125q0 52 -5 61q-1 2 -11 12q-6 8 -6 15q0 18 16 32.5t34 14.5q27 0 43 -48q13 -37 13 -72zM267 523h1h-1zM268 524l-2 1l-1 -1q1 0 2 -1zM410 503q0 -32 -40 -32q-11 0 -24.5 5.5t-29.5 18.5v-1q-32 25 -38 26l-10 4
l-2 1q-2 0 -1 -1l-26 -14q-54 -39 -76 -39q-43 0 -43 29q0 11 16.5 28.5t46.5 41.5q60 48 83 48q13 0 47 -22t89 -69q8 -13 8 -24z" />
    <glyph glyph-name="u0176" unicode="&#x176;" horiz-adv-x="535" 
d="M512 621q-11 -19 -38.5 -50.5t-37 -48.5t-120.5 -309q-94 -249 -125 -249q-27 0 -47 15q-23 16 -23 42q0 16 18 40t40 85l32 92q-60 48 -106 147q-80 169 -80 238q0 58 52 58q60 0 60 -69q0 -7 -2.5 -21.5t-2.5 -22.5q0 -42 39 -132q41 -95 74 -109q13 19 57 115
q48 106 75 152q45 75 75 75q22 0 39.5 -13.5t20.5 -34.5zM255 789h1h-1zM256 790l-2 1l-1 -1q1 0 2 -1zM398 769q0 -32 -40 -32q-11 0 -24.5 5.5t-29.5 18.5v-1q-32 25 -38 26l-10 4l-2 1q-2 0 -1 -1l-26 -14q-54 -39 -76 -39q-43 0 -43 29q0 11 16.5 28.5t46.5 41.5
q60 48 83 48q13 0 47 -22t89 -69q8 -13 8 -24z" />
    <glyph glyph-name="u0177" unicode="&#x177;" horiz-adv-x="409" 
d="M376 384q-9 -50 -17 -99q-10 -58 -10 -99v-272q0 -74 -42.5 -113t-116.5 -39q-48 0 -106 25q-69 29 -69 70q0 14 11.5 23.5t25.5 9.5q9 0 43 -27t78 -27q56 0 75 41q14 28 14 90q0 23 -1 38q-33 -22 -74 -22q-75 0 -116 54q-37 49 -37 125q0 8 10 252q30 13 48 13
q20 0 59 -24q-24 -60 -24 -240q0 -115 58 -115q43 0 66 72q17 52 17 108v122q0 -1 -3 33q41 20 61 20q21 0 50 -19zM210 523h1h-1zM211 524l-2 1l-1 -1q1 0 2 -1zM353 503q0 -32 -40 -32q-11 0 -24.5 5.5t-29.5 18.5v-1q-32 25 -38 26l-10 4l-2 1q-2 0 -1 -1l-26 -14
q-54 -39 -76 -39q-43 0 -43 29q0 11 16.5 28.5t46.5 41.5q60 48 83 48q13 0 47 -22t89 -69q8 -13 8 -24z" />
    <glyph glyph-name="Ydieresis" unicode="&#x178;" horiz-adv-x="561" 
d="M385 748q0 -17 -15.5 -29t-34.5 -12t-34.5 12t-15.5 29q0 18 15.5 30t34.5 12t34.5 -12t15.5 -30zM235 748q0 -17 -15.5 -29t-34.5 -12t-34.5 12t-15.5 29q0 18 15.5 30t34.5 12t34.5 -12t15.5 -30zM512 625q-11 -19 -38.5 -51t-37.5 -50q-65 -112 -127 -266
q-76 -193 -68 -275q-31 -23 -55 -23q-31 0 -50 24q-11 15 -24 53l27 24q13 14 38 84l34 95q-60 49 -106 148q-80 171 -80 239q0 59 52 59q30 0 48 -27q16 -23 16 -54q0 -6 -4.5 -16.5t-4.5 -16.5q0 -42 39 -133q42 -97 74 -110q14 19 57 116q48 106 75 152q44 76 75 76
q23 0 40 -13.5t20 -34.5z" />
    <glyph glyph-name="Zacute" unicode="&#x179;" horiz-adv-x="634" 
d="M596 605q0 -58 -123 -167l-228 -190q-123 -107 -123 -157q0 -20 46 -20t136.5 11t136.5 11q33 0 66 -16q39 -19 45 -48q-16 -29 -43 -29q-7 0 -21.5 5t-22.5 5h-6q-25 -2 -138 -12q-85 -8 -139 -8q-76 0 -108 14q-49 22 -49 89q0 74 124 188l232 188q124 103 124 153
q0 21 -37 21q-65 0 -145.5 -21.5t-137.5 -53.5l-52 -32q-40 -24 -51 -24q-45 0 -45 66q0 18 13 28q4 3 29 15q225 105 380 105q53 0 87 -27q19 -15 34.5 -43t15.5 -51zM409 866q-5 -11 -11.5 -18.5t-14.5 -10.5q-5 -2 -22 -11.5t-46 -27.5q-56 -32 -74 -32q-14 0 -23 8
t-8 24v12q15 18 31 34.5l33 33.5q52 49 79 49q9 0 18.5 -4.5t17.5 -12t14 -16.5t8 -18z" />
    <glyph glyph-name="zacute" unicode="&#x17a;" horiz-adv-x="384" 
d="M352 371q0 -22 -8 -36q-5 -9 -21 -25l-117 -118q-81 -86 -95 -125q9 -1 17 -1q23 0 69 8t69 8q64 0 86 -52l-17 -21h-27q-36 1 -104 -10.5t-101 -11.5t-58 16q-30 18 -30 49q0 37 46 98q28 36 95 107q64 66 80 89l-5 1q-50 0 -99.5 -30.5t-52.5 -30.5q-19 0 -32 14.5
t-13 33.5q0 34 103 65q87 25 135 25q80 0 80 -53zM282 565q-5 -11 -11.5 -18.5t-14.5 -10.5q-5 -2 -22 -11.5t-46 -27.5q-56 -32 -74 -32q-14 0 -23 8t-8 24v12q15 18 31 34.5l33 33.5q52 49 79 49q9 0 18.5 -4.5t17.5 -12t14 -16.5t8 -18z" />
    <glyph glyph-name="Zdotabove" unicode="&#x17b;" horiz-adv-x="634" 
d="M596 605q0 -58 -123 -167l-228 -190q-123 -107 -123 -157q0 -20 46 -20t136.5 11t136.5 11q33 0 66 -16q39 -19 45 -48q-16 -29 -43 -29q-7 0 -21.5 5t-22.5 5h-6q-25 -2 -138 -12q-85 -8 -139 -8q-76 0 -108 14q-49 22 -49 89q0 74 124 188l232 188q124 103 124 153
q0 21 -37 21q-65 0 -145.5 -21.5t-137.5 -53.5l-52 -32q-40 -24 -51 -24q-45 0 -45 66q0 18 13 28q4 3 29 15q225 105 380 105q53 0 87 -27q19 -15 34.5 -43t15.5 -51zM395 836q0 -19 -19.5 -30t-40.5 -11t-39 10q-21 12 -21 31q0 20 21 32q18 10 39 10t40.5 -11t19.5 -31z
" />
    <glyph glyph-name="zdotabove" unicode="&#x17c;" horiz-adv-x="384" 
d="M352 371q0 -22 -8 -36q-5 -9 -21 -25l-117 -118q-81 -86 -95 -125q9 -1 17 -1q23 0 69 8t69 8q64 0 86 -52l-17 -21h-27q-36 1 -104 -10.5t-101 -11.5t-58 16q-30 18 -30 49q0 37 46 98q28 36 95 107q64 66 80 89l-5 1q-50 0 -99.5 -30.5t-52.5 -30.5q-19 0 -32 14.5
t-13 33.5q0 34 103 65q87 25 135 25q80 0 80 -53zM264 525q0 -19 -19.5 -30t-40.5 -11t-39 10q-21 12 -21 31q0 20 21 32q18 10 39 10t40.5 -11t19.5 -31z" />
    <glyph glyph-name="Zcaron" unicode="&#x17d;" horiz-adv-x="634" 
d="M596 605q0 -58 -123 -167l-228 -190q-123 -107 -123 -157q0 -20 46 -20t136.5 11t136.5 11q33 0 66 -16q39 -19 45 -48q-16 -29 -43 -29q-7 0 -21.5 5t-22.5 5h-6q-25 -2 -138 -12q-85 -8 -139 -8q-76 0 -108 14q-49 22 -49 89q0 74 124 188l232 188q124 103 124 153
q0 21 -37 21q-65 0 -145.5 -21.5t-137.5 -53.5l-52 -32q-40 -24 -51 -24q-45 0 -45 66q0 18 13 28q4 3 29 15q225 105 380 105q53 0 87 -27q19 -15 34.5 -43t15.5 -51zM455 884q0 -22 -63 -71q-61 -47 -83 -47q-12 0 -46.5 22t-90.5 69q-7 11 -7 24q0 32 40 32
q11 0 24.5 -5.5t29.5 -18.5v1l24 -17.5t14 -8.5h-3l11 -4h1l3 -1q5 2 12 6l15 9q54 39 76 39q43 0 43 -29z" />
    <glyph glyph-name="zcaron" unicode="&#x17e;" horiz-adv-x="384" 
d="M352 371q0 -22 -8 -36q-5 -9 -21 -25l-117 -118q-81 -86 -95 -125q9 -1 17 -1q23 0 69 8t69 8q64 0 86 -52l-17 -21h-27q-36 1 -104 -10.5t-101 -11.5t-58 16q-30 18 -30 49q0 37 46 98q28 36 95 107q64 66 80 89l-5 1q-50 0 -99.5 -30.5t-52.5 -30.5q-19 0 -32 14.5
t-13 33.5q0 34 103 65q87 25 135 25q80 0 80 -53zM328 583q0 -22 -63 -71q-61 -47 -83 -47q-12 0 -46.5 22t-90.5 69q-7 11 -7 24q0 32 40 32q11 0 24.5 -5.5t29.5 -18.5v1l24 -17.5t14 -8.5h-3l11 -4h1l3 -1q5 2 12 6l15 9q54 39 76 39q43 0 43 -29z" />
    <glyph glyph-name="Schwa" unicode="&#x18f;" horiz-adv-x="578" 
d="M543 345q0 -13 -5.5 -20.5t-6.5 -25.5q-2 -81 -29.5 -142t-72.5 -106q-31 -30 -67 -53.5t-78 -23.5q-62 0 -106 21.5t-71.5 56.5t-40.5 81t-13 96q0 37 11 72.5t36 63.5t64.5 45.5t96.5 17.5q36 0 75.5 -13t84.5 -42q1 -1 4 -1q5 0 7 6.5t2 11.5q-13 97 -60 153.5
t-119 56.5q-74 0 -116 -48q-9 -10 -13.5 -22.5t-10 -23t-14 -18t-25.5 -7.5q-37 0 -37 41q0 24 15 52.5t43.5 53t68.5 41t90 16.5q54 0 99.5 -21t80 -59t57 -90.5t32.5 -115.5q1 -10 4 -15l6 -10t5.5 -11t2.5 -18zM290 67q33 0 59 16.5t44.5 44.5t29.5 65t15 78
q0 17 -14.5 31t-37.5 23.5t-52 14.5t-57 5q-44 0 -71.5 -7t-43 -20.5t-21 -34t-5.5 -47.5q0 -76 36 -122.5t118 -46.5z" />
    <glyph glyph-name="florin" unicode="&#x192;" horiz-adv-x="441" 
d="M382 300q0 -27 -6.5 -34t-26.5 -7q-11 0 -19.5 1t-18 2.5t-22 3t-32.5 2.5q-3 -37 -7.5 -79t-11.5 -84t-17.5 -80.5t-26 -68t-36.5 -47t-50 -17.5q-47 0 -67 24.5t-20 59.5q0 17 7.5 27.5t23.5 10.5q5 0 8 -7t7 -15t11.5 -15t22.5 -7q12 0 22 18.5t18 47.5t14 64t10 67
t6.5 57.5t3.5 36.5l-32 -8t-22 -3q-13 0 -21 6.5t-12.5 16t-6 19.5t-1.5 17q0 6 11 11.5t27 10t33.5 7.5t30.5 4q9 97 23 157t32 93.5t40.5 45t49.5 11.5q14 0 29 -5.5t27.5 -15.5t20.5 -24.5t8 -32.5q0 -38 -31 -38q-4 0 -6.5 6t-7 13t-12 13t-21.5 6q-29 0 -43 -57.5
t-26 -168.5q57 0 87 -7.5t30 -37.5z" />
    <glyph glyph-name="u01A0" unicode="&#x1a0;" horiz-adv-x="641" 
d="M598 684q7 0 14.5 -7t12.5 -18.5t8.5 -24.5t3.5 -25q0 -32 -19 -57t-48 -32q-11 -2 -16.5 -4.5t-5.5 -9.5q0 -8 4.5 -20.5t10 -32t10 -47.5t4.5 -67q0 -76 -20.5 -141t-58.5 -113t-91 -75.5t-118 -27.5q-37 0 -71.5 10t-64.5 27t-53 40t-38 49q-37 65 -37 182
q0 148 71 261q82 133 222 133q45 0 83.5 -19t73.5 -49q7 -6 17 -12t20.5 -11t20 -8t15.5 -3q15 0 31 11t16 26q0 8 -9 20t-9 20q0 25 21 25zM481 348q0 208 -134 249q-11 4 -32 4q-57 0 -112 -50q-89 -81 -89 -289q0 -23 5.5 -47.5t14 -47t19 -41t20.5 -28.5q39 -40 114 -40
q45 0 81 21t61 59t38.5 91.5t13.5 118.5z" />
    <glyph glyph-name="u01A1" unicode="&#x1a1;" horiz-adv-x="469" 
d="M425 459q7 0 14.5 -7t12.5 -18.5t8.5 -24.5t3.5 -25q0 -37 -24 -64t-60 -27q-18 0 -18 -13q0 -14 7.5 -32.5t7.5 -50.5q0 -49 -13.5 -90.5t-38 -72t-58 -47.5t-73.5 -17q-84 0 -129 53.5t-45 150.5q0 90 45 170q53 95 135 95q12 0 29.5 -5.5t35.5 -17.5l27 -19.5
t28.5 -19t28.5 -14.5t26 -6q15 0 31 11t16 26q0 8 -9 20t-9 20q0 25 21 25zM289 199q0 153 -74 153q-23 0 -41.5 -14t-31.5 -38t-20 -56t-7 -68q0 -133 79 -133q45 0 70 43.5t25 112.5z" />
    <glyph glyph-name="OI" unicode="&#x1a2;" horiz-adv-x="810" 
d="M555 339q0 -76 -17 -141t-51 -113t-83.5 -75.5t-114.5 -27.5q-37 0 -71.5 10t-64.5 27t-53 40t-38 49q-37 65 -37 182q0 148 71 261q82 133 222 133q54 0 97 -24.5t73 -69.5q17 -14 31 -20.5t32 -6.5q49 0 72 30v12q0 12 7 23.5t17.5 20.5t23 15t23.5 6q9 0 19.5 -4
t19.5 -11t15 -15t6 -17q0 -5 -1.5 -6.5t-4 -6.5t-5.5 -17t-6 -37q-4 -37 -7.5 -88.5t-5.5 -109t-3.5 -118t-2.5 -115t-1.5 -100t-0.5 -73.5q0 -22 1.5 -37t5 -29.5t11 -30t19.5 -37.5q1 -1 1 -6q0 -21 -49 -21h-9q-51 1 -62 82q-2 16 -4 50.5t-3.5 78.5t-2.5 94l-2 98.5
t-1.5 91t-0.5 71.5q0 10 0.5 28t0.5 40t0.5 46.5t0.5 47.5q-9 -8 -23 -12t-29 -4q-11 0 -22 1.5t-21 6.5q28 -78 28 -172zM459 348q0 52 -5 93.5t-17.5 73t-34.5 52t-55 30.5q-11 4 -32 4q-56 0 -112 -50q-89 -81 -89 -289q0 -23 5.5 -47.5t14 -47t19 -41t20.5 -28.5
q39 -40 114 -40q45 0 77.5 21t53.5 59t31 91.5t10 118.5z" />
    <glyph glyph-name="oi" unicode="&#x1a3;" horiz-adv-x="581" 
d="M372 197q0 -49 -12 -90.5t-34.5 -72t-54 -47.5t-71.5 -17q-84 0 -129 53.5t-45 150.5q0 48 14 95.5t38 85t57 61t71 23.5q11 0 28.5 -6t36.5 -17q15 -9 27.5 -22l24 -25t23.5 -20t28 -8q21 0 33 7.5t23 29.5q-3 11 -3.5 23t-0.5 19q31 22 52 22q22 0 42 -14.5t20 -36.5
q0 -8 -2.5 -16.5t-4.5 -16.5q-3 -10 -6 -19q-7 -31 -10 -75t-3 -101v-186q3 -126 21 -176q5 -17 5 -22q0 -18 -14.5 -30.5t-33.5 -12.5q-63 0 -63 165q0 27 0.5 80t1 113.5l1 119.5t0.5 100q-5 -14 -12.5 -21t-23.5 -7q-8 0 -17 2.5t-19 10.5q12 -45 12 -102zM284 199
q0 78 -13 115.5t-50 37.5q-23 0 -41.5 -14t-31.5 -38t-20 -56t-7 -68q0 -133 79 -133q45 0 64.5 43.5t19.5 112.5z" />
    <glyph glyph-name="u01AF" unicode="&#x1af;" horiz-adv-x="608" 
d="M560 684q7 0 14.5 -7t12.5 -18.5t8.5 -24.5t3.5 -25q0 -37 -24 -64t-60 -27q-24 0 -34 5.5t-20 5.5q-4 0 -7.5 -2t-3.5 -8v-152q0 -46 -7 -97.5t-19 -98t-27.5 -84t-32.5 -55.5q-52 -55 -128 -55q-73 0 -124.5 45.5t-71.5 120.5q-15 55 -15 150q0 19 2 57.5l4 81l4 81
t2 57.5q0 8 -6 23.5t-6 23.5q0 10 9 20t23.5 17.5t32.5 12t36 4.5q34 0 34 -21q0 -5 -3 -13.5t-7 -18.5t-7 -19t-3 -14q0 -17 -3 -50.5t-7 -71t-7 -71.5t-3 -50v-124q0 -32 7 -60.5t20 -50t32 -34t42 -12.5q100 0 133 184q15 85 15 267q0 64 -20 107q-6 12 -6 19
q0 18 13.5 35t31.5 17q9 0 20 -4t20.5 -10t15.5 -14.5t6 -17.5q0 -18 7.5 -30t17.5 -19t20 -10t15 -3q15 0 31 11t16 26q0 8 -9 20t-9 20q0 25 21 25z" />
    <glyph glyph-name="u01B0" unicode="&#x1b0;" horiz-adv-x="465" 
d="M419 459q7 0 14.5 -7t12.5 -18.5t8.5 -24.5t3.5 -25q0 -37 -24 -64t-60 -27q-8 0 -17.5 1.5t-15.5 1.5q-5 0 -7.5 -2.5t-3.5 -10.5l-6 -65.5t-3 -48.5q0 -12 1 -35t1.5 -48.5t1.5 -48.5t1 -34q0 -23 -39 -23q-41 0 -51 39q-37 -25 -74 -25q-14 0 -31.5 4t-34.5 11.5
t-31 17t-21 20.5q-29 44 -29 135q0 10 0.5 34t1.5 53.5t1.5 60t0.5 51.5v24q28 22 50 22q48 0 48 -47q0 -7 -1.5 -20t-3 -28t-3 -28t-1.5 -20v-141q0 -14 4 -28t11 -25.5t16 -19t20 -7.5q35 0 56.5 39t21.5 108v120q0 22 -12 57q26 23 48 23q19 0 30.5 -8.5t21 -18t19 -18
t25.5 -8.5q15 0 31 11t16 26q0 8 -9 20t-9 20q0 25 21 25z" />
    <glyph glyph-name="Zstroke" unicode="&#x1b5;" horiz-adv-x="624" 
d="M578 333q0 -26 -10 -33t-42 -7q-8 0 -11 1.5t-8 3t-15.5 4t-31.5 4t-57 3t-92 1.5l-86 -74t-61.5 -59t-37 -47t-12.5 -39q0 -20 46 -20q19 0 57 3.5l79.5 7.5l79.5 7.5t57 3.5q18 0 36.5 -5t34 -14t26.5 -20.5t14 -24.5q-17 -29 -43 -29q-7 0 -21.5 5t-22.5 5l-144 -12
q-43 -4 -77.5 -6t-61.5 -2q-47 0 -77 5.5t-48 17.5t-25 31.5t-7 48.5q0 37 30 84t94 104l24 21q-32 -5 -49.5 -10t-30.5 -5q-9 0 -20 4t-21 11t-16.5 15t-6.5 16q0 18 2.5 27.5t12.5 9.5q60 0 114.5 1t103.5 3q115 91 179 150.5t64 97.5q0 21 -37 21q-31 0 -69.5 -6t-82 -19
t-90 -33.5t-93.5 -48.5q-41 -26 -51 -24q-45 0 -45 66q0 14 6 21.5t36 21.5q225 105 380 105q26 0 48 -6.5t39 -20.5q9 -8 18 -19t16 -24t11.5 -26t4.5 -25q2 -62 -123 -167l-69 -58q23 2 40 2.5t26 0.5q20 0 41 -3.5t37.5 -10.5t27 -16t10.5 -20z" />
    <glyph glyph-name="zstroke" unicode="&#x1b6;" horiz-adv-x="411" 
d="M390 202q0 -24 -7 -30t-28 -6q-8 0 -10 2t-12.5 4.5t-37.5 5t-84 3.5q-35 -39 -56.5 -67.5t-27.5 -46.5q5 -1 9 -1h8q9 0 28.5 2.5t40.5 5.5t40.5 5.5t28.5 2.5q64 0 86 -52l-17 -21h-27q-13 0 -41.5 -3.5l-60.5 -7.5l-61 -7.5t-42 -3.5q-34 0 -61 17.5t-27 47.5
q0 18 11.5 43t34.5 55l15 19l-21 -6.5t-14 -2.5t-13.5 4t-14 10t-11 13.5t-4.5 14.5q0 16 1.5 25t7.5 9q71 0 131 3q42 42 65 68t33 39q-56 0 -105 -30q-50 -30 -52 -30q-19 0 -32 14.5t-13 33.5q0 34 103 65q84 25 135 25q80 0 80 -53q0 -11 -1 -18t-4 -13.5t-9 -13.5
t-15 -16l-64 -65q12 1 21.5 1.5t14.5 0.5q14 0 28 -3.5t25.5 -9.5t18.5 -14.5t7 -17.5z" />
    <glyph glyph-name="clickdental" unicode="&#x1c0;" horiz-adv-x="171" 
d="M139 27q0 -18 -14.5 -30.5t-33.5 -12.5q-63 0 -63 165q0 75 1.5 225t1.5 225q0 12 -3 35t-3 34q33 22 52 22q22 0 42 -14.5t20 -36.5q0 -11 -5 -26q-7 -24 -8 -26q-13 -62 -13 -176v-186q3 -126 21 -176q5 -14 5 -22z" />
    <glyph glyph-name="clicklateral" unicode="&#x1c1;" horiz-adv-x="342" 
d="M139 27q0 -18 -14.5 -30.5t-33.5 -12.5q-63 0 -63 165q0 75 1.5 225t1.5 225q0 12 -3 35t-3 34q33 22 52 22q22 0 42 -14.5t20 -36.5q0 -11 -5 -26q-7 -24 -8 -26q-13 -62 -13 -176v-186q3 -126 21 -176q5 -14 5 -22zM310 27q0 -18 -14.5 -30.5t-33.5 -12.5
q-63 0 -63 165q0 75 1.5 225t1.5 225q0 12 -3 35t-3 34q33 22 52 22q22 0 42 -14.5t20 -36.5q0 -11 -5 -26q-7 -24 -8 -26q-13 -62 -13 -176v-186q3 -126 21 -176q5 -14 5 -22z" />
    <glyph glyph-name="clickretroflex" unicode="&#x1c3;" horiz-adv-x="269" 
d="M232 634q0 -7 -5 -15l-9 -14q-23 -57 -34 -145q-5 -31 -15 -150q0 -5 -2.5 -19.5t-2.5 -22.5q0 -26 11 -69q-6 -8 -20 -22q-11 -3 -24 -3q-20 0 -37 10q-15 28 -15 72q0 46 18.5 136.5t18.5 136.5q0 18 -6.5 54.5t-6.5 54.5q0 10 2 17q25 21 61 21q21 0 42 -10
q24 -13 24 -32zM203 65q0 -76 -87 -76q-16 0 -61 19q-12 22 -12 42q0 58 71 58q26 0 53 -10q36 -13 36 -33z" />
    <glyph glyph-name="DZcaron" unicode="&#x1c4;" horiz-adv-x="1190" 
d="M507 415q0 -157 -72 -283q-86 -150 -231 -150q-52 0 -90 21q-21 -19 -41 -19q-12 0 -28 13q-20 56 -20 149q0 80 4.5 240t4.5 240q0 2 -1 7t-1 8q0 18 13 29t31 11q25 0 44.5 -18t14.5 -42q51 75 145 75q114 0 175 -86q52 -76 52 -195zM408 419q0 204 -120 204
q-49 0 -97 -50q-42 -44 -57.5 -95.5t-15.5 -113.5v-215q0 -94 79 -94q71 0 129 73q48 62 66 141q16 71 16 150zM1152 605q0 -58 -123 -167l-228 -190q-123 -107 -123 -157q0 -20 46 -20t136.5 11t136.5 11q33 0 66 -16q39 -19 45 -48q-16 -29 -43 -29q-7 0 -21.5 5t-22.5 5
h-6q-25 -2 -138 -12q-85 -8 -139 -8q-76 0 -108 14q-49 22 -49 89q0 74 124 188l232 188q124 103 124 153q0 21 -37 21q-65 0 -145.5 -21.5t-137.5 -53.5l-52 -32q-40 -24 -51 -24q-45 0 -45 66q0 18 13 28q4 3 29 15q225 105 380 105q53 0 87 -27q19 -15 34.5 -43t15.5 -51
zM1003 877q0 -16 -60 -63.5t-78 -47.5q-20 0 -131 91q-4 8 -4 16q0 18 23 18q17 0 46 -22q34 -26 45 -30q7 -2 21 -7q15 5 42 20q53 39 70 39q26 0 26 -14z" />
    <glyph glyph-name="Dzcaron" unicode="&#x1c5;" horiz-adv-x="940" 
d="M507 415q0 -157 -72 -283q-86 -150 -231 -150q-52 0 -90 21q-21 -19 -41 -19q-12 0 -28 13q-20 56 -20 149q0 80 4.5 240t4.5 240q0 2 -1 7t-1 8q0 18 13 29t31 11q25 0 44.5 -18t14.5 -42q51 75 145 75q114 0 175 -86q52 -76 52 -195zM408 419q0 204 -120 204
q-49 0 -97 -50q-42 -44 -57.5 -95.5t-15.5 -113.5v-215q0 -94 79 -94q71 0 129 73q48 62 66 141q16 71 16 150zM908 371q0 -22 -8 -36q-5 -9 -21 -25l-117 -118q-81 -86 -95 -125q9 -1 17 -1q23 0 69 8t69 8q64 0 86 -52l-17 -21h-27q-36 1 -104 -10.5t-101 -11.5t-58 16
q-30 18 -30 49q0 37 46 98q28 36 95 107q64 66 80 89l-5 1q-50 0 -99.5 -30.5t-52.5 -30.5q-19 0 -32 14.5t-13 33.5q0 34 103 65q87 25 135 25q80 0 80 -53zM876 576q0 -16 -60 -63.5t-78 -47.5q-20 0 -131 91q-4 8 -4 16q0 18 23 18q17 0 46 -22q34 -26 45 -30q7 -2 21 -7
q15 5 42 20q53 39 70 39q26 0 26 -14z" />
    <glyph glyph-name="dzcaron" unicode="&#x1c6;" horiz-adv-x="788" 
d="M372 608q0 -22 -6 -57q-8 -47 -10 -56q-3 -31 -9.5 -183t-6.5 -168q0 -96 21 -144q-17 -28 -39 -28q-23 0 -41 17.5t-20 40.5q-47 -43 -96 -43q-73 0 -113 51q-37 46 -37 121q0 88 36 179q46 115 120 115q44 0 90 -39q5 47 5 240q0 18 27 18q32 0 55.5 -16t23.5 -48z
M256 269q0 34 -15 62q-19 34 -50 34q-45 0 -69 -89q-18 -64 -18 -126q0 -93 54 -93q56 0 81 83q17 56 17 129zM756 371q0 -22 -8 -36q-5 -9 -21 -25l-117 -118q-81 -86 -95 -125q9 -1 17 -1q23 0 69 8t69 8q64 0 86 -52l-17 -21h-27q-36 1 -104 -10.5t-101 -11.5t-58 16
q-30 18 -30 49q0 37 46 98q28 36 95 107q64 66 80 89l-5 1q-50 0 -99.5 -30.5t-52.5 -30.5q-19 0 -32 14.5t-13 33.5q0 34 103 65q87 25 135 25q80 0 80 -53zM724 576q0 -16 -60 -63.5t-78 -47.5q-20 0 -131 91q-4 8 -4 16q0 18 23 18q17 0 46 -22q34 -26 45 -30q7 -2 21 -7
q15 5 42 20q53 39 70 39q26 0 26 -14z" />
    <glyph glyph-name="LJ" unicode="&#x1c7;" horiz-adv-x="1006" 
d="M414 26q-108 -39 -228 -39q-94 0 -132 66q-29 51 -29 152q0 59 9.5 175t9.5 175q0 11 -2 35t-2 36t2 27q20 24 49 24q28 0 43 -36q12 -28 12 -60q0 -68 -13 -202t-13 -201q0 -118 67 -118q30 0 86 20.5t86 20.5q28 0 43 -25q12 -20 12 -50zM958 619q0 -35 -40 -35
q-9 0 -25.5 2t-25.5 2q-13 0 -13 -10q0 -14 1.5 -43t1.5 -44q0 -503 -190 -503q-76 0 -139 80q-59 75 -59 153q0 26 12 58q15 39 36 39q33 0 50 -31q15 -25 15 -60q0 -11 -1 -32.5t-1 -31.5q0 -28 26.5 -58t54.5 -30q102 0 102 273q0 48 -8 204q-12 -3 -63 -29
q-46 -24 -56 -24q-20 0 -33 17t-13 37q0 33 69 56l99 30q10 38 45 38q10 0 38 -17q8 1 24.5 5t25.5 4q23 0 45 -14t22 -36z" />
    <glyph glyph-name="Lj" unicode="&#x1c8;" horiz-adv-x="675" 
d="M414 26q-108 -39 -228 -39q-94 0 -132 66q-29 51 -29 152q0 59 9.5 175t9.5 175q0 11 -2 35t-2 36t2 27q20 24 49 24q28 0 43 -36q12 -28 12 -60q0 -68 -13 -202t-13 -201q0 -118 67 -118q30 0 86 20.5t86 20.5q28 0 43 -25q12 -20 12 -50zM650 476q0 -22 -18.5 -36.5
t-40.5 -14.5q-11 0 -33 18q-18 15 -28 27q-2 10 -2 21q0 48 50 48q28 0 50 -18t22 -45zM647 384q-22 -61 -22 -94q0 -64 3 -193.5t3 -194.5q0 -73 -38 -126q-42 -59 -112 -59q-37 0 -108 35q-78 37 -78 68q0 36 41 36q11 0 23 -5q42 -50 101 -50q84 0 84 153q0 5 -7 426
l16 19q34 9 47 9q23 0 47 -24z" />
    <glyph glyph-name="lj" unicode="&#x1c9;" horiz-adv-x="377" 
d="M134 27q0 -18 -14.5 -30.5t-33.5 -12.5q-63 0 -63 165q0 75 1.5 225t1.5 225q0 12 -3 35t-3 34q33 22 52 22q22 0 42 -14.5t20 -36.5q0 -11 -5 -26q-7 -24 -8 -26q-13 -62 -13 -176v-186q3 -126 21 -176q5 -14 5 -22zM352 476q0 -22 -18.5 -36.5t-40.5 -14.5
q-11 0 -33 18q-18 15 -28 27q-2 10 -2 21q0 48 50 48q28 0 50 -18t22 -45zM349 384q-22 -61 -22 -94q0 -64 3 -193.5t3 -194.5q0 -73 -38 -126q-42 -59 -112 -59q-37 0 -108 35q-78 37 -78 68q0 36 41 36q11 0 23 -5q42 -50 101 -50q84 0 84 153q0 5 -7 426l16 19q34 9 47 9
q23 0 47 -24z" />
    <glyph glyph-name="NJ" unicode="&#x1ca;" horiz-adv-x="1102" 
d="M506 655q0 -11 -9 -28q-11 -22 -13 -27q-29 -91 -29 -149l-3 -287q-1 -44 -20 -90q-25 -58 -62 -58q-55 0 -109 92q-39 68 -79 188l-47 156q-21 -170 -21 -228q0 -128 15.5 -147t15.5 -28q0 -19 -20 -33.5t-40 -14.5q-28 0 -46 59q-14 46 -14 84q0 17 1 50.5t1 50.5
q0 41 10 122t10 122v122q0 2 -1.5 6t-1.5 6q0 20 27 33q22 11 44 11q51 0 73 -33q6 -11 11 -46l6 -49q12 -71 63 -228q61 -185 91 -185q11 0 11 28q0 8 -2.5 26t-2.5 28l10 271q3 61 21 120q26 83 70 83q14 0 39 -18q1 -5 1 -9zM1054 619q0 -35 -40 -35q-9 0 -25.5 2
t-25.5 2q-13 0 -13 -10q0 -14 1.5 -43t1.5 -44q0 -503 -190 -503q-76 0 -139 80q-59 75 -59 153q0 26 12 58q15 39 36 39q33 0 50 -31q15 -25 15 -60q0 -11 -1 -32.5t-1 -31.5q0 -28 26.5 -58t54.5 -30q102 0 102 273q0 48 -8 204q-12 -3 -63 -29q-46 -24 -56 -24
q-20 0 -33 17t-13 37q0 33 69 56l99 30q10 38 45 38q10 0 38 -17q8 1 24.5 5t25.5 4q23 0 45 -14t22 -36z" />
    <glyph glyph-name="Nj" unicode="&#x1cb;" horiz-adv-x="771" 
d="M506 655q0 -11 -9 -28q-11 -22 -13 -27q-29 -91 -29 -149l-3 -287q-1 -44 -20 -90q-25 -58 -62 -58q-55 0 -109 92q-39 68 -79 188l-47 156q-21 -170 -21 -228q0 -128 15.5 -147t15.5 -28q0 -19 -20 -33.5t-40 -14.5q-28 0 -46 59q-14 46 -14 84q0 17 1 50.5t1 50.5
q0 41 10 122t10 122v122q0 2 -1.5 6t-1.5 6q0 20 27 33q22 11 44 11q51 0 73 -33q6 -11 11 -46l6 -49q12 -71 63 -228q61 -185 91 -185q11 0 11 28q0 8 -2.5 26t-2.5 28l10 271q3 61 21 120q26 83 70 83q14 0 39 -18q1 -5 1 -9zM746 476q0 -22 -18.5 -36.5t-40.5 -14.5
q-11 0 -33 18q-18 15 -28 27q-2 10 -2 21q0 48 50 48q28 0 50 -18t22 -45zM743 384q-22 -61 -22 -94q0 -64 3 -193.5t3 -194.5q0 -73 -38 -126q-42 -59 -112 -59q-37 0 -108 35q-78 37 -78 68q0 36 41 36q11 0 23 -5q42 -50 101 -50q84 0 84 153q0 5 -7 426l16 19q34 9 47 9
q23 0 47 -24z" />
    <glyph glyph-name="nj" unicode="&#x1cc;" horiz-adv-x="642" 
d="M382 7q-15 -23 -37 -23q-17 0 -56 20v12q0 22 1.5 65t1.5 63q0 214 -64 214q-18 0 -41 -28q-71 -86 -71 -207q0 -17 6.5 -50.5t6.5 -50.5q0 -14 -13 -23t-28 -9q-60 0 -60 76v209q0 8 2 23.5t2 23.5q0 12 -3.5 35t-3.5 34q0 16 18.5 30.5t33.5 14.5q22 0 45 -25l-3 -40
q37 59 91 59q35 0 74 -24t57 -54q41 -76 41 -200v-145zM617 476q0 -22 -18.5 -36.5t-40.5 -14.5q-11 0 -33 18q-18 15 -28 27q-2 10 -2 21q0 48 50 48q28 0 50 -18t22 -45zM614 384q-22 -61 -22 -94q0 -64 3 -193.5t3 -194.5q0 -73 -38 -126q-42 -59 -112 -59q-37 0 -108 35
q-78 37 -78 68q0 36 41 36q11 0 23 -5q42 -50 101 -50q84 0 84 153q0 5 -7 426l16 19q34 9 47 9q23 0 47 -24z" />
    <glyph glyph-name="u01CD" unicode="&#x1cd;" 
d="M553 177q0 -48 -43 -49q5 -23 22 -62q-1 -22 -18 -36t-40 -14q-18 0 -42 11q-13 26 -13 62q0 9 1 26t1 25q0 -7 -33 -7q-56 0 -133 -5q-110 -6 -119.5 -17t-12.5 -107q-13 -19 -33 -19q-21 0 -43 17.5t-22 37.5q0 7 18 56q20 71 65 213q134 367 223 367q87 0 134 -194
q21 -87 39 -267q26 -6 33 -10q16 -9 16 -28zM413 215q-44 349 -79 349q-28 0 -98 -164q-50 -118 -79 -205q32 7 95 17q57 7 161 3zM471 827q0 -16 -60 -63.5t-78 -47.5q-20 0 -131 91q-4 8 -4 16q0 18 23 18q17 0 46 -22q34 -26 45 -30q7 -2 21 -7q15 5 42 20q53 39 70 39
q26 0 26 -14z" />
    <glyph glyph-name="u01CE" unicode="&#x1ce;" horiz-adv-x="428" 
d="M384 170q0 -129 -8 -182q-5 -31 -42 -31q-56 0 -50 56q-50 -24 -104 -24q-52 0 -99 26q-56 31 -56 79q0 47 64 88q58 37 109 37h85v24q1 105 -62 105q-79 0 -79 -74q0 -25 -28 -25q-17 0 -35.5 15.5t-18.5 32.5q0 56 40 92t96 36q188 0 188 -255zM283 134q0 20 -30 20
q-125 0 -125 -59q0 -32 55 -32q34 0 64 19q36 21 36 52zM355 577q0 -16 -60 -63.5t-78 -47.5q-20 0 -131 91q-4 8 -4 16q0 18 23 18q17 0 46 -22q34 -26 45 -30q7 -2 21 -7q15 5 42 20q53 39 70 39q26 0 26 -14z" />
    <glyph glyph-name="u01CF" unicode="&#x1cf;" horiz-adv-x="203" 
d="M169 623q0 -5 -9 -22q-4 -8 -8 -45q-21 -224 -21 -393q0 -44 8 -71q7 -23 29 -63q1 -2 1 -6q0 -21 -49 -21h-9q-51 1 -62 82q-14 99 -14 273q0 41 1.5 123.5t1.5 124.5q0 23 24 44t47 21q18 0 39 -15t21 -32zM240 822q0 -16 -60 -63.5t-78 -47.5q-20 0 -131 91
q-4 8 -4 16q0 18 23 18q17 0 46 -22q34 -26 45 -30q7 -2 21 -7q15 5 42 20q53 39 70 39q26 0 26 -14z" />
    <glyph glyph-name="u01D0" unicode="&#x1d0;" horiz-adv-x="196" 
d="M148 375q0 -17 -8 -49.5t-8 -49.5v-201q0 -19 11 -59q-15 -22 -33 -22q-69 0 -69 61v346q28 14 45 14t39.5 -13t22.5 -27zM232 567q0 -16 -60 -63.5t-78 -47.5q-20 0 -131 91q-4 8 -4 16q0 18 23 18q17 0 46 -22q34 -26 45 -30q7 -2 21 -7q15 5 42 20q53 39 70 39
q26 0 26 -14z" />
    <glyph glyph-name="u01D1" unicode="&#x1d1;" horiz-adv-x="629" 
d="M577 339q0 -144 -71 -244q-79 -113 -217 -113q-39 0 -84 15q-100 32 -143 111q-37 68 -37 182q0 148 71 261q82 133 222 133q123 0 196 -115q63 -99 63 -230zM481 348q0 208 -134 249q-14 4 -32 4q-56 0 -112 -50q-89 -81 -89 -289q0 -19 8 -53q17 -77 51 -111
q39 -40 114 -40q102 0 154 99q40 78 40 191zM438 835q0 -16 -60 -63.5t-78 -47.5q-20 0 -131 91q-4 8 -4 16q0 18 23 18q17 0 46 -22q34 -26 45 -30q7 -2 21 -7q15 5 42 20q53 39 70 39q26 0 26 -14z" />
    <glyph glyph-name="u01D2" unicode="&#x1d2;" horiz-adv-x="415" 
d="M377 197q0 -90 -45 -154q-52 -73 -138 -73q-88 0 -133 60q-41 53 -41 144q0 90 45 170q52 95 135 95q26 0 65 -23q112 -67 112 -219zM289 199q0 153 -74 153q-53 0 -80 -65q-20 -49 -20 -111q0 -133 79 -133q51 0 76 55q19 42 19 101zM335 591q0 -16 -60 -63.5t-78 -47.5
q-20 0 -131 91q-4 8 -4 16q0 18 23 18q17 0 46 -22q34 -26 45 -30q7 -2 21 -7q15 5 42 20q53 39 70 39q26 0 26 -14z" />
    <glyph glyph-name="u01D3" unicode="&#x1d3;" horiz-adv-x="502" 
d="M450 367q0 -83 -20 -176q-24 -115 -66 -159q-52 -55 -128 -55q-68 0 -119 41q-56 46 -77 125q-15 56 -15 150q0 46 6 138.5t6 138.5q0 8 -6 23.5t-6 23.5q0 25 40 41q31 13 61 13q34 0 34 -21q0 -11 -10 -32t-10 -33q0 -40 -10 -121t-10 -122v-124q0 -57 22 -101
q27 -56 79 -56q100 0 133 184q15 86 15 267q0 66 -20 107q-6 12 -6 19q0 18 13.5 35t31.5 17q19 0 40.5 -14t21.5 -32v-277zM374 841q0 -16 -60 -63.5t-78 -47.5q-20 0 -131 91q-4 8 -4 16q0 18 23 18q17 0 46 -22q34 -26 45 -30q7 -2 21 -7q15 5 42 20q53 39 70 39
q26 0 26 -14z" />
    <glyph glyph-name="u01D4" unicode="&#x1d4;" horiz-adv-x="367" 
d="M336 357q0 -31 -7.5 -93.5t-7.5 -94.5q0 -28 2.5 -83.5t2.5 -82.5q0 -23 -39 -23q-40 0 -51 39q-38 -25 -74 -25q-29 0 -66 15.5t-52 37.5q-29 42 -29 135q0 32 2 112q3 71 2 111q30 22 50 22q48 0 48 -47q0 -16 -4.5 -48t-4.5 -48v-141q0 -24 13 -50q16 -30 38 -30
q43 0 64 55q14 38 14 92v120q0 23 -12 57q25 23 48 23q24 0 43.5 -15t19.5 -38zM312 579q0 -16 -60 -63.5t-78 -47.5q-20 0 -131 91q-4 8 -4 16q0 18 23 18q17 0 46 -22q34 -26 45 -30q7 -2 21 -7q15 5 42 20q53 39 70 39q26 0 26 -14z" />
    <glyph glyph-name="Udieresismacron" unicode="&#x1d5;" horiz-adv-x="502" 
d="M450 367q0 -83 -20 -176q-24 -115 -66 -159q-52 -55 -128 -55q-68 0 -119 41q-56 46 -77 125q-15 56 -15 150q0 46 6 138.5t6 138.5q0 8 -6 23.5t-6 23.5q0 25 40 41q31 13 61 13q34 0 34 -21q0 -11 -10 -32t-10 -33q0 -40 -10 -121t-10 -122v-124q0 -57 22 -101
q27 -56 79 -56q100 0 133 184q15 86 15 267q0 66 -20 107q-6 12 -6 19q0 18 13.5 35t31.5 17q19 0 40.5 -14t21.5 -32v-277zM362 785q0 -23 -16 -39t-39 -16q-25 0 -40.5 16t-15.5 39q0 21 15.5 37.5t40.5 16.5q23 0 39 -16.5t16 -37.5zM223 785q0 -23 -16 -39t-39 -16
q-25 0 -40.5 16t-15.5 39q0 21 15.5 37.5t40.5 16.5q23 0 39 -16.5t16 -37.5zM345 903q0 -24 -14 -24h-186q-16 0 -16 26q0 24 16 24h184q16 0 16 -26z" />
    <glyph glyph-name="udieresismacron" unicode="&#x1d6;" horiz-adv-x="367" 
d="M336 357q0 -31 -7.5 -93.5t-7.5 -94.5q0 -28 2.5 -83.5t2.5 -82.5q0 -23 -39 -23q-40 0 -51 39q-38 -25 -74 -25q-29 0 -66 15.5t-52 37.5q-29 42 -29 135q0 32 2 112q3 71 2 111q30 22 50 22q48 0 48 -47q0 -16 -4.5 -48t-4.5 -48v-141q0 -24 13 -50q16 -30 38 -30
q43 0 64 55q14 38 14 92v120q0 23 -12 57q25 23 48 23q24 0 43.5 -15t19.5 -38zM300 523q0 -23 -16 -39t-39 -16q-25 0 -40.5 16t-15.5 39q0 21 15.5 37.5t40.5 16.5q23 0 39 -16.5t16 -37.5zM161 523q0 -23 -16 -39t-39 -16q-25 0 -40.5 16t-15.5 39q0 21 15.5 37.5
t40.5 16.5q23 0 39 -16.5t16 -37.5zM283 641q0 -24 -14 -24h-186q-16 0 -16 26q0 24 16 24h184q16 0 16 -26z" />
    <glyph glyph-name="Udieresisacute" unicode="&#x1d7;" horiz-adv-x="502" 
d="M450 367q0 -83 -20 -176q-24 -115 -66 -159q-52 -55 -128 -55q-68 0 -119 41q-56 46 -77 125q-15 56 -15 150q0 46 6 138.5t6 138.5q0 8 -6 23.5t-6 23.5q0 25 40 41q31 13 61 13q34 0 34 -21q0 -11 -10 -32t-10 -33q0 -40 -10 -121t-10 -122v-124q0 -57 22 -101
q27 -56 79 -56q100 0 133 184q15 86 15 267q0 66 -20 107q-6 12 -6 19q0 18 13.5 35t31.5 17q19 0 40.5 -14t21.5 -32v-277zM362 785q0 -23 -16 -39t-39 -16q-25 0 -40.5 16t-15.5 39q0 21 15.5 37.5t40.5 16.5q23 0 39 -16.5t16 -37.5zM223 785q0 -23 -16 -39t-39 -16
q-25 0 -40.5 16t-15.5 39q0 21 15.5 37.5t40.5 16.5q23 0 39 -16.5t16 -37.5zM337 971q-5 -11 -11.5 -18.5t-14.5 -10.5q-5 -2 -22 -11.5t-46 -27.5q-56 -32 -74 -32q-14 0 -23 8t-8 24v12q15 18 31 34.5l33 33.5q52 49 79 49q9 0 18.5 -4.5t17.5 -12t14 -16.5t8 -18z" />
    <glyph glyph-name="udieresisacute" unicode="&#x1d8;" horiz-adv-x="367" 
d="M336 357q0 -31 -7.5 -93.5t-7.5 -94.5q0 -28 2.5 -83.5t2.5 -82.5q0 -23 -39 -23q-40 0 -51 39q-38 -25 -74 -25q-29 0 -66 15.5t-52 37.5q-29 42 -29 135q0 32 2 112q3 71 2 111q30 22 50 22q48 0 48 -47q0 -16 -4.5 -48t-4.5 -48v-141q0 -24 13 -50q16 -30 38 -30
q43 0 64 55q14 38 14 92v120q0 23 -12 57q25 23 48 23q24 0 43.5 -15t19.5 -38zM300 523q0 -23 -16 -39t-39 -16q-25 0 -40.5 16t-15.5 39q0 21 15.5 37.5t40.5 16.5q23 0 39 -16.5t16 -37.5zM161 523q0 -23 -16 -39t-39 -16q-25 0 -40.5 16t-15.5 39q0 21 15.5 37.5
t40.5 16.5q23 0 39 -16.5t16 -37.5zM275 709q-5 -11 -11.5 -18.5t-14.5 -10.5q-5 -2 -22 -11.5t-46 -27.5q-56 -32 -74 -32q-14 0 -23 8t-8 24v12q15 18 31 34.5l33 33.5q52 49 79 49q9 0 18.5 -4.5t17.5 -12t14 -16.5t8 -18z" />
    <glyph glyph-name="Udieresiscaron" unicode="&#x1d9;" horiz-adv-x="502" 
d="M450 367q0 -83 -20 -176q-24 -115 -66 -159q-52 -55 -128 -55q-68 0 -119 41q-56 46 -77 125q-15 56 -15 150q0 46 6 138.5t6 138.5q0 8 -6 23.5t-6 23.5q0 25 40 41q31 13 61 13q34 0 34 -21q0 -11 -10 -32t-10 -33q0 -40 -10 -121t-10 -122v-124q0 -57 22 -101
q27 -56 79 -56q100 0 133 184q15 86 15 267q0 66 -20 107q-6 12 -6 19q0 18 13.5 35t31.5 17q19 0 40.5 -14t21.5 -32v-277zM362 785q0 -23 -16 -39t-39 -16q-25 0 -40.5 16t-15.5 39q0 21 15.5 37.5t40.5 16.5q23 0 39 -16.5t16 -37.5zM223 785q0 -23 -16 -39t-39 -16
q-25 0 -40.5 16t-15.5 39q0 21 15.5 37.5t40.5 16.5q23 0 39 -16.5t16 -37.5zM374 990q0 -16 -60 -63.5t-78 -47.5q-20 0 -131 91q-4 8 -4 16q0 18 23 18q17 0 46 -22q34 -26 45 -30q7 -2 21 -7q15 5 42 20q53 39 70 39q26 0 26 -14z" />
    <glyph glyph-name="udieresiscaron" unicode="&#x1da;" horiz-adv-x="367" 
d="M336 357q0 -31 -7.5 -93.5t-7.5 -94.5q0 -28 2.5 -83.5t2.5 -82.5q0 -23 -39 -23q-40 0 -51 39q-38 -25 -74 -25q-29 0 -66 15.5t-52 37.5q-29 42 -29 135q0 32 2 112q3 71 2 111q30 22 50 22q48 0 48 -47q0 -16 -4.5 -48t-4.5 -48v-141q0 -24 13 -50q16 -30 38 -30
q43 0 64 55q14 38 14 92v120q0 23 -12 57q25 23 48 23q24 0 43.5 -15t19.5 -38zM300 523q0 -23 -16 -39t-39 -16q-25 0 -40.5 16t-15.5 39q0 21 15.5 37.5t40.5 16.5q23 0 39 -16.5t16 -37.5zM161 523q0 -23 -16 -39t-39 -16q-25 0 -40.5 16t-15.5 39q0 21 15.5 37.5
t40.5 16.5q23 0 39 -16.5t16 -37.5zM312 728q0 -16 -60 -63.5t-78 -47.5q-20 0 -131 91q-4 8 -4 16q0 18 23 18q17 0 46 -22q34 -26 45 -30q7 -2 21 -7q15 5 42 20q53 39 70 39q26 0 26 -14z" />
    <glyph glyph-name="Udieresisgrave" unicode="&#x1db;" horiz-adv-x="502" 
d="M450 367q0 -83 -20 -176q-24 -115 -66 -159q-52 -55 -128 -55q-68 0 -119 41q-56 46 -77 125q-15 56 -15 150q0 46 6 138.5t6 138.5q0 8 -6 23.5t-6 23.5q0 25 40 41q31 13 61 13q34 0 34 -21q0 -11 -10 -32t-10 -33q0 -40 -10 -121t-10 -122v-124q0 -57 22 -101
q27 -56 79 -56q100 0 133 184q15 86 15 267q0 66 -20 107q-6 12 -6 19q0 18 13.5 35t31.5 17q19 0 40.5 -14t21.5 -32v-277zM362 785q0 -23 -16 -39t-39 -16q-25 0 -40.5 16t-15.5 39q0 21 15.5 37.5t40.5 16.5q23 0 39 -16.5t16 -37.5zM223 785q0 -23 -16 -39t-39 -16
q-25 0 -40.5 16t-15.5 39q0 21 15.5 37.5t40.5 16.5q23 0 39 -16.5t16 -37.5zM335 902q0 -32 -35 -32q-34 0 -83 43q-7 5 -13.5 9t-12.5 6q-14 5 -24 9t-18 9l-6 16q1 9 7 19.5t14 19t17.5 14t18.5 5.5q14 0 33.5 -11t40.5 -30q15 -14 30 -29.5t27 -32.5q4 -10 4 -15z" />
    <glyph glyph-name="udieresisgrave" unicode="&#x1dc;" horiz-adv-x="367" 
d="M336 357q0 -31 -7.5 -93.5t-7.5 -94.5q0 -28 2.5 -83.5t2.5 -82.5q0 -23 -39 -23q-40 0 -51 39q-38 -25 -74 -25q-29 0 -66 15.5t-52 37.5q-29 42 -29 135q0 32 2 112q3 71 2 111q30 22 50 22q48 0 48 -47q0 -16 -4.5 -48t-4.5 -48v-141q0 -24 13 -50q16 -30 38 -30
q43 0 64 55q14 38 14 92v120q0 23 -12 57q25 23 48 23q24 0 43.5 -15t19.5 -38zM300 523q0 -23 -16 -39t-39 -16q-25 0 -40.5 16t-15.5 39q0 21 15.5 37.5t40.5 16.5q23 0 39 -16.5t16 -37.5zM161 523q0 -23 -16 -39t-39 -16q-25 0 -40.5 16t-15.5 39q0 21 15.5 37.5
t40.5 16.5q23 0 39 -16.5t16 -37.5zM273 640q0 -32 -35 -32q-34 0 -83 43q-7 5 -13.5 9t-12.5 6q-14 5 -24 9t-18 9l-6 16q1 9 7 19.5t14 19t17.5 14t18.5 5.5q14 0 33.5 -11t40.5 -30q15 -14 30 -29.5t27 -32.5q4 -10 4 -15z" />
    <glyph glyph-name="Adieresismacron" unicode="&#x1de;" 
d="M553 177q0 -48 -43 -49q5 -23 22 -62q-1 -22 -18 -36t-40 -14q-18 0 -42 11q-13 26 -13 62q0 9 1 26t1 25q0 -7 -33 -7q-56 0 -133 -5q-110 -6 -119.5 -17t-12.5 -107q-13 -19 -33 -19q-21 0 -43 17.5t-22 37.5q0 7 18 56q20 71 65 213q134 367 223 367q87 0 134 -194
q21 -87 39 -267q26 -6 33 -10q16 -9 16 -28zM413 215q-44 349 -79 349q-28 0 -98 -164q-50 -118 -79 -205q32 7 95 17q57 7 161 3zM448 771q0 -23 -16 -39t-39 -16q-25 0 -40.5 16t-15.5 39q0 21 15.5 37.5t40.5 16.5q23 0 39 -16.5t16 -37.5zM309 771q0 -23 -16 -39
t-39 -16q-25 0 -40.5 16t-15.5 39q0 21 15.5 37.5t40.5 16.5q23 0 39 -16.5t16 -37.5zM430 889q0 -24 -14 -24h-186q-16 0 -16 26q0 24 16 24h184q16 0 16 -26z" />
    <glyph glyph-name="adieresismacron" unicode="&#x1df;" horiz-adv-x="428" 
d="M384 170q0 -129 -8 -182q-5 -31 -42 -31q-56 0 -50 56q-50 -24 -104 -24q-52 0 -99 26q-56 31 -56 79q0 47 64 88q58 37 109 37h85v24q1 105 -62 105q-79 0 -79 -74q0 -25 -28 -25q-17 0 -35.5 15.5t-18.5 32.5q0 56 40 92t96 36q188 0 188 -255zM283 134q0 20 -30 20
q-125 0 -125 -59q0 -32 55 -32q34 0 64 19q36 21 36 52zM329 521q0 -23 -16 -39t-39 -16q-25 0 -40.5 16t-15.5 39q0 21 15.5 37.5t40.5 16.5q23 0 39 -16.5t16 -37.5zM190 521q0 -23 -16 -39t-39 -16q-25 0 -40.5 16t-15.5 39q0 21 15.5 37.5t40.5 16.5q23 0 39 -16.5
t16 -37.5zM312 639q0 -24 -14 -24h-186q-16 0 -16 26q0 24 16 24h184q16 0 16 -26z" />
    <glyph glyph-name="Adotmacron" unicode="&#x1e0;" 
d="M553 177q0 -48 -43 -49q5 -23 22 -62q-1 -22 -18 -36t-40 -14q-18 0 -42 11q-13 26 -13 62q0 9 1 26t1 25q0 -7 -33 -7q-56 0 -133 -5q-110 -6 -119.5 -17t-12.5 -107q-13 -19 -33 -19q-21 0 -43 17.5t-22 37.5q0 7 18 56q20 71 65 213q134 367 223 367q87 0 134 -194
q21 -87 39 -267q26 -6 33 -10q16 -9 16 -28zM413 215q-44 349 -79 349q-28 0 -98 -164q-50 -118 -79 -205q32 7 95 17q57 7 161 3zM349 758q0 -19 -19.5 -30t-40.5 -11t-39 10q-21 12 -21 31q0 20 21 32q18 10 39 10t40.5 -11t19.5 -31zM397 863q0 -24 -14 -24h-186
q-16 0 -16 26q0 24 16 24h184q16 0 16 -26z" />
    <glyph glyph-name="adotmacron" unicode="&#x1e1;" horiz-adv-x="428" 
d="M384 170q0 -129 -8 -182q-5 -31 -42 -31q-56 0 -50 56q-50 -24 -104 -24q-52 0 -99 26q-56 31 -56 79q0 47 64 88q58 37 109 37h85v24q1 105 -62 105q-79 0 -79 -74q0 -25 -28 -25q-17 0 -35.5 15.5t-18.5 32.5q0 56 40 92t96 36q188 0 188 -255zM283 134q0 20 -30 20
q-125 0 -125 -59q0 -32 55 -32q34 0 64 19q36 21 36 52zM264 507q0 -19 -19.5 -30t-40.5 -11t-39 10q-21 12 -21 31q0 20 21 32q18 10 39 10t40.5 -11t19.5 -31zM312 613q0 -24 -14 -24h-186q-16 0 -16 26q0 24 16 24h184q16 0 16 -26z" />
    <glyph glyph-name="AEmacron" unicode="&#x1e2;" horiz-adv-x="947" 
d="M881 67q0 -29 -35 -29q-4 0 -11.5 1.5t-11.5 1.5q-45 0 -130 -27t-131 -27q-119 0 -129 145q-18 2 -30 2q-56 0 -136 -6q-108 -7 -122 -19q-10 -9 -27 -107q-14 -17 -33 -17q-22 0 -41 17t-19 38q0 7 26 58q29 72 94 213q55 107 121 209q103 157 150 157q13 0 37 -6
t37 -6q70 0 238 28q20 4 33 4q66 0 118 -60q-29 -28 -52 -28q-6 0 -18.5 1.5t-18.5 1.5q-56 0 -126 -8q-89 -9 -119 -25q-7 -80 -12 -219q5 1 71 6t78 5q36 0 88 -25v-27q0 -18 -35 -44q-21 21 -27 21q-84 0 -179 -27l-1 -54q44 -10 44 -37q0 -20 -14 -34.5t-34 -15.5
q4 -61 46 -61q40 0 113.5 26.5t112.5 26.5q63 0 84 -36v-9q1 -6 1 -8zM443 539l-1 45q-6 9 -17 9q-46 0 -245 -397q29 6 89 16q62 7 164 4v38q-34 2 -34 41q0 37 36 45q0 18 5 100q3 61 3 99zM561 761q0 -24 -14 -24h-186q-16 0 -16 26q0 24 16 24h184q16 0 16 -26z" />
    <glyph glyph-name="aemacron" unicode="&#x1e3;" horiz-adv-x="673" 
d="M619 108q0 -50 -67 -87q-58 -33 -112 -33q-72 0 -118 43q-72 -40 -142 -40q-52 0 -99 26q-56 31 -56 79q0 47 64 88q58 37 109 37h85v23q1 104 -62 104q-34 0 -58 -41q-21 -36 -21 -72q0 -25 -28 -25q-17 0 -35.5 16t-18.5 33q0 57 38 110q42 56 98 56q36 0 76.5 -15.5
t65.5 -40.5q37 62 87 62q55 0 118.5 -49t63.5 -102q0 -67 -59 -115q-55 -45 -124 -45q-12 0 -26.5 6l-28.5 12q3 -76 75 -76q40 0 78.5 45t53.5 45q17 0 30 -13.5t13 -30.5zM510 277q0 25 -14.5 47.5t-38.5 22.5q-27 0 -53 -42q-23 -38 -23 -68q0 -18 18 -29.5t38 -11.5
q31 0 52 24.5t21 56.5zM283 136q0 19 -30 19q-125 0 -125 -58q0 -32 55 -32q33 0 64 19q36 21 36 52zM430 496q0 -24 -14 -24h-186q-16 0 -16 26q0 24 16 24h184q16 0 16 -26z" />
    <glyph glyph-name="Gcaron" unicode="&#x1e6;" horiz-adv-x="551" 
d="M502 202q0 -87 -76 -155t-164 -68q-127 0 -188 99q-49 81 -49 217q0 138 59 250q71 137 196 137q62 0 108 -29q51 -33 63 -90q10 -47 10 -45q0 -132 -60 -132q-18 0 -33 12t-15 30q0 10 10.5 29t10.5 30q0 57 -14 78q-18 29 -71 29q-54 0 -100 -67q-38 -56 -50 -117
q-12 -65 -12 -120q0 -94 15 -136q24 -68 97 -89q22 -6 36 -6q36 0 76 30q35 28 54 63q11 21 13 53l-4 3q-71 0 -110 -17q-12 -6 -24 -13q-16 -7 -25 -7q-25 0 -39 21t-14 47q0 22 23 36q15 8 94 19q72 9 101 9q82 0 82 -101zM400 833q0 -16 -60 -63.5t-78 -47.5
q-20 0 -131 91q-4 8 -4 16q0 18 23 18q17 0 46 -22q34 -26 45 -30q7 -2 21 -7q15 5 42 20q53 39 70 39q26 0 26 -14z" />
    <glyph glyph-name="gcaron" unicode="&#x1e7;" horiz-adv-x="407" 
d="M370 297q-2 -25 -13 -88q-10 -55 -10 -88q0 -30 3 -90t3 -90q0 -62 -12 -92q-14 -38 -53 -61.5t-81 -23.5q-44 0 -109 24q-78 28 -78 62q0 44 41 44q19 0 26 -11q13 -20 17.5 -24t32.5 -9.5t39 -5.5q90 0 90 113q0 33 -3 56q-43 -37 -103 -37q-25 0 -56 14t-47 33
q-31 36 -31 107q0 85 39 187q48 125 117 125q42 0 80 -39l56 -73q8 -10 25 -18q21 -10 27 -15zM269 237q0 15 -14 25q-6 92 -64 92q-33 0 -55 -93q-16 -71 -16 -123q0 -98 51 -98q48 0 76 78q22 60 22 119zM332 594q0 -16 -60 -63.5t-78 -47.5q-20 0 -131 91q-4 8 -4 16
q0 18 23 18q17 0 46 -22q34 -26 45 -30q7 -2 21 -7q15 5 42 20q53 39 70 39q26 0 26 -14z" />
    <glyph glyph-name="Kcaron" unicode="&#x1e8;" horiz-adv-x="601" 
d="M575 80q0 -27 -33 -43q-27 -12 -57 -12q-139 0 -280 260q-84 -97 -84 -132q0 -92 23 -131l3 -28q-22 -25 -44 -25q-33 0 -55.5 52.5t-22.5 370.5q0 182 13 253q8 42 46 42q24 0 54 -19t30 -41q0 -15 -9 -20l-16 -9q-7 -8 -16 -139q-6 -102 -8 -156q269 369 338 369
q11 0 25 -6q11 -14 21 -29q13 -18 13 -32q0 -13 -9.5 -22.5t-22.5 -9.5q-8 0 -21 6l-3 3q-24 -3 -97.5 -91t-73.5 -115q0 -58 67 -166q70 -115 123 -115q7 0 26.5 8.5t32.5 8.5q37 0 37 -32zM437 838q0 -16 -60 -63.5t-78 -47.5q-20 0 -131 91q-4 8 -4 16q0 18 23 18
q17 0 46 -22q34 -26 45 -30q7 -2 21 -7q15 5 42 20q53 39 70 39q26 0 26 -14z" />
    <glyph glyph-name="kcaron" unicode="&#x1e9;" horiz-adv-x="419" 
d="M411 -31q-38 -28 -60 -28q-29 0 -84 60l-77 85q-22 26 -70 73l-3 -2v-88q0 -8 6.5 -23.5t6.5 -24.5q0 -14 -14.5 -24.5t-29.5 -10.5q-26 0 -43 17t-17 43v132q0 12 3.5 36.5t3.5 36.5v269q0 61 -9 98q-4 17 -4 26q0 19 23 34q20 14 40 14q15 0 32.5 -11.5t17.5 -25.5
q0 -4 -6 -28t-6 -74q0 -16 -3 -267q4 4 108 99q86 80 101 80q53 0 51 -65v-10q-43 -25 -111 -79q-86 -67 -86 -89q0 -2 54 -63l64 -72q60 -63 112 -86v-32zM352 843q0 -16 -60 -63.5t-78 -47.5q-20 0 -131 91q-4 8 -4 16q0 18 23 18q17 0 46 -22q34 -26 45 -30q7 -2 21 -7
q15 5 42 20q53 39 70 39q26 0 26 -14z" />
    <glyph glyph-name="Oogonek" unicode="&#x1ea;" horiz-adv-x="629" 
d="M577 339q0 -144 -71 -244q-79 -113 -217 -113q-39 0 -84 15q-100 32 -143 111q-37 68 -37 182q0 148 71 261q82 133 222 133q123 0 196 -115q63 -99 63 -230zM481 348q0 208 -134 249q-14 4 -32 4q-56 0 -112 -50q-89 -81 -89 -289q0 -19 8 -53q17 -77 51 -111
q39 -40 114 -40q102 0 154 99q40 78 40 191zM384 -176q0 -17 -30 -29q-24 -10 -45 -10q-37 0 -64 24t-27 60q0 53 60 104q11 10 23 10q23 0 23 -19q0 -10 -21 -40t-21 -50q0 -15 11 -31t26 -16q8 0 20 9t20 9q25 0 25 -21z" />
    <glyph glyph-name="oogonek" unicode="&#x1eb;" horiz-adv-x="415" 
d="M377 197q0 -90 -45 -154q-52 -73 -138 -73q-88 0 -133 60q-41 53 -41 144q0 90 45 170q52 95 135 95q26 0 65 -23q112 -67 112 -219zM289 199q0 153 -74 153q-53 0 -80 -65q-20 -49 -20 -111q0 -133 79 -133q51 0 76 55q19 42 19 101zM281 -188q0 -17 -30 -29
q-24 -10 -45 -10q-37 0 -64 24t-27 60q0 53 60 104q11 10 23 10q23 0 23 -19q0 -10 -21 -40t-21 -50q0 -15 11 -31t26 -16q8 0 20 9t20 9q25 0 25 -21z" />
    <glyph glyph-name="Oogonekmacron" unicode="&#x1ec;" horiz-adv-x="629" 
d="M577 339q0 -144 -71 -244q-79 -113 -217 -113q-39 0 -84 15q-100 32 -143 111q-37 68 -37 182q0 148 71 261q82 133 222 133q123 0 196 -115q63 -99 63 -230zM481 348q0 208 -134 249q-14 4 -32 4q-56 0 -112 -50q-89 -81 -89 -289q0 -19 8 -53q17 -77 51 -111
q39 -40 114 -40q102 0 154 99q40 78 40 191zM384 -176q0 -17 -30 -29q-24 -10 -45 -10q-37 0 -64 24t-27 60q0 53 60 104q11 10 23 10q23 0 23 -19q0 -10 -21 -40t-21 -50q0 -15 11 -31t26 -16q8 0 20 9t20 9q25 0 25 -21zM409 748q0 -24 -14 -24h-186q-16 0 -16 26
q0 24 16 24h184q16 0 16 -26z" />
    <glyph glyph-name="oogonekmacron" unicode="&#x1ed;" horiz-adv-x="415" 
d="M377 197q0 -90 -45 -154q-52 -73 -138 -73q-88 0 -133 60q-41 53 -41 144q0 90 45 170q52 95 135 95q26 0 65 -23q112 -67 112 -219zM289 199q0 153 -74 153q-53 0 -80 -65q-20 -49 -20 -111q0 -133 79 -133q51 0 76 55q19 42 19 101zM281 -188q0 -17 -30 -29
q-24 -10 -45 -10q-37 0 -64 24t-27 60q0 53 60 104q11 10 23 10q23 0 23 -19q0 -10 -21 -40t-21 -50q0 -15 11 -31t26 -16q8 0 20 9t20 9q25 0 25 -21zM306 504q0 -24 -14 -24h-186q-16 0 -16 26q0 24 16 24h184q16 0 16 -26z" />
    <glyph glyph-name="DZ" unicode="&#x1f1;" horiz-adv-x="1190" 
d="M507 415q0 -157 -72 -283q-86 -150 -231 -150q-52 0 -90 21q-21 -19 -41 -19q-12 0 -28 13q-20 56 -20 149q0 80 4.5 240t4.5 240q0 2 -1 7t-1 8q0 18 13 29t31 11q25 0 44.5 -18t14.5 -42q51 75 145 75q114 0 175 -86q52 -76 52 -195zM408 419q0 204 -120 204
q-49 0 -97 -50q-42 -44 -57.5 -95.5t-15.5 -113.5v-215q0 -94 79 -94q71 0 129 73q48 62 66 141q16 71 16 150zM1152 605q0 -58 -123 -167l-228 -190q-123 -107 -123 -157q0 -20 46 -20t136.5 11t136.5 11q33 0 66 -16q39 -19 45 -48q-16 -29 -43 -29q-7 0 -21.5 5t-22.5 5
h-6q-25 -2 -138 -12q-85 -8 -139 -8q-76 0 -108 14q-49 22 -49 89q0 74 124 188l232 188q124 103 124 153q0 21 -37 21q-65 0 -145.5 -21.5t-137.5 -53.5l-52 -32q-40 -24 -51 -24q-45 0 -45 66q0 18 13 28q4 3 29 15q225 105 380 105q53 0 87 -27q19 -15 34.5 -43t15.5 -51
z" />
    <glyph glyph-name="Dz" unicode="&#x1f2;" horiz-adv-x="940" 
d="M507 415q0 -157 -72 -283q-86 -150 -231 -150q-52 0 -90 21q-21 -19 -41 -19q-12 0 -28 13q-20 56 -20 149q0 80 4.5 240t4.5 240q0 2 -1 7t-1 8q0 18 13 29t31 11q25 0 44.5 -18t14.5 -42q51 75 145 75q114 0 175 -86q52 -76 52 -195zM408 419q0 204 -120 204
q-49 0 -97 -50q-42 -44 -57.5 -95.5t-15.5 -113.5v-215q0 -94 79 -94q71 0 129 73q48 62 66 141q16 71 16 150zM908 371q0 -22 -8 -36q-5 -9 -21 -25l-117 -118q-81 -86 -95 -125q9 -1 17 -1q23 0 69 8t69 8q64 0 86 -52l-17 -21h-27q-36 1 -104 -10.5t-101 -11.5t-58 16
q-30 18 -30 49q0 37 46 98q28 36 95 107q64 66 80 89l-5 1q-50 0 -99.5 -30.5t-52.5 -30.5q-19 0 -32 14.5t-13 33.5q0 34 103 65q87 25 135 25q80 0 80 -53z" />
    <glyph glyph-name="dz" unicode="&#x1f3;" horiz-adv-x="788" 
d="M372 608q0 -22 -6 -57q-8 -47 -10 -56q-3 -31 -9.5 -183t-6.5 -168q0 -96 21 -144q-17 -28 -39 -28q-23 0 -41 17.5t-20 40.5q-47 -43 -96 -43q-73 0 -113 51q-37 46 -37 121q0 88 36 179q46 115 120 115q44 0 90 -39q5 47 5 240q0 18 27 18q32 0 55.5 -16t23.5 -48z
M256 269q0 34 -15 62q-19 34 -50 34q-45 0 -69 -89q-18 -64 -18 -126q0 -93 54 -93q56 0 81 83q17 56 17 129zM756 371q0 -22 -8 -36q-5 -9 -21 -25l-117 -118q-81 -86 -95 -125q9 -1 17 -1q23 0 69 8t69 8q64 0 86 -52l-17 -21h-27q-36 1 -104 -10.5t-101 -11.5t-58 16
q-30 18 -30 49q0 37 46 98q28 36 95 107q64 66 80 89l-5 1q-50 0 -99.5 -30.5t-52.5 -30.5q-19 0 -32 14.5t-13 33.5q0 34 103 65q87 25 135 25q80 0 80 -53z" />
    </font>
</defs>
</svg>
